<?xml version="1.0" standalone="no"?>
<!DOCTYPE svg PUBLIC "-//W3C//DTD SVG 1.1//EN" "http://www.w3.org/Graphics/SVG/1.1/DTD/svg11.dtd" >
<svg xmlns="http://www.w3.org/2000/svg">
<metadata>Generated by IcoMoon</metadata>
<defs>
<font id="bonpass-font" horiz-adv-x="1024">
<font-face units-per-em="1024" ascent="960" descent="-64" />
<missing-glyph horiz-adv-x="1024" />
<glyph unicode="&#x20;" horiz-adv-x="512" d="" />
<glyph unicode="&#xe900;" glyph-name="leader" horiz-adv-x="1008" d="M663.237 739.446l-102.4-67.742 18.905-28.357 102.4 67.742-18.905 28.357zM702.622 145.526h-152.812v137.058c0 47.262-37.809 85.071-85.071 85.071h-102.4v92.948l230.006 163.84c3.151 3.151 6.302 6.302 6.302 11.028s0 9.452-3.151 12.603l-50.412 67.742c-4.726 7.877-15.754 9.452-23.631 3.151l-173.292-119.729c31.508 58.289 9.452 129.182-48.837 160.689s-129.182 9.452-160.689-48.837c-25.206-47.262-15.754-103.975 22.055-140.209h-17.329c-4.726 0-9.452-1.575-12.603-6.302l-110.277-121.305c-29.932-33.083-28.357-85.071 3.151-116.578l91.372-91.372c3.151-3.151 7.877-4.726 14.178-4.726 4.726 0 9.452 3.151 12.603 7.877l20.48 28.357v-307.2c0-9.452 7.877-17.329 17.329-17.329h102.4c9.452 0 17.329 7.877 17.329 17.329v270.966h118.154v-85.071h-50.412c-9.452 0-17.329-7.877-17.329-17.329v-170.142c0-9.452 7.877-17.329 17.329-17.329h338.708c9.452 0 17.329 7.877 17.329 17.329v171.717c-3.151 9.452-11.028 15.754-20.48 15.754zM160.689 654.375c0 47.262 37.809 85.071 85.071 85.071s85.071-37.809 85.071-85.071-37.809-85.071-85.071-85.071-85.071 39.385-85.071 85.071zM285.145 536.222l-23.631-47.262-23.631 47.262h47.262zM160.689 355.052l-26.782 28.357 26.782 26.782v-55.138zM278.843 265.255c-9.452 0-17.329-7.877-17.329-17.329v-270.966h-67.742v474.191c0 6.302-4.726 12.603-11.028 15.754s-14.178 1.575-18.905-3.151l-67.742-67.742c-6.302-6.302-6.302-17.329 0-23.631l56.714-58.289-28.357-39.385-75.618 75.618c-18.905 18.905-20.48 50.412-1.575 70.892l103.975 116.578h50.412l45.686-92.948c4.726-7.877 14.178-11.028 22.055-7.877 3.151 1.575 6.302 4.726 7.877 7.877l48.837 97.674 203.225 140.209 29.932-40.96-222.129-159.114c-4.726-3.151-7.877-7.877-7.877-14.178v-118.154c0-9.452 7.877-17.329 17.329-17.329h118.154c28.357 0 50.412-22.055 50.412-50.412v-135.483h-67.742v102.4c0 9.452-7.877 17.329-17.329 17.329h-151.237zM686.868-23.040h-305.625v135.483h305.625v-135.483zM990.917 824.517c-66.166 0-118.154 53.563-118.154 118.154 0 9.452-7.877 17.329-17.329 17.329s-17.329-7.877-17.329-17.329c0-66.166-53.563-118.154-118.154-118.154-9.452 0-17.329-7.877-17.329-17.329s7.877-17.329 17.329-17.329c66.166 0 118.154-53.563 118.154-118.154 0-9.452 7.877-17.329 17.329-17.329s17.329 7.877 17.329 17.329c0 66.166 53.563 118.154 118.154 118.154 9.452 0 17.329 7.877 17.329 17.329s-7.877 17.329-17.329 17.329zM855.434 741.022c-14.178 28.357-37.809 50.412-66.166 66.166 28.357 14.178 50.412 37.809 66.166 66.166 14.178-28.357 37.809-50.412 66.166-66.166-28.357-14.178-51.988-37.809-66.166-66.166zM570.289 533.071l-45.686-34.658 20.48-26.782 45.686 34.658-20.48 26.782zM778.24 685.883l-170.142-124.455 20.48-26.782 170.142 124.455-20.48 26.782z" />
<glyph unicode="&#xe901;" glyph-name="client-up" d="M893.243 224.295l-160.689-45.686c-1.575 7.877-3.151 15.754-7.877 22.055-9.452 15.754-23.631 26.782-40.96 31.508l-166.991 42.535c-53.563 14.178-110.277 14.178-165.415 1.575l-4.726-1.575c-37.809-9.452-72.468-25.206-105.551-45.686l-58.289-33.083c-1.575 3.151-6.302 6.302-11.028 7.877s-9.452 0-12.603-1.575l-118.154-67.742c-1.575-1.575-3.151-3.151-4.726-4.726s-1.575-3.151-3.151-6.302c0-1.575 0-4.726 0-6.302s1.575-4.726 1.575-6.302l97.674-166.991 29.932 17.329-88.222 152.812 88.222 50.412 127.606-220.554 29.932 17.329-9.452 14.178c36.234 23.631 80.345 31.508 121.305 22.055l29.932-7.877c37.809-9.452 77.194-9.452 113.428 1.575l354.462 102.4c7.877 3.151 17.329 6.302 23.631 12.603s12.603 12.603 17.329 20.48c4.726 7.877 6.302 15.754 7.877 25.206s0 17.329-1.575 26.782c-4.726 17.329-17.329 31.508-31.508 40.96-15.754 7.877-34.658 9.452-51.988 4.726zM945.231 150.252c-1.575-6.302-4.726-11.028-7.877-15.754-4.726-4.726-9.452-7.877-15.754-9.452l-354.462-102.4c-31.508-9.452-64.591-9.452-96.098-1.575l-29.932 7.877c-50.412 11.028-102.4 1.575-146.511-25.206l-92.948 160.689 58.289 34.658c29.932 18.905 61.44 33.083 94.523 40.96h3.151c48.837 11.028 100.825 11.028 149.662-1.575l166.991-42.535c9.452-1.575 15.754-7.877 20.48-15.754 3.151-4.726 4.726-9.452 4.726-14.178s0-9.452-1.575-14.178c-3.151-7.877-7.877-14.178-15.754-18.905-7.877-3.151-15.754-4.726-23.631-3.151l-181.169 45.686-7.877-33.083 181.169-45.686c15.754-4.726 33.083-1.575 47.262 6.302s26.782 20.48 31.508 36.234l173.292 48.837c4.726 1.575 9.452 1.575 12.603 1.575 4.726 0 9.452-1.575 12.603-4.726 3.151-1.575 7.877-4.726 9.452-7.877 3.151-3.151 4.726-7.877 6.302-11.028 3.151-3.151 3.151-9.452 1.575-15.754zM441.108 748.898h34.658v-34.658h-34.658v34.658zM541.932 748.898h34.658v-34.658h-34.658v34.658zM305.625 342.449h406.449c4.726 0 9.452 1.575 12.603 4.726s4.726 7.877 4.726 12.603v69.317c0 23.631-6.302 45.686-18.905 64.591s-29.932 34.658-51.988 44.111l-81.92 36.234v25.206c15.754 9.452 29.932 20.48 40.96 34.658s18.905 31.508 23.631 48.837c1.575 0 3.151 0 4.726 0 12.603 0 25.206 4.726 34.658 14.178s15.754 20.48 15.754 33.083-3.151 25.206-11.028 36.234c-7.877 9.452-20.48 15.754-33.083 17.329l22.055 22.055c1.575 1.575 3.151 6.302 3.151 11.028v50.412c0 22.055-9.452 44.111-25.206 59.865s-37.809 25.206-59.865 25.206h-270.966c-3.151 0-6.302 0-7.877-1.575-3.151-1.575-4.726-3.151-6.302-6.302s-3.151-4.726-3.151-7.877c0-3.151 0-6.302 1.575-7.877l29.932-59.865-12.603-26.782c-1.575-3.151-1.575-6.302-1.575-11.028 0-3.151 1.575-6.302 4.726-9.452l39.385-39.385c-12.603-1.575-25.206-7.877-33.083-17.329s-12.603-22.055-11.028-36.234c1.575-12.603 6.302-25.206 15.754-33.083 9.452-9.452 22.055-14.178 34.658-14.178 1.575 0 3.151 0 4.726 0 6.302-23.631 18.905-45.686 34.658-63.015 7.877-7.877 17.329-15.754 28.357-20.48v-23.631l-81.92-36.234c-20.48-9.452-39.385-25.206-51.988-44.111s-18.905-40.96-18.905-64.591v-69.317c0-4.726 1.575-9.452 4.726-12.603 4.726-3.151 9.452-4.726 14.178-4.726zM508.849 578.757c11.028 0 22.055 1.575 34.658 4.726v-11.028l-20.48-11.028h-25.206l-20.48 11.028v11.028c7.877-3.151 18.905-4.726 31.508-4.726zM494.671 514.166l6.302 14.178h12.603l6.302-14.178-12.603-12.603-12.603 12.603zM497.822 463.754c3.151-3.151 6.302-3.151 9.452-3.151s7.877 1.575 9.452 3.151l18.905-88.222h-59.865l22.055 88.222zM694.745 429.095v-51.988h-121.305l-25.206 116.578 40.96-14.178c1.575 0 3.151-1.575 4.726-1.575 3.151 0 7.877 1.575 11.028 3.151s4.726 6.302 6.302 9.452l6.302 28.357 28.357-12.603c14.178-6.302 28.357-17.329 36.234-31.508s12.603-29.932 12.603-45.686zM584.468 533.071l-4.726-15.754-26.782 9.452-6.302 12.603 11.028 6.302 26.782-12.603zM660.086 731.569c0-4.726-1.575-9.452-4.726-12.603s-7.877-4.726-12.603-4.726v34.658c4.726 0 9.452-1.575 12.603-4.726s4.726-7.877 4.726-12.603zM371.791 874.929l-22.055 42.535h244.185c14.178 0 26.782-4.726 36.234-14.178s14.178-22.055 14.178-36.234v-44.111l-23.631-23.631h-3.151c-3.151 0-6.302 1.575-9.452 3.151s-4.726 4.726-6.302 7.877l-9.452 28.357c-1.575 3.151-1.575 4.726-4.726 6.302-1.575 1.575-4.726 3.151-6.302 4.726-1.575 0-3.151 0-4.726 0-3.151 0-7.877-1.575-9.452-3.151l-31.508-23.631c-20.48-15.754-45.686-23.631-70.892-23.631h-66.166l-37.809 37.809 11.028 23.631c1.575 1.575 1.575 4.726 1.575 7.877s-1.575 4.726-1.575 6.302zM356.037 731.569c0 4.726 1.575 9.452 4.726 12.603s7.877 4.726 12.603 4.726v-34.658c-4.726 0-9.452 1.575-12.603 4.726-3.151 4.726-4.726 7.877-4.726 12.603zM406.449 704.788c0 3.151 0 6.302 0 9.452v50.412h56.714c33.083 0 64.591 11.028 91.372 29.932l12.603 11.028 1.575-4.726c3.151-9.452 7.877-17.329 15.754-23.631s15.754-9.452 25.206-11.028v-51.988c0-3.151 0-6.302 0-11.028-1.575-15.754-7.877-31.508-15.754-45.686-9.452-14.178-20.48-25.206-34.658-33.083s-29.932-12.603-45.686-12.603c-15.754 0-33.083 3.151-47.262 9.452-11.028 4.726-20.48 11.028-28.357 20.48-18.905 17.329-28.357 39.385-31.508 63.015zM456.862 544.098l11.028-6.302-6.302-12.603-26.782-9.452-4.726 15.754 26.782 12.603zM321.378 429.095c0 15.754 4.726 33.083 14.178 45.686s22.055 25.206 36.234 31.508l28.357 12.603 6.302-28.357c1.575-3.151 3.151-6.302 6.302-9.452 3.151-1.575 6.302-3.151 11.028-3.151 1.575 0 3.151 0 4.726 1.575l40.96 14.178-25.206-116.578h-121.305v51.988zM1011.397 726.843l-118.154 118.154c-3.151 3.151-7.877 4.726-12.603 4.726s-9.452-1.575-12.603-4.726l-118.154-118.154c-3.151-3.151-4.726-4.726-4.726-9.452 0-3.151 0-6.302 1.575-9.452s3.151-6.302 6.302-7.877c3.151-1.575 6.302-3.151 9.452-3.151h50.412v-237.883h34.658v255.212c0 4.726-1.575 9.452-4.726 12.603s-7.877 4.726-12.603 4.726h-26.782l77.194 77.194 77.194-77.194h-26.782c-4.726 0-9.452-1.575-12.603-4.726s-4.726-7.877-4.726-12.603v-305.625h34.658v289.871h50.412c3.151 0 6.302 1.575 9.452 3.151s4.726 4.726 6.302 7.877c1.575 3.151 1.575 6.302 1.575 9.452s-1.575 6.302-4.726 7.877zM67.742 460.603h34.658v253.637c0 4.726-1.575 9.452-4.726 12.603-4.726 3.151-7.877 4.726-12.603 4.726h-26.782l77.194 77.194 77.194-77.194h-26.782c-4.726 0-9.452-1.575-12.603-4.726s-4.726-7.877-4.726-12.603v-305.625h34.658v289.871h50.412c3.151 0 6.302 1.575 9.452 3.151s4.726 4.726 6.302 7.877 1.575 6.302 1.575 9.452c0 3.151-1.575 6.302-4.726 9.452l-118.154 116.578c-3.151 3.151-7.877 4.726-12.603 4.726s-9.452-1.575-12.603-4.726l-118.154-118.154c-3.151-3.151-4.726-4.726-4.726-9.452 0-3.151 0-6.302 1.575-9.452s3.151-6.302 6.302-7.877 6.302-3.151 9.452-3.151h50.412v-236.308zM170.142 375.532h34.658v-34.658h-34.658v34.658zM170.142 307.791h34.658v-33.083h-34.658v33.083zM67.742 427.52h34.658v-34.658h-34.658v34.658zM812.898 427.52h34.658v-34.658h-34.658v34.658zM915.298 375.532h34.658v-34.658h-34.658v34.658zM915.298 307.791h34.658v-33.083h-34.658v33.083z" />
<glyph unicode="&#xe902;" glyph-name="card" d="M996.8 608l-324.8 324.8c-17.6 17.6-40 27.2-65.6 27.2s-48-9.6-65.6-27.2l-513.6-513.6c-17.6-17.6-27.2-41.6-27.2-65.6 0-25.6 9.6-48 27.2-65.6l40-40c0 0 0 0 0 0s0 0 0 0l268.8-268.8h-36.8c-11.2 0-20.8-9.6-20.8-20.8s9.6-20.8 20.8-20.8h118.4c0 0 0 0 0 0s0 0 0 0h308.8c11.2 0 20.8 9.6 20.8 20.8s-9.6 20.8-20.8 20.8h-227.2l499.2 499.2c35.2 35.2 35.2 94.4-1.6 129.6zM966.4 507.2l-513.6-513.6c-9.6-9.6-22.4-14.4-35.2-14.4v0c-12.8 0-25.6 4.8-35.2 14.4l-270.4 268.8 492.8 492.8c8 8 8 22.4 0 30.4s-22.4 8-30.4 0l-492.8-492.8-25.6 25.6c-9.6 9.6-14.4 22.4-14.4 35.2s4.8 25.6 14.4 35.2l515.2 513.6c9.6 9.6 22.4 14.4 35.2 14.4s25.6-4.8 35.2-14.4l115.2-115.2-492.8-492.8c-8-8-8-22.4 0-30.4 4.8-4.8 9.6-6.4 14.4-6.4s11.2 1.6 14.4 6.4l492.8 492.8 179.2-179.2c20.8-19.2 20.8-51.2 1.6-70.4zM524.8 344c-8 8-22.4 8-30.4 0l-166.4-168c-8-8-8-22.4 0-30.4 4.8-4.8 9.6-6.4 14.4-6.4s11.2 1.6 14.4 6.4l168 168c9.6 8 9.6 22.4 0 30.4zM456 184l-68.8-68.8c-8-8-8-22.4 0-30.4 4.8-4.8 9.6-6.4 14.4-6.4s11.2 1.6 14.4 6.4l68.8 68.8c8 8 8 22.4 0 30.4-6.4 9.6-19.2 9.6-28.8 0zM520 248l-9.6-9.6c-8-8-8-22.4 0-30.4 4.8-4.8 9.6-6.4 14.4-6.4s11.2 1.6 14.4 6.4l9.6 9.6c8 8 8 22.4 0 30.4-6.4 8-20.8 8-28.8 0zM814.4 632c-4.8 4.8-9.6 6.4-14.4 6.4-6.4 0-11.2-1.6-14.4-6.4l-91.2-91.2c-4.8-4.8-6.4-9.6-6.4-14.4 0-6.4 1.6-11.2 6.4-14.4l60.8-60.8c4.8-4.8 9.6-6.4 14.4-6.4s11.2 1.6 14.4 6.4l91.2 91.2c8 8 8 22.4 0 30.4l-60.8 59.2zM769.6 496l-30.4 30.4 60.8 60.8 30.4-30.4-60.8-60.8zM640 800c4.8 0 11.2 1.6 14.4 6.4l9.6 9.6c8 8 8 22.4 0 30.4s-22.4 8-30.4 0l-9.6-9.6c-8-8-8-22.4 0-30.4 6.4-4.8 11.2-6.4 16-6.4zM214.4 243.2l-9.6-9.6c-8-8-8-22.4 0-30.4 4.8-4.8 9.6-6.4 14.4-6.4s11.2 1.6 14.4 6.4l9.6 9.6c8 8 8 22.4 0 30.4-6.4 9.6-20.8 9.6-28.8 0z" />
<glyph unicode="&#xe903;" glyph-name="cross-partner" d="M828.8 764.8c-64 64-144 107.2-233.6 123.2-4.8 40-41.6 72-83.2 72-43.2 0-78.4-32-83.2-72-88-16-168-59.2-233.6-123.2-64-64-107.2-144-123.2-233.6-40-4.8-72-40-72-83.2s32-78.4 72-83.2c12.8-64 38.4-124.8 76.8-177.6 6.4-9.6 19.2-11.2 28.8-4.8s11.2 19.2 4.8 28.8c-35.2 46.4-59.2 100.8-70.4 156.8 3.2 1.6 4.8 1.6 6.4 3.2 25.6 11.2 43.2 35.2 48 64 1.6 8 1.6 16 0 25.6-4.8 32-25.6 57.6-56 68.8 33.6 158.4 161.6 286.4 321.6 318.4 9.6-28.8 36.8-51.2 68.8-56 8-1.6 16-1.6 25.6 0 24 3.2 44.8 17.6 57.6 38.4 3.2 4.8 4.8 11.2 8 17.6 160-32 288-160 320-320 0 0 0 0 0 0-1.6 0-1.6 0-3.2-1.6 0 0 0 0 0 0-27.2-11.2-48-36.8-52.8-67.2-1.6-8-1.6-16 0-25.6 3.2-24 17.6-44.8 38.4-57.6 4.8-3.2 11.2-6.4 17.6-8-32-160-160-288-320-320-1.6 6.4-4.8 12.8-8 17.6-12.8 19.2-33.6 33.6-57.6 38.4-8 1.6-16 1.6-25.6 0-32-4.8-57.6-25.6-68.8-56 0 0 0 0 0 0-49.6 9.6-96 28.8-139.2 56-9.6 6.4-22.4 3.2-27.2-6.4-6.4-9.6-3.2-22.4 6.4-27.2 48-30.4 100.8-51.2 156.8-62.4 4.8-40 40-72 83.2-72s78.4 32 83.2 72c88 16 168 59.2 233.6 123.2 64 64 107.2 144 123.2 233.6 40 4.8 72 40 72 83.2s-32 78.4-72 83.2c-17.6 89.6-59.2 169.6-123.2 233.6s64-64 0 0c-64 64 64-64 0 0s64-64 0 0c-64 64 64-64 0 0s64-64 0 0zM40 448c0 24 19.2 44.8 44.8 44.8 4.8 0 11.2-1.6 16-3.2 16-6.4 27.2-20.8 28.8-36.8 0-4.8 0-8 0-12.8-1.6-11.2-8-20.8-17.6-27.2-8-6.4-17.6-8-25.6-8-25.6-1.6-46.4 19.2-46.4 43.2zM556.8 872c0-8-3.2-16-8-22.4-6.4-8-16-14.4-27.2-17.6-4.8 0-8-1.6-12.8 0-17.6 1.6-30.4 12.8-36.8 28.8-1.6 4.8-3.2 9.6-3.2 16 0 24 19.2 44.8 44.8 44.8 24 0 44.8-19.2 44.8-44.8-1.6-3.2-1.6-4.8-1.6-4.8s0 0 0 0 0 0 0 0c-1.6-1.6 0 1.6 0 0-1.6-8 0 1.6 0 0zM512-24c-24 0-44.8 19.2-44.8 44.8 0 4.8 1.6 11.2 3.2 16 6.4 16 20.8 27.2 36.8 28.8 4.8 0 8 0 12.8 0 9.6-1.6 17.6-6.4 24-14.4s11.2-19.2 11.2-28.8c1.6-25.6-19.2-46.4-43.2-46.4zM939.2 403.2c-9.6 0-19.2 3.2-25.6 8-8 6.4-14.4 16-17.6 27.2 0 4.8-1.6 8 0 12.8 1.6 17.6 12.8 30.4 28.8 36.8 4.8 1.6 9.6 3.2 16 3.2 24 0 44.8-19.2 44.8-44.8-1.6-22.4-22.4-43.2-46.4-43.2zM481.6 161.6c8 0 17.6 0 25.6 0 1.6 0 3.2 0 4.8 0 9.6 0 20.8 0 30.4 0 1.6 0 3.2 0 3.2 0 76.8 3.2 152 16 216 38.4 8 3.2 14.4 11.2 12.8 19.2-1.6 60.8-27.2 113.6-70.4 152-25.6 22.4-59.2 40-96 51.2 35.2 27.2 56 67.2 56 107.2v51.2c0 0 0 0 0 0 0 52.8-14.4 96-44.8 128-28.8 28.8-68.8 44.8-112 44.8-73.6 0-153.6-49.6-153.6-140.8v-81.6c0-38.4 17.6-73.6 49.6-100.8 3.2-1.6 4.8-4.8 8-6.4-36.8-11.2-68.8-28.8-94.4-51.2-44.8-38.4-68.8-91.2-70.4-152 0-9.6 4.8-17.6 12.8-19.2 67.2-24 142.4-38.4 222.4-40-1.6 0-1.6 0 0 0zM512 200c0 0 0 0 0 0v0c0 0 0 0 0 0s0 0 0 0 0 0 0 0c-6.4 0-11.2 0-17.6 0l-8 19.2 14.4 92.8h24l14.4-92.8-8-19.2c-8 0-12.8 0-19.2 0 0 0 0 0 0 0zM496 388.8c4.8 0 11.2-1.6 16-1.6 0 0 0 0 1.6 0 4.8 0 11.2 0 17.6 1.6l-4.8-36.8h-24l-6.4 36.8zM736 233.6c-11.2-3.2-24-6.4-36.8-9.6v35.2c0 11.2-9.6 20.8-20.8 20.8s-20.8-9.6-20.8-20.8v-44.8c-27.2-4.8-56-9.6-84.8-11.2l3.2 6.4c1.6 3.2 1.6 6.4 1.6 11.2l-16 112 8 59.2c78.4-16 155.2-64 166.4-158.4zM396.8 612.8c0 67.2 57.6 100.8 113.6 100.8 32 0 62.4-11.2 83.2-33.6 19.2-19.2 30.4-46.4 33.6-78.4h-86.4c-41.6 0-73.6 11.2-99.2 38.4-3.2 3.2-9.6 6.4-14.4 6.4-3.2 0-4.8 0-8-1.6-8-3.2-12.8-11.2-12.8-19.2s-1.6-14.4-4.8-17.6c-1.6-1.6-3.2-1.6-3.2-3.2l-1.6 8zM448 209.6l3.2-8c-30.4 1.6-60.8 6.4-89.6 11.2v43.2c0 11.2-9.6 20.8-20.8 20.8s-20.8-9.6-20.8-20.8v-32c-11.2 3.2-20.8 6.4-32 9.6 11.2 94.4 88 144 164.8 158.4l8-59.2-16-112c0-3.2 1.6-8 3.2-11.2zM478.4 433.6c0 0 0 0 0 0-1.6 0-1.6 0-1.6 0s0 0 0 0 0 0-1.6 0c-44.8 14.4-78.4 54.4-78.4 96v32c11.2 1.6 22.4 6.4 32 16 3.2 3.2 6.4 6.4 8 11.2 28.8-19.2 62.4-28.8 102.4-28.8h86.4v-30.4c0-30.4-17.6-60.8-48-81.6-20.8-12.8-43.2-20.8-65.6-20.8 0 0 0 0 0 0-11.2 1.6-22.4 3.2-33.6 6.4 0 0 0 0 0 0zM233.6 150.4c-8 8-20.8 8-28.8 0s-8-20.8 0-28.8v0c3.2-3.2 9.6-6.4 14.4-6.4s9.6 1.6 14.4 6.4c8 8 8 20.8 0 28.8v0z" />
<glyph unicode="&#xe904;" glyph-name="platforma" d="M512 713.6c-147.2 0-265.6-120-265.6-265.6s118.4-265.6 265.6-265.6 265.6 118.4 265.6 265.6-118.4 265.6-265.6 265.6zM652.8 270.4c-38.4-30.4-86.4-48-140.8-48s-100.8 17.6-140.8 48v33.6c0 24 17.6 44.8 40 49.6l30.4 4.8c17.6-17.6 43.2-28.8 68.8-28.8 27.2 0 51.2 11.2 68.8 28.8l30.4-4.8c24-4.8 40-25.6 40-49.6v-33.6zM452.8 430.4v32c0 33.6 27.2 60.8 60.8 60.8s60.8-27.2 60.8-60.8v-32c0-33.6-27.2-60.8-60.8-60.8s-60.8 27.2-60.8 60.8zM691.2 310.4c-3.2 40-33.6 73.6-73.6 81.6l-12.8 3.2c4.8 11.2 6.4 22.4 6.4 35.2v32c0 54.4-44.8 100.8-100.8 100.8-54.4 0-100.8-44.8-100.8-100.8v-32c0-12.8 1.6-24 6.4-35.2l-12.8-3.2c-40-8-70.4-41.6-73.6-81.6-28.8 38.4-46.4 84.8-46.4 137.6 0 124.8 100.8 225.6 225.6 225.6s228.8-100.8 228.8-225.6c0-51.2-17.6-99.2-46.4-137.6zM811.2 57.6c-6.4 9.6-19.2 11.2-27.2 4.8-80-56-174.4-86.4-272-86.4-54.4 0-107.2 9.6-158.4 27.2-11.2 3.2-22.4-1.6-25.6-12.8s1.6-22.4 12.8-25.6c54.4-19.2 112-28.8 171.2-28.8 107.2 0 208 32 296 94.4 8 6.4 9.6 17.6 3.2 27.2zM704 923.2c-60.8 24-126.4 36.8-192 36.8-108.8 0-212.8-33.6-300.8-97.6-9.6-6.4-11.2-19.2-4.8-27.2 3.2-4.8 9.6-8 16-8 4.8 0 8 1.6 11.2 3.2 81.6 57.6 177.6 89.6 278.4 89.6 60.8 0 120-11.2 176-33.6 9.6-4.8 22.4 1.6 25.6 11.2 4.8 9.6 0 20.8-9.6 25.6zM923.2 753.6c8 12.8 12.8 27.2 12.8 43.2 0 20.8-8 40-22.4 54.4-14.4 12.8-33.6 20.8-54.4 20.8s-40-8-54.4-22.4c-12.8-14.4-20.8-33.6-20.8-54.4s8-40 22.4-54.4c14.4-14.4 33.6-22.4 54.4-22.4 11.2 0 22.4 3.2 32 8 59.2-81.6 91.2-177.6 91.2-280 0-60.8-11.2-121.6-35.2-177.6-4.8-9.6 0-22.4 11.2-25.6 3.2-1.6 4.8-1.6 8-1.6 8 0 16 4.8 19.2 12.8 25.6 60.8 36.8 126.4 36.8 192 0 113.6-35.2 217.6-100.8 307.2zM884.8 771.2c-6.4-6.4-16-11.2-25.6-11.2s-19.2 3.2-25.6 11.2c-6.4 6.4-11.2 16-11.2 25.6s3.2 19.2 11.2 25.6c6.4 6.4 16 11.2 25.6 11.2s19.2-3.2 25.6-11.2c6.4-6.4 11.2-16 11.2-25.6 0-11.2-3.2-19.2-11.2-25.6zM512 161.6c-32 0-59.2-20.8-70.4-48-99.2 20.8-185.6 86.4-233.6 177.6-4.8 9.6-17.6 14.4-27.2 8-9.6-4.8-14.4-17.6-8-27.2 52.8-104 152-177.6 264-200 6.4-36.8 36.8-64 75.2-64 41.6 0 76.8 33.6 76.8 76.8s-35.2 76.8-76.8 76.8zM512 49.6c-19.2 0-36.8 16-36.8 36.8 0 19.2 16 36.8 36.8 36.8s36.8-16 36.8-36.8c0-20.8-17.6-36.8-36.8-36.8zM206.4 142.4c-17.6 17.6-43.2 22.4-65.6 12.8-65.6 84.8-100.8 185.6-100.8 292.8 0 49.6 8 99.2 24 147.2 3.2 11.2-1.6 22.4-12.8 25.6s-22.4-1.6-25.6-12.8c-17.6-52.8-25.6-105.6-25.6-160 0-116.8 38.4-227.2 110.4-318.4 0 0 0 0 0 0-12.8-22.4-9.6-52.8 9.6-72 11.2-11.2 27.2-17.6 43.2-17.6s30.4 6.4 43.2 17.6c24 24 24 60.8 0 84.8zM177.6 86.4c-3.2-3.2-9.6-6.4-14.4-6.4s-9.6 1.6-14.4 6.4c-3.2 3.2-4.8 8-4.8 14.4 0 4.8 1.6 9.6 6.4 14.4 3.2 3.2 9.6 6.4 14.4 6.4s9.6-1.6 14.4-6.4 6.4-8 6.4-14.4c-1.6-6.4-3.2-11.2-8-14.4zM872 411.2c-11.2 1.6-20.8-6.4-22.4-16-16-104-81.6-196.8-174.4-248-9.6-4.8-12.8-17.6-8-27.2 3.2-6.4 11.2-11.2 17.6-11.2 3.2 0 6.4 0 9.6 3.2 51.2 27.2 96 67.2 129.6 115.2s57.6 104 65.6 163.2c1.6 9.6-6.4 19.2-17.6 20.8zM355.2 774.4c-4.8 9.6-17.6 12.8-27.2 8-51.2-27.2-94.4-67.2-128-113.6-33.6-48-56-104-65.6-161.6-1.6-11.2 6.4-20.8 16-22.4 1.6 0 1.6 0 3.2 0 9.6 0 17.6 6.4 19.2 17.6 16 104 81.6 196.8 174.4 248 9.6 3.2 14.4 14.4 8 24zM841.6 641.6c-59.2 99.2-156.8 166.4-270.4 184 0 0 0 0-1.6 0-6.4 25.6-30.4 44.8-57.6 44.8-33.6 0-60.8-27.2-60.8-60.8s27.2-60.8 60.8-60.8c24 0 46.4 14.4 54.4 35.2 100.8-16 188.8-76.8 240-164.8 3.2-6.4 11.2-9.6 17.6-9.6 3.2 0 6.4 1.6 9.6 3.2 11.2 6.4 14.4 19.2 8 28.8zM512 790.4c-11.2 0-20.8 9.6-20.8 20.8s9.6 20.8 20.8 20.8c11.2 0 20.8-9.6 20.8-20.8 0-12.8-9.6-20.8-20.8-20.8zM177.6 809.6c-3.2 4.8-8 6.4-12.8 6.4-6.4 0-11.2-1.6-14.4-6.4-4.8-3.2-6.4-8-6.4-14.4 0-4.8 1.6-11.2 6.4-14.4 3.2-3.2 9.6-6.4 14.4-6.4s11.2 1.6 14.4 6.4c3.2 3.2 6.4 9.6 6.4 14.4-1.6 6.4-3.2 11.2-8 14.4zM873.6 113.6c-3.2 3.2-9.6 6.4-14.4 6.4s-11.2-1.6-14.4-6.4c-3.2-3.2-6.4-9.6-6.4-14.4s1.6-11.2 6.4-14.4c3.2-3.2 9.6-6.4 14.4-6.4s11.2 1.6 14.4 6.4c3.2 3.2 6.4 9.6 6.4 14.4 0 6.4-1.6 11.2-6.4 14.4z" />
<glyph unicode="&#xe905;" glyph-name="analitica" d="M1024 510.4c-12.8 113.6-65.6 220.8-147.2 302.4s-188.8 134.4-302.4 147.2c-6.4 0-11.2-1.6-16-4.8s-6.4-9.6-6.4-14.4v-174.4c0-11.2 9.6-20.8 20.8-20.8s20.8 9.6 20.8 20.8v150.4c198.4-33.6 353.6-188.8 387.2-388.8h-388.8v99.2c0 11.2-9.6 20.8-20.8 20.8s-20.8-9.6-20.8-20.8v-120c0-11.2 9.6-20.8 20.8-20.8h432c6.4 0 11.2 3.2 14.4 6.4 4.8 6.4 6.4 11.2 6.4 17.6zM572.8 718.4c-11.2 0-20.8-9.6-20.8-20.8v0c0-11.2 9.6-20.8 20.8-20.8s20.8 9.6 20.8 20.8v0c-1.6 11.2-11.2 20.8-20.8 20.8zM470.4 75.2c-80 1.6-156.8 28.8-220.8 80-8 6.4-20.8 4.8-28.8-3.2-6.4-8-4.8-20.8 3.2-28.8 70.4-56 155.2-86.4 244.8-88 0 0 0 0 0 0 11.2 0 19.2 8 19.2 19.2 3.2 11.2-6.4 19.2-17.6 20.8zM547.2 59.2c-1.6 11.2-11.2 19.2-22.4 17.6v0c-11.2-1.6-19.2-11.2-17.6-22.4 1.6-9.6 9.6-17.6 19.2-17.6 0 0 1.6 0 1.6 0v0c12.8 1.6 20.8 11.2 19.2 22.4zM948.8 440c-1.6 0-1.6 0 0 0h-444.8v443.2c0 11.2-9.6 20.8-20.8 20.8-129.6 0-251.2-49.6-342.4-142.4-91.2-91.2-140.8-212.8-140.8-342.4s49.6-251.2 142.4-342.4c91.2-91.2 212.8-142.4 342.4-142.4s251.2 49.6 342.4 142.4c91.2 91.2 142.4 212.8 142.4 342.4-1.6 11.2-11.2 20.8-20.8 20.8zM484.8-24c-244.8 0-444.8 198.4-444.8 444.8 0 236.8 188.8 432 424 443.2v-443.2c0-6.4 3.2-12.8 8-16 0 0 0 0 0 0l360-260.8c-81.6-102.4-208-168-347.2-168zM854.4 176l-308.8 224h382.4c-4.8-83.2-30.4-158.4-73.6-224z" />
<glyph unicode="&#xe906;" glyph-name="ca" d="M617.6 643.2c-9.6 6.4-20.8 4.8-27.2-4.8v0c-6.4-9.6-4.8-20.8 4.8-27.2 3.2-3.2 8-3.2 11.2-3.2 6.4 0 12.8 3.2 16 8v0c6.4 8 4.8 20.8-4.8 27.2zM572.8 585.6c-6.4 8-19.2 9.6-28.8 3.2-27.2-22.4-59.2-38.4-94.4-48-11.2-3.2-17.6-14.4-14.4-24 1.6-9.6 11.2-14.4 19.2-14.4 1.6 0 3.2 0 4.8 0 40 11.2 76.8 28.8 108.8 56 11.2 6.4 11.2 19.2 4.8 27.2zM964.8 507.2c-33.6 0-60.8-27.2-60.8-59.2v-9.6c0-83.2-60.8-153.6-140.8-168 11.2 16 16 33.6 16 54.4v14.4c0 52.8-43.2 96-96 96s-96-43.2-96-96v-14.4c0-19.2 6.4-38.4 16-52.8-76.8 16-134.4 84.8-134.4 166.4v9.6c0 33.6-27.2 59.2-60.8 59.2s-60.8-27.2-60.8-59.2v-9.6c0-40 8-80 24-116.8h-134.4v200c0 9.6-6.4 16-14.4 19.2-107.2 30.4-180.8 129.6-180.8 240v9.6c0 11.2 9.6 20.8 20.8 20.8s17.6-8 17.6-19.2v-9.6c0-115.2 94.4-209.6 209.6-209.6h96c115.2 0 209.6 94.4 209.6 209.6v9.6c0 11.2 9.6 20.8 20.8 20.8s20.8-9.6 20.8-20.8v-9.6c0-30.4-4.8-60.8-16-89.6-3.2-9.6 1.6-22.4 11.2-25.6s22.4 1.6 25.6 11.2c12.8 33.6 19.2 67.2 19.2 104v9.6c0 33.6-27.2 60.8-60.8 60.8s-60.8-27.2-60.8-60.8v-9.6c0-83.2-60.8-153.6-140.8-168 11.2 16 16 33.6 16 54.4v14.4c0 52.8-43.2 96-96 96s-96-43.2-96-96v-14.4c0-19.2 6.4-36.8 16-52.8-76.8 16-134.4 84.8-134.4 166.4v9.6c0 33.6-27.2 60.8-60.8 60.8s-59.2-27.2-59.2-60.8v-9.6c0-64 20.8-124.8 59.2-176 35.2-44.8 83.2-80 136-97.6v-206.4c0-11.2 9.6-20.8 20.8-20.8h3.2v-324.8c0-11.2 9.6-20.8 20.8-20.8s20.8 9.6 20.8 20.8v324.8h134.4c4.8-6.4 9.6-12.8 14.4-19.2 1.6-1.6 3.2-3.2 4.8-4.8v-299.2c0-11.2 9.6-20.8 20.8-20.8s20.8 9.6 20.8 20.8v256c27.2-22.4 59.2-40 92.8-52.8v-206.4c0-11.2 9.6-20.8 20.8-20.8s20.8 9.6 20.8 20.8v222.4c0 9.6-6.4 16-14.4 19.2-107.2 30.4-180.8 129.6-180.8 240v9.6c0 11.2 9.6 19.2 20.8 19.2s20.8-9.6 20.8-19.2v-9.6c0-115.2 94.4-209.6 209.6-209.6h96c115.2 0 209.6 94.4 209.6 209.6v9.6c0 11.2 9.6 19.2 20.8 19.2s20.8-9.6 20.8-19.2v-9.6c0-113.6-76.8-212.8-185.6-241.6-17.6-1.6-24-9.6-24-19.2v-144c0-11.2 9.6-20.8 20.8-20.8s20.8 9.6 20.8 20.8v129.6c116.8 38.4 198.4 148.8 198.4 275.2v9.6c0 33.6-27.2 60.8-59.2 60.8zM278.4 681.6c0 30.4 25.6 56 56 56s56-25.6 56-56v-14.4c0-30.4-25.6-56-56-56s-56 25.6-56 56v14.4zM739.2 323.2c0-30.4-25.6-56-56-56s-56 25.6-56 56v14.4c0 30.4 25.6 56 56 56s56-25.6 56-56v-14.4zM817.6-30.4c-3.2 3.2-9.6 6.4-14.4 6.4s-11.2-1.6-14.4-6.4c-3.2-3.2-6.4-9.6-6.4-14.4s1.6-11.2 6.4-14.4c3.2-3.2 9.6-6.4 14.4-6.4s11.2 1.6 14.4 6.4c3.2 3.2 6.4 9.6 6.4 14.4s-3.2 11.2-6.4 14.4zM336 211.2c-11.2 0-20.8-9.6-20.8-20.8v-236.8c0-11.2 9.6-20.8 20.8-20.8s20.8 9.6 20.8 20.8v238.4c-1.6 11.2-11.2 19.2-20.8 19.2zM932.8 795.2c-11.2 0-20.8-9.6-20.8-20.8v-25.6c0-11.2 9.6-20.8 20.8-20.8s20.8 9.6 20.8 20.8v25.6c-1.6 12.8-11.2 20.8-20.8 20.8zM932.8 676.8c-11.2 0-20.8-9.6-20.8-20.8v-25.6c0-11.2 9.6-20.8 20.8-20.8s20.8 9.6 20.8 20.8v25.6c-1.6 11.2-11.2 20.8-20.8 20.8zM1004.8 723.2h-25.6c-11.2 0-20.8-9.6-20.8-20.8s9.6-20.8 20.8-20.8h25.6c11.2 0 20.8 9.6 20.8 20.8-1.6 12.8-11.2 20.8-20.8 20.8zM884.8 723.2h-25.6c-11.2 0-20.8-9.6-20.8-20.8s9.6-20.8 20.8-20.8h25.6c11.2 0 20.8 9.6 20.8 20.8 0 12.8-9.6 20.8-20.8 20.8zM440 960c-11.2 0-20.8-9.6-20.8-20.8v-25.6c0-11.2 9.6-20.8 20.8-20.8s20.8 9.6 20.8 20.8v25.6c-1.6 11.2-9.6 20.8-20.8 20.8zM440 841.6c-11.2 0-20.8-9.6-20.8-20.8v-25.6c0-11.2 9.6-20.8 20.8-20.8s20.8 9.6 20.8 20.8v25.6c-1.6 11.2-9.6 20.8-20.8 20.8zM512 888h-25.6c-11.2 0-20.8-9.6-20.8-20.8s9.6-19.2 20.8-19.2h25.6c11.2 0 20.8 9.6 20.8 20.8s-9.6 19.2-20.8 19.2zM392 888h-24c-11.2 0-20.8-9.6-20.8-20.8s9.6-19.2 20.8-19.2h25.6c11.2 0 20.8 9.6 20.8 20.8s-11.2 19.2-22.4 19.2z" />
<glyph unicode="&#xe907;" glyph-name="sales" d="M576 64h-12.8c-11.2 0-20.8-9.6-20.8-20.8s9.6-20.8 20.8-20.8h12.8c11.2 0 20.8 9.6 20.8 20.8 1.6 11.2-8 20.8-20.8 20.8zM486.4 64h-124.8c-11.2 0-20.8-9.6-20.8-20.8s9.6-20.8 20.8-20.8h124.8c11.2 0 20.8 9.6 20.8 20.8 1.6 11.2-8 20.8-20.8 20.8zM819.2 171.2c-11.2 0-20.8-9.6-20.8-20.8s9.6-20.8 20.8-20.8h12.8c11.2 0 20.8 9.6 20.8 20.8s-9.6 20.8-20.8 20.8h-12.8zM176 427.2c-11.2 0-20.8-9.6-20.8-20.8s9.6-22.4 20.8-22.4h12.8c11.2 0 20.8 9.6 20.8 20.8s-9.6 20.8-20.8 20.8h-12.8zM1003.2-20.8h-64v576c0 59.2-48 107.2-107.2 107.2h-64v128c0 92.8-76.8 169.6-171.2 169.6-30.4 0-60.8-8-84.8-22.4-25.6 14.4-54.4 22.4-84.8 22.4-94.4 0-171.2-76.8-171.2-171.2v-128h-64c-59.2 0-107.2-48-107.2-107.2v-576h-64c-11.2 0-20.8-9.6-20.8-20.8s9.6-20.8 20.8-20.8h980.8c11.2 0 20.8 9.6 20.8 20.8s-8 22.4-19.2 22.4zM596.8 916.8c70.4 0 128-57.6 128-128v-128h-128v128c0 46.4-17.6 88-48 118.4 16 6.4 32 9.6 48 9.6zM512 884.8c25.6-24 43.2-57.6 43.2-96v-128h-84.8v128c-1.6 38.4 16 72 41.6 96zM299.2 788.8c0 70.4 57.6 128 128 128 17.6 0 33.6-3.2 48-9.6-30.4-30.4-48-72-48-118.4v-128h-128v128zM256-20.8h-128v148.8h128v-148.8zM256 555.2v-128h-1.6c-11.2 0-20.8-9.6-20.8-20.8s9.6-20.8 20.8-20.8h1.6v-212.8h-128v384c0 35.2 28.8 64 64 64h84.8c-12.8-19.2-20.8-41.6-20.8-65.6zM896-20.8h-596.8v148.8h443.2c11.2 0 20.8 9.6 20.8 20.8s-9.6 20.8-20.8 20.8h-443.2v214.4h596.8v-404.8zM896 427.2h-596.8v128c0 35.2 28.8 64 64 64h64v-107.2c0-11.2 9.6-20.8 20.8-20.8s20.8 9.6 20.8 20.8v107.2h256v-107.2c0-11.2 9.6-20.8 20.8-20.8s20.8 9.6 20.8 20.8v107.2h64c35.2 0 64-28.8 64-64l1.6-128z" />
<glyph unicode="&#xe908;" glyph-name="low-promotion" d="M916.8 574.4v200c0 12.8-6.4 25.6-17.6 33.6s-24 9.6-36.8 4.8l-561.6-208h-203.2c-52.8 0-97.6-44.8-97.6-99.2v-116.8c0-54.4 44.8-97.6 97.6-97.6h52.8l80-220.8c6.4-16 20.8-27.2 38.4-27.2h94.4c12.8 0 25.6 6.4 32 17.6 8 11.2 9.6 24 4.8 36.8l-64 180.8 524.8-193.6c4.8-1.6 9.6-3.2 14.4-3.2 8 0 16 3.2 22.4 6.4 11.2 8 17.6 19.2 17.6 33.6v200c62.4 9.6 108.8 62.4 108.8 126.4s-46.4 116.8-107.2 126.4zM188.8 331.2h-91.2c-32 0-57.6 25.6-57.6 57.6v116.8c0 32 25.6 57.6 57.6 57.6h185.6v-233.6h-54.4v94.4c0 11.2-9.6 20.8-20.8 20.8s-20.8-9.6-20.8-20.8v-92.8zM363.2 83.2h-94.4l-75.2 208h96l73.6-208zM876.8 121.6l-552 203.2v246.4l552 203.2v-217.6c0 0 0 0 0 0v-216c0 0 0 0 0 0v-219.2c0 0 0 0 0 0zM916.8 361.6v172.8c38.4-9.6 67.2-44.8 67.2-86.4s-28.8-76.8-67.2-86.4zM723.2 566.4c-9.6 4.8-22.4 1.6-27.2-8l-128-225.6c-4.8-9.6-1.6-22.4 8-27.2 3.2-1.6 6.4-3.2 9.6-3.2 6.4 0 14.4 3.2 17.6 9.6l128 225.6c4.8 11.2 1.6 22.4-8 28.8zM745.6 424c-36.8 0-67.2-30.4-67.2-67.2s30.4-67.2 67.2-67.2c36.8 0 67.2 30.4 67.2 67.2 1.6 36.8-28.8 67.2-67.2 67.2zM745.6 329.6c-14.4 0-27.2 12.8-27.2 27.2s12.8 27.2 27.2 27.2c14.4 0 27.2-12.8 27.2-27.2 1.6-16-11.2-27.2-27.2-27.2zM580.8 606.4c-36.8 0-67.2-30.4-67.2-67.2s30.4-67.2 67.2-67.2 67.2 30.4 67.2 67.2c0 36.8-30.4 67.2-67.2 67.2zM580.8 512c-14.4 0-27.2 12.8-27.2 27.2s12.8 27.2 27.2 27.2c14.4 0 27.2-12.8 27.2-27.2s-12.8-27.2-27.2-27.2zM224 508.8c-3.2 3.2-9.6 6.4-14.4 6.4s-11.2-1.6-14.4-6.4c-3.2-3.2-6.4-9.6-6.4-14.4s1.6-11.2 6.4-14.4c3.2-3.2 9.6-6.4 14.4-6.4s11.2 1.6 14.4 6.4c3.2 3.2 6.4 9.6 6.4 14.4-1.6 6.4-3.2 11.2-6.4 14.4zM187.2 960c-11.2 0-20.8-9.6-20.8-20.8v-20.8c0-11.2 9.6-20.8 20.8-20.8s20.8 9.6 20.8 20.8v20.8c-1.6 11.2-9.6 20.8-20.8 20.8zM187.2 862.4c-11.2 0-20.8-9.6-20.8-20.8v-20.8c0-11.2 9.6-20.8 20.8-20.8s20.8 9.6 20.8 20.8v22.4c-1.6 11.2-9.6 19.2-20.8 19.2zM246.4 900.8h-20.8c-11.2 0-20.8-9.6-20.8-20.8s9.6-20.8 20.8-20.8h20.8c11.2 0 20.8 9.6 20.8 20.8s-9.6 20.8-20.8 20.8zM148.8 900.8h-20.8c-11.2 0-20.8-9.6-20.8-20.8s9.6-19.2 20.8-19.2h20.8c11.2 0 19.2 9.6 19.2 20.8s-8 19.2-19.2 19.2zM652.8 94.4c-11.2 0-20.8-9.6-20.8-20.8v-20.8c0-11.2 9.6-20.8 20.8-20.8s20.8 9.6 20.8 20.8v20.8c0 11.2-9.6 20.8-20.8 20.8zM652.8-3.2c-11.2 0-20.8-9.6-20.8-20.8v-20.8c0-11.2 9.6-20.8 20.8-20.8s20.8 9.6 20.8 20.8v20.8c0 12.8-9.6 20.8-20.8 20.8zM712 35.2h-20.8c-11.2 0-20.8-9.6-20.8-20.8s9.6-20.8 20.8-20.8h20.8c11.2 0 20.8 9.6 20.8 20.8s-9.6 20.8-20.8 20.8zM616 35.2h-20.8c-11.2 0-20.8-9.6-20.8-20.8s9.6-20.8 20.8-20.8h20.8c11.2 0 20.8 9.6 20.8 20.8-1.6 11.2-9.6 20.8-20.8 20.8z" />
<glyph unicode="&#xe909;" glyph-name="no-risk" d="M294.4 734.4c-9.6 3.2-22.4-1.6-25.6-12.8v-1.6c-3.2-11.2 1.6-22.4 12.8-25.6 1.6-1.6 4.8-1.6 6.4-1.6 8 0 16 4.8 19.2 12.8v1.6c3.2 12.8-1.6 24-12.8 27.2zM1008 460.8c0 132.8-51.2 259.2-145.6 353.6-96 94.4-220.8 145.6-355.2 145.6s-259.2-51.2-353.6-145.6c-94.4-94.4-145.6-220.8-145.6-353.6 0-9.6 0-17.6 0-27.2 0-4.8 3.2-9.6 6.4-12.8 0 0 0 0 0 0l478.4-478.4c3.2-3.2 9.6-6.4 14.4-6.4v0c4.8 0 9.6 1.6 14.4 6.4l478.4 478.4c0 0 0 0 0 0 3.2 3.2 4.8 8 6.4 12.8 1.6 8 1.6 17.6 1.6 27.2zM62.4 428.8c16 6.4 33.6 11.2 52.8 11.2 46.4 0 89.6-24 113.6-64l176-289.6-342.4 342.4zM488 27.2l-219.2 360c25.6 33.6 64 54.4 107.2 54.4 44.8 0 86.4-22.4 110.4-59.2v-355.2zM488 440c-30.4 25.6-70.4 40-112 40-44.8 0-86.4-16-118.4-46.4 1.6 62.4 8 123.2 20.8 180.8 1.6 11.2-4.8 20.8-16 24-11.2 1.6-20.8-4.8-24-16-12.8-56-19.2-116.8-22.4-177.6-27.2 22.4-62.4 35.2-102.4 35.2-22.4 0-44.8-4.8-65.6-12.8 3.2 204.8 140.8 377.6 328 433.6-24-22.4-44.8-51.2-64-84.8-4.8-9.6-1.6-22.4 8-27.2s22.4-1.6 27.2 8c40 70.4 89.6 113.6 142.4 123.2v-480zM528 918.4c56-9.6 110.4-59.2 152-142.4 46.4-91.2 73.6-211.2 76.8-340.8-32 28.8-73.6 46.4-118.4 46.4-41.6 0-80-14.4-110.4-40v476.8zM611.2 88l91.2 148.8c6.4 9.6 3.2 22.4-6.4 27.2-9.6 6.4-22.4 3.2-27.2-6.4l-140.8-230.4v353.6c25.6 36.8 65.6 59.2 110.4 59.2 46.4 0 89.6-24 113.6-64 3.2-6.4 9.6-9.6 17.6-9.6 6.4 0 12.8 3.2 17.6 9.6 24 40 67.2 64 113.6 64 17.6 0 36.8-3.2 52.8-11.2l-342.4-340.8zM900.8 480c-38.4 0-75.2-12.8-104-35.2-4.8 131.2-32 254.4-80 348.8-22.4 44.8-48 80-76.8 107.2 187.2-56 324.8-228.8 328-433.6-20.8 8-43.2 12.8-67.2 12.8zM739.2 326.4c-3.2 3.2-9.6 6.4-14.4 6.4s-11.2-1.6-14.4-6.4c-3.2-3.2-6.4-9.6-6.4-14.4s1.6-11.2 6.4-14.4c3.2-3.2 9.6-6.4 14.4-6.4s11.2 1.6 14.4 6.4c3.2 3.2 6.4 9.6 6.4 14.4s-3.2 11.2-6.4 14.4z" />
<glyph unicode="&#xe90a;" glyph-name="client-bd" d="M998.794 481.083c-15.754 14.178-36.234 23.631-56.714 23.631-23.631 1.575-45.686-7.877-63.015-23.631l-113.428-111.852c-1.575 3.151-4.726 7.877-7.877 11.028-14.178 17.329-34.658 25.206-58.289 25.206h-159.114c-29.932 0-59.865 3.151-86.646 11.028-72.468 20.48-141.785 4.726-200.074-42.535-23.631-18.905-40.96-40.96-51.988-55.138l-28.357 26.782c-3.151 3.151-9.452 6.302-14.178 6.302 0 0 0 0 0 0-4.726 0-11.028-1.575-14.178-6.302l-138.634-144.935c-4.726-3.151-6.302-7.877-6.302-12.603s1.575-11.028 6.302-14.178l234.732-223.705c3.151-3.151 9.452-6.302 14.178-6.302s11.028 1.575 14.178 6.302l137.058 141.785c3.151 3.151 6.302 9.452 6.302 14.178s-1.575 11.028-6.302 14.178l-12.603 11.028 26.782 3.151c17.329 1.575 33.083 3.151 50.412 3.151h242.609c39.385 0 72.468 7.877 99.249 25.206 0 0 0 0 0 0 9.452 6.302 18.905 14.178 25.206 23.631l163.84 192.197c29.932 33.083 28.357 74.043-3.151 102.4zM255.212-7.286l-206.375 195.348 110.277 115.003 204.8-198.498-108.702-111.852zM973.588 405.465l-163.84-192.197c-4.726-6.302-11.028-11.028-17.329-15.754-20.48-12.603-45.686-18.905-77.194-18.905h-242.609c-18.905 0-36.234-1.575-55.138-3.151l-59.865-6.302-126.031 122.88c9.452 12.603 25.206 34.658 48.837 53.563 48.837 39.385 103.975 51.988 163.84 34.658 31.508-7.877 64.591-12.603 97.674-12.603h159.114c28.357 0 36.234-25.206 36.234-39.385 0-11.028-3.151-20.48-9.452-28.357s-15.754-11.028-26.782-11.028h-138.634c-11.028 0-20.48-9.452-20.48-20.48s9.452-20.48 20.48-20.48h138.634c23.631 0 44.111 9.452 58.289 25.206 11.028 14.178 18.905 31.508 18.905 51.988l130.757 129.182c18.905 18.905 47.262 14.178 64.591-1.575 7.877-9.452 18.905-25.206 0-47.262zM497.822 271.557c-3.151 11.028-12.603 17.329-23.631 15.754-11.028-3.151-17.329-12.603-15.754-23.631v-1.575c1.575-9.452 11.028-15.754 18.905-15.754 1.575 0 3.151 0 4.726 0 12.603 3.151 18.905 12.603 15.754 25.206v0zM135.483 526.769h196.923c11.028 0 20.48 3.151 28.357 9.452 7.877-6.302 17.329-9.452 28.357-9.452h196.923c11.028 0 20.48 3.151 28.357 9.452 7.877-6.302 17.329-9.452 28.357-9.452h196.923c26.782 0 48.837 22.055 48.837 48.837v91.372c0 40.96-23.631 77.194-56.714 94.523 17.329 20.48 26.782 45.686 26.782 74.043-1.575 64.591-53.563 116.578-118.154 116.578s-116.578-51.988-116.578-116.578c0-28.357 9.452-53.563 26.782-74.043-14.178-7.877-28.357-18.905-37.809-31.508-9.452 12.603-22.055 23.631-37.809 31.508 17.329 20.48 26.782 45.686 26.782 74.043 1.575 64.591-50.412 116.578-113.428 116.578s-116.578-51.988-116.578-116.578c0-28.357 9.452-53.563 26.782-74.043-14.178-7.877-28.357-18.905-37.809-31.508-9.452 12.603-22.055 23.631-37.809 31.508 17.329 20.48 26.782 45.686 26.782 74.043 0 64.591-51.988 116.578-116.578 116.578s-116.578-51.988-116.578-116.578c0-28.357 9.452-53.563 26.782-74.043-34.658-17.329-56.714-53.563-56.714-94.523v-91.372c0-26.782 22.055-48.837 48.837-48.837zM740.431 911.163c42.535 0 75.618-34.658 75.618-75.618 0-42.535-34.658-75.618-75.618-75.618-42.535 0-75.618 34.658-75.618 75.618 0 42.535 34.658 75.618 75.618 75.618zM688.443 731.569c15.754-7.877 33.083-12.603 51.988-12.603s36.234 4.726 51.988 12.603c31.508-4.726 53.563-33.083 53.563-64.591v-91.372c0-4.726-3.151-7.877-7.877-7.877h-195.348c-4.726 0-7.877 3.151-7.877 7.877v91.372c0 33.083 22.055 59.865 53.563 64.591zM488.369 911.163c42.535 0 75.618-34.658 75.618-75.618 0-42.535-34.658-75.618-75.618-75.618-42.535 0-75.618 34.658-75.618 75.618-1.575 42.535 33.083 75.618 75.618 75.618zM434.806 731.569c15.754-7.877 33.083-12.603 51.988-12.603s36.234 4.726 51.988 12.603c31.508-4.726 53.563-33.083 53.563-64.591v-91.372c0-4.726-3.151-7.877-7.877-7.877h-195.348c-4.726 0-7.877 3.151-7.877 7.877v91.372c0 33.083 23.631 59.865 53.563 64.591zM234.732 911.163c42.535 0 75.618-34.658 75.618-75.618 0-42.535-34.658-75.618-75.618-75.618-42.535 0-75.618 34.658-75.618 75.618 0 42.535 33.083 75.618 75.618 75.618zM127.606 666.978c0 33.083 23.631 59.865 53.563 64.591 15.754-7.877 33.083-12.603 51.988-12.603s36.234 4.726 51.988 12.603c31.508-4.726 53.563-33.083 53.563-64.591v-91.372c0-4.726-3.151-7.877-7.877-7.877h-195.348c-4.726 0-7.877 3.151-7.877 7.877v91.372z" />
<glyph unicode="&#xe90b;" glyph-name="gift-card" d="M924.8 816h-824c-56 0-100.8-44.8-100.8-100.8v-528c0-54.4 44.8-100.8 100.8-100.8h310.4c11.2 0 20.8 9.6 20.8 20.8s-11.2 20.8-22.4 20.8h-308.8c-33.6 0-60.8 27.2-60.8 60.8v243.2h435.2c3.2-16 12.8-30.4 27.2-40 4.8-3.2 9.6-4.8 14.4-6.4l-35.2-60.8c-4.8-6.4-3.2-16 1.6-22.4s12.8-9.6 20.8-6.4l48 12.8 12.8-48c1.6-8 8-14.4 16-14.4 1.6 0 1.6 0 3.2 0 6.4 0 14.4 3.2 17.6 9.6l91.2 158.4 113.6-203.2c3.2-6.4 9.6-9.6 17.6-9.6 1.6 0 1.6 0 3.2 0 8 1.6 14.4 6.4 17.6 14.4l12.8 48 48-12.8c8-1.6 16 0 20.8 6.4s4.8 14.4 1.6 22.4l-59.2 104c1.6 0 3.2 0 4.8 0 11.2 0 22.4 3.2 32 9.6 14.4 9.6 24 24 27.2 40h51.2v-244.8c0-33.6-27.2-60.8-60.8-60.8h-198.4v108.8c0 11.2-9.6 20.8-20.8 20.8s-20.8-9.6-20.8-20.8v-108.8h-104c-11.2 0-20.8-9.6-20.8-20.8s9.6-20.8 20.8-20.8h344c54.4 0 100.8 44.8 100.8 100.8v528c0 56-44.8 100.8-99.2 100.8zM523.2 425.6c-6.4 3.2-9.6 11.2-9.6 17.6v140.8c0 8 3.2 14.4 9.6 17.6s14.4 4.8 20.8 1.6l97.6-46.4c-3.2-6.4-3.2-14.4-3.2-20.8v-43.2c0-8 1.6-14.4 3.2-22.4l-97.6-44.8c-6.4-3.2-14.4-3.2-20.8 0zM590.4 318.4l-4.8 20.8c-1.6 4.8-4.8 9.6-9.6 12.8s-9.6 3.2-14.4 1.6l-20.8-4.8 25.6 44.8 92.8 43.2-68.8-118.4zM560 640c-19.2 9.6-41.6 8-59.2-3.2s-28.8-30.4-28.8-51.2v-112h-432v241.6c0 33.6 27.2 60.8 60.8 60.8h584v-171.2c0-3.2 1.6-6.4 1.6-9.6-6.4-1.6-12.8-3.2-17.6-6.4l-108.8 51.2zM708.8 472h-9.6c-11.2 0-20.8 9.6-20.8 20.8v43.2c0 11.2 9.6 20.8 20.8 20.8h9.6c11.2 0 20.8-9.6 20.8-20.8v-43.2c0-11.2-8-20.8-20.8-20.8zM868.8 300.8l-20.8 6.4c-4.8 1.6-11.2 0-14.4-1.6-4.8-3.2-8-6.4-9.6-12.8l-4.8-19.2-91.2 161.6c4.8 1.6 8 3.2 12.8 4.8l68.8-32 59.2-107.2zM884.8 425.6c-6.4-3.2-14.4-4.8-20.8-1.6l-97.6 46.4c3.2 6.4 4.8 14.4 4.8 22.4v43.2c0 8-1.6 14.4-3.2 20.8l97.6 46.4c6.4 3.2 14.4 3.2 20.8-1.6 6.4-3.2 9.6-11.2 9.6-17.6v-140.8c-1.6-6.4-4.8-12.8-11.2-17.6zM984 472h-49.6v112c0 20.8-11.2 40-28.8 51.2s-40 12.8-59.2 3.2l-107.2-51.2c-4.8 3.2-11.2 6.4-17.6 6.4 1.6 3.2 1.6 6.4 1.6 9.6v172.8h200c33.6 0 60.8-27.2 60.8-60.8v-243.2zM507.2 121.6c-3.2 3.2-9.6 6.4-14.4 6.4s-11.2-1.6-14.4-6.4c-3.2-3.2-6.4-9.6-6.4-14.4s1.6-11.2 6.4-14.4c3.2-3.2 9.6-6.4 14.4-6.4s11.2 1.6 14.4 6.4c3.2 3.2 6.4 9.6 6.4 14.4s-1.6 11.2-6.4 14.4zM422.4 707.2h-294.4c-11.2 0-19.2-8-19.2-19.2s8-20.8 19.2-20.8h294.4c11.2 0 20.8 9.6 20.8 20.8s-9.6 19.2-20.8 19.2zM422.4 256h-294.4c-11.2 0-20.8-9.6-20.8-20.8s9.6-20.8 20.8-20.8h294.4c11.2 0 20.8 9.6 20.8 20.8s-9.6 20.8-20.8 20.8zM252.8 600h-124.8c-11.2 0-20.8-9.6-20.8-20.8s9.6-19.2 20.8-19.2h124.8c11.2 0 20.8 9.6 20.8 20.8s-11.2 19.2-20.8 19.2zM344 593.6c-3.2 3.2-9.6 6.4-14.4 6.4s-11.2-1.6-14.4-6.4c-3.2-3.2-6.4-9.6-6.4-14.4s1.6-11.2 6.4-14.4c3.2-3.2 9.6-6.4 14.4-6.4s11.2 1.6 14.4 6.4c3.2 3.2 6.4 9.6 6.4 14.4s-3.2 11.2-6.4 14.4z" />
<glyph unicode="&#xe90c;" glyph-name="check" d="M1008 958.4c-9.6 3.2-20.8 1.6-27.2-4.8l-80-62.4-80 62.4c-3.2 4.8-9.6 6.4-17.6 6.4-6.4 0-12.8-1.6-17.6-6.4l-80-62.4-80 62.4c-3.2 4.8-9.6 6.4-16 6.4s-12.8-1.6-17.6-6.4l-80-62.4-80 62.4c-4.8 4.8-11.2 6.4-17.6 6.4s-12.8-1.6-17.6-6.4l-80-62.4-80 62.4c-3.2 4.8-9.6 6.4-16 6.4s-12.8-1.6-17.6-6.4l-80-62.4-80 62.4c-6.4 6.4-17.6 8-27.2 4.8s-16-9.6-16-19.2v-393.6c0-11.2 11.2-20.8 25.6-20.8s25.6 9.6 25.6 20.8v345.6l54.4-43.2c4.8-3.2 11.2-6.4 17.6-6.4s12.8 1.6 17.6 6.4l80 62.4 80-62.4c4.8-3.2 11.2-6.4 17.6-6.4s12.8 1.6 17.6 6.4l80 62.4 80-62.4c9.6-8 25.6-8 35.2 0l80 62.4 80-62.4c4.8-3.2 11.2-6.4 17.6-6.4s12.8 1.6 17.6 6.4l80 62.4 80-62.4c4.8-3.2 11.2-6.4 17.6-6.4s12.8 1.6 17.6 6.4l54.4 43.2v-888l-54.4 43.2c-4.8 3.2-11.2 6.4-17.6 6.4s-12.8-1.6-17.6-6.4l-80-62.4-80 62.4c-4.8 3.2-11.2 6.4-17.6 6.4s-12.8-1.6-17.6-6.4l-80-62.4-80 62.4c-9.6 8-25.6 8-35.2 0l-80-62.4-80 62.4c-4.8 3.2-11.2 6.4-17.6 6.4s-12.8-1.6-17.6-6.4l-80-62.4-80 62.4c-4.8 3.2-11.2 6.4-17.6 6.4s-12.8-1.6-17.6-6.4l-54.4-43.2v356.8c0 11.2-11.2 20.8-25.6 20.8s-25.6-9.6-25.6-20.8v-404.8c0-8 6.4-16 16-19.2s20.8-1.6 27.2 4.8l80 62.4 80-62.4c4.8-3.2 11.2-6.4 17.6-6.4s12.8 1.6 17.6 6.4l80 62.4 80-62.4c4.8-3.2 11.2-6.4 17.6-6.4s12.8 1.6 17.6 6.4l80 62.4 80-62.4c4.8-3.2 11.2-6.4 17.6-6.4s12.8 1.6 17.6 6.4l80 62.4 80-62.4c4.8-3.2 11.2-6.4 17.6-6.4s12.8 1.6 17.6 6.4l80 62.4 80-62.4c4.8-3.2 11.2-6.4 17.6-6.4 3.2 0 6.4 0 9.6 1.6 9.6 3.2 16 9.6 16 19.2v984c-3.2 9.6-9.6 16-19.2 19.2zM718.4 232c-4.8 4.8-11.2 8-17.6 8s-12.8-3.2-17.6-8c-4.8-4.8-8-11.2-8-17.6s3.2-12.8 8-17.6c4.8-4.8 11.2-8 17.6-8s12.8 3.2 17.6 8c4.8 4.8 8 11.2 8 17.6-1.6 6.4-3.2 12.8-8 17.6zM584 240h-256c-12.8 0-24-11.2-24-24s11.2-24 24-24h254.4c12.8 0 24 11.2 24 24s-9.6 24-22.4 24zM680 398.4h-352c-12.8 0-24-11.2-24-24s11.2-24 24-24h352c12.8 0 24 11.2 24 24s-11.2 24-24 24zM680 560h-352c-12.8 0-24-11.2-24-24s11.2-24 24-24h352c12.8 0 24 11.2 24 24s-11.2 24-24 24zM680 700.8h-352c-12.8 0-24-11.2-24-24s11.2-24 24-24h352c12.8 0 24 11.2 24 24 0 14.4-11.2 24-24 24zM43.2 491.2c-4.8 4.8-11.2 8-17.6 8s-12.8-3.2-17.6-8c-4.8-4.8-8-11.2-8-17.6s3.2-12.8 8-17.6c4.8-4.8 11.2-8 17.6-8s12.8 3.2 17.6 8c4.8 4.8 8 11.2 8 17.6s-3.2 12.8-8 17.6z" />
<glyph unicode="&#xe90d;" glyph-name="client-pay" d="M169.6 49.6c-3.2 3.2-9.6 6.4-14.4 6.4s-11.2-1.6-14.4-6.4c-3.2-3.2-6.4-9.6-6.4-14.4s1.6-11.2 6.4-14.4c4.8-3.2 9.6-4.8 14.4-4.8s11.2 1.6 14.4 6.4c3.2 3.2 6.4 9.6 6.4 14.4s-1.6 9.6-6.4 12.8zM939.2 593.6c-3.2 3.2-9.6 6.4-14.4 6.4s-11.2-1.6-14.4-6.4c-3.2-3.2-6.4-9.6-6.4-14.4s1.6-11.2 6.4-14.4c3.2-3.2 9.6-6.4 14.4-6.4s11.2 1.6 14.4 6.4c3.2 3.2 6.4 9.6 6.4 14.4 0 6.4-3.2 11.2-6.4 14.4zM1017.6 953.6c-3.2 4.8-8 6.4-14.4 6.4h-491.2c-11.2 0-19.2-9.6-19.2-19.2v-57.6l-190.4-51.2c-11.2-3.2-17.6-14.4-14.4-24l97.6-366.4-84.8-84.8c-11.2 16-28.8 25.6-49.6 25.6h-192c-33.6 0-59.2-27.2-59.2-59.2v-326.4c0-33.6 27.2-60.8 59.2-60.8h192c28.8 0 51.2 19.2 57.6 44.8l24-20.8c17.6-16 41.6-25.6 65.6-25.6h603.2c11.2 0 20.8 9.6 20.8 20.8v984c1.6 6.4 0 11.2-4.8 14.4zM272-4.8c0-11.2-9.6-20.8-20.8-20.8h-192c-11.2 0-19.2 9.6-19.2 20.8v326.4c0 11.2 9.6 19.2 19.2 19.2h75.2v-228.8c0-11.2 9.6-20.8 20.8-20.8s19.2 9.6 19.2 20.8v230.4h75.2c11.2 0 20.8-9.6 20.8-19.2l1.6-328zM332.8 798.4l160 43.2v-73.6l-12.8-3.2c-4.8-1.6-9.6-4.8-12.8-9.6s-3.2-9.6-1.6-14.4c8-28.8-9.6-57.6-38.4-65.6-4.8-1.6-9.6-4.8-12.8-9.6s-3.2-9.6-1.6-14.4l78.4-288h-40l-20.8 81.6c0 3.2-1.6 4.8-3.2 6.4l-94.4 347.2zM491.2 675.2v-168l-36.8 134.4c16 8 28.8 19.2 36.8 33.6zM779.2-24h-379.2c-14.4 0-28.8 4.8-40 14.4l-48 41.6v278.4l88 88 16-62.4c1.6-9.6 9.6-14.4 19.2-14.4h393.6c16 0 28.8-12.8 28.8-28.8s-12.8-28.8-28.8-28.8h-203.2c-11.2 0-20.8-9.6-20.8-20.8s9.6-20.8 20.8-20.8h264c16 0 28.8-12.8 28.8-28.8s-12.8-28.8-28.8-28.8h-264c-11.2 0-20.8-9.6-20.8-20.8s9.6-20.8 20.8-20.8h222.4c16 0 27.2-12.8 27.2-28.8s-12.8-28.8-27.2-28.8h-222.4c-11.2 0-20.8-9.6-20.8-20.8s9.6-20.8 20.8-20.8h153.6c16 0 28.8-12.8 28.8-28.8 0-6.4-12.8-19.2-28.8-19.2zM984-24v0h-142.4c3.2 8 6.4 17.6 6.4 28.8 0 9.6-1.6 19.2-6.4 28.8h6.4c36.8 0 67.2 30.4 67.2 67.2 0 11.2-3.2 20.8-8 30.4 28.8 8 49.6 33.6 49.6 65.6 0 14.4-4.8 28.8-12.8 40v252.8c0 11.2-9.6 20.8-20.8 20.8s-20.8-9.6-20.8-20.8v-227.2c-4.8 1.6-9.6 1.6-14.4 1.6v0c3.2 8 6.4 17.6 6.4 28.8 0 36.8-30.4 67.2-67.2 67.2h-32c33.6 14.4 57.6 48 57.6 88 0 52.8-43.2 96-96 96s-96-43.2-96-96c0-40 24-73.6 57.6-88h-108.8v380.8c35.2 8 64 35.2 72 72h150.4c8-35.2 35.2-64 72-72v-62.4c0-11.2 9.6-20.8 20.8-20.8s20.8 9.6 20.8 20.8v80c0 11.2-9.6 20.8-20.8 20.8-30.4 0-54.4 24-54.4 54.4 0 11.2-9.6 20.8-20.8 20.8h-184c-11.2 0-20.8-9.6-20.8-20.8 0-30.4-24-54.4-54.4-54.4-11.2 0-20.8-9.6-20.8-20.8v-398.4h-38.4v560h451.2v-944zM758.4 392c-30.4 0-56 25.6-56 56s25.6 56 56 56c30.4 0 56-25.6 56-56s-25.6-56-56-56z" />
<glyph unicode="&#xe90e;" glyph-name="close" d="M511.998 960c-282.316 0-511.998-229.682-511.998-511.998s229.682-511.998 511.998-511.998c132.972 0 258.974 50.738 354.802 142.867 8.297 7.974 8.558 21.168 0.58 29.462-7.971 8.294-21.161 8.558-29.462 0.58-88.024-84.627-203.77-131.232-325.917-131.232-259.338-0.003-470.325 210.983-470.325 470.322s210.987 470.322 470.322 470.322 470.322-210.987 470.322-470.322c0-58.493-10.6-115.558-31.504-169.606-4.15-10.735 1.184-22.8 11.919-26.954 10.739-4.143 22.8 1.184 26.954 11.919 22.766 58.864 34.31 120.987 34.31 184.644 0 282.313-229.682 511.995-512.002 511.995zM582.147 403.849c-8.231 8.054-21.422 7.908-29.469-0.313-8.050-8.224-7.908-21.418 0.313-29.469l164.052-160.579c4.057-3.97 9.318-5.946 14.576-5.946 5.408 0 10.812 2.094 14.892 6.262 8.050 8.224 7.908 21.418-0.313 29.469l-164.052 160.576zM434.748 495.784c4.067-4.067 9.402-6.102 14.736-6.102s10.666 2.035 14.736 6.102c8.137 8.137 8.137 21.331 0 29.469l-157.106 157.106c-8.137 8.137-21.335 8.137-29.469 0-8.137-8.137-8.137-21.331 0-29.469l157.103-157.106zM746.355 682.359c-8.137 8.137-21.335 8.137-29.469 0l-439.245-439.245c-8.137-8.137-8.137-21.331 0-29.469 4.067-4.067 9.402-6.102 14.736-6.102s10.666 2.035 14.736 6.102l439.242 439.242c8.137 8.141 8.137 21.331 0 29.472z" />
<glyph unicode="&#xe90f;" glyph-name="mobile-menu" d="M511.998 960c-282.316 0-511.998-229.682-511.998-511.998 0-142.283 59.941-279.319 164.452-375.973 8.45-7.814 21.634-7.297 29.448 1.15 7.814 8.453 7.3 21.634-1.153 29.448-96.009 88.792-151.070 214.675-151.070 345.376 0 259.335 210.987 470.322 470.322 470.322s470.322-210.987 470.322-470.322-210.987-470.322-470.322-470.322c-11.506 0-20.838-9.332-20.838-20.838s9.332-20.838 20.838-20.838c282.32 0 511.998 229.682 511.998 511.998s-229.679 511.998-511.998 511.998zM292.377 646.784h439.245c11.506 0 20.838 9.332 20.838 20.838s-9.332 20.838-20.838 20.838h-439.245c-11.506 0-20.838-9.332-20.838-20.838s9.332-20.838 20.838-20.838zM292.377 427.164h439.245c11.506 0 20.838 9.332 20.838 20.838s-9.332 20.838-20.838 20.838h-439.245c-11.506 0-20.838-9.332-20.838-20.838s9.332-20.838 20.838-20.838zM752.461 228.377c0 11.506-9.332 20.838-20.838 20.838h-439.245c-11.506 0-20.838-9.332-20.838-20.838s9.332-20.838 20.838-20.838h439.245c11.506 0 20.838 9.332 20.838 20.838z" />
<glyph unicode="&#xe910;" glyph-name="e-mail" horiz-adv-x="1161" d="M1160.533 570.88c0 0 0 3.413 0 3.413s0 3.413 0 3.413c0 0 0 3.413-3.413 3.413 0 0 0 3.413-3.413 3.413 0 0 0 0 0 0l-187.733 126.293v129.707c0 27.307-27.307 51.2-58.027 51.2h-208.213l-85.333 58.027c-20.48 13.653-51.2 13.653-71.68 0l-81.92-58.027h-208.213c-34.133 0-58.027-23.893-58.027-51.2v-133.12l-184.32-126.293c0 0 0 0 0 0s-3.413 0-3.413-3.413c0 0 0 0-3.413-3.413 0 0 0-3.413 0-3.413s0-3.413 0-3.413c0 0 0 0 0 0v-576.853c0-10.24 3.413-20.48 10.24-30.72 0 0 0 0 0 0s0 0 0 0c10.24-13.653 27.307-20.48 44.373-20.48h1044.48c17.067 0 34.133 6.827 44.373 20.48 0 0 0 0 0 0s0 0 0 0c6.827 10.24 10.24 20.48 10.24 30.72l3.413 580.267c0 0 0 0 0 0zM570.027 922.453c6.827 3.413 17.067 3.413 23.893 0l40.96-30.72h-112.64l47.787 30.72zM61.44-26.453l505.173 344.747c6.827 3.413 17.067 3.413 23.893 0l505.173-344.747h-1034.24zM1122.987 0.853l-508.587 344.747c-20.48 13.653-51.2 13.653-71.68 0l-505.173-344.747v542.72l317.44-215.040c6.827-6.827 20.48-3.413 27.307 3.413s3.413 17.067-3.413 23.893l-320.853 218.453 136.533 92.16v-129.707c0-10.24 10.24-17.067 20.48-17.067s20.48 6.827 20.48 17.067v307.2c-3.413 6.827 6.827 13.653 17.067 13.653h658.773c10.24 0 20.48-6.827 20.48-17.067v-307.2c0-10.24 10.24-17.067 20.48-17.067s20.48 6.827 20.48 17.067v133.12l136.533-92.16-324.267-221.867c-6.827-3.413-6.827-10.24-6.827-17.067s6.827-10.24 10.24-13.653c6.827-3.413 13.653 0 20.48 3.413l317.44 215.040-3.413-539.307zM812.373 550.4v68.267c0 112.64-102.4 204.8-232.107 204.8s-232.107-92.16-232.107-204.8c0-112.64 102.4-204.8 232.107-204.8 10.24 0 20.48 6.827 20.48 17.067s-10.24 17.067-20.48 17.067c-105.813 0-194.56 75.093-194.56 170.667s85.333 170.667 194.56 170.667 194.56-75.093 194.56-170.667v-68.267c0-20.48-17.067-34.133-37.547-34.133s-37.547 13.653-37.547 34.133v68.267c0 10.24-10.24 17.067-20.48 17.067s-20.48-6.827-20.48-17.067c0-37.547-34.133-68.267-78.507-68.267s-78.507 30.72-78.507 68.267c0 37.547 34.133 68.267 78.507 68.267 10.24 0 20.48 6.827 20.48 17.067s-10.24 17.067-20.48 17.067c-51.2 0-98.987-30.72-112.64-75.093s6.827-92.16 51.2-116.053c44.373-23.893 102.4-20.48 139.947 10.24 3.413-37.547 40.96-61.44 81.92-61.44 40.96 6.827 71.68 37.547 71.68 71.68z" />
<glyph unicode="&#xe911;" glyph-name="phone" horiz-adv-x="1161" d="M525.653 181.76c-10.24-6.827-10.24-20.48 0-27.307s23.893-6.827 30.72 0c10.24 6.827 10.24 20.48 0 27.307-6.827 6.827-20.48 6.827-30.72 0zM1109.333 215.893l-170.667 129.707c0 0 0 0-3.413 0-44.373 23.893-102.4 20.48-139.947-13.653l-92.16-81.92c-6.827-6.827-17.067-6.827-23.893-3.413-105.813 37.547-194.56 95.573-259.413 170.667-51.2 58.027-68.267 102.4-71.68 109.227 0 0 0 3.413 0 3.413-3.413 6.827 0 17.067 3.413 20.48l92.16 88.747c37.547 34.133 44.373 85.333 17.067 122.88 0 0 0 0 0 0l-129.707 153.6c-37.547 51.2-122.88 61.44-174.080 13.653l-17.067-13.653c0 0 0 0 0 0l-68.267-58.027c-81.92-71.68-92.16-177.493-37.547-307.2 47.787-112.64 143.36-232.107 266.24-341.333 126.293-112.64 269.653-197.973 399.36-238.933s266.24-47.787 361.813 37.547l64.853 54.613c51.2 44.373 40.96 119.467-17.067 153.6zM907.947 314.88l170.667-129.707c0 0 0 0 3.413 0 37.547-20.48 40.96-64.853 10.24-92.16l-3.413-3.413-293.547 194.56 27.307 23.893c23.893 17.067 58.027 20.48 85.333 6.827zM293.547 891.733c0 0 3.413 0 0 0l126.293-153.6c17.067-20.48 13.653-51.2-10.24-71.68l-27.307-23.893-197.973 256 6.827 3.413c30.72 27.307 81.92 23.893 102.4-10.24zM716.8 7.68c-122.88 40.96-259.413 122.88-382.293 228.693-119.467 105.813-211.627 221.867-256 327.68-37.547 78.507-58.027 187.733 23.893 262.827l47.787 40.96 197.973-256-34.133-30.72c-20.48-17.067-23.893-40.96-17.067-64.853 10.24-20.48 44.373-75.093 78.507-116.053 47.787-58.027 136.533-139.947 283.307-191.147 23.893-10.24 54.613-3.413 75.093 13.653l34.133 27.307 293.547-194.56-27.307-23.893c-92.16-75.093-225.28-54.613-317.44-23.893zM484.693 229.547c-23.893 17.067-64.853 51.2-88.747 68.267-54.613 47.787-109.227 105.813-143.36 150.187-6.827 10.24-20.48 10.24-30.72 3.413s-13.653-17.067-6.827-27.307c40.96-54.613 102.4-116.053 146.773-153.6 23.893-20.48 64.853-51.2 88.747-71.68 10.24-6.827 23.893-6.827 30.72 3.413 13.653 6.827 13.653 20.48 3.413 27.307z" />
<glyph unicode="&#xe912;" glyph-name="site" horiz-adv-x="1161" d="M1143.293 50.77l-491.998-0.352v31.672c0 26.716-24.733 48.452-55.129 48.452h-36.035v54.576c235.213 7.984 423.762 178.63 423.762 387.28 0 52.755-11.848 103.907-35.222 152.039-3.738 7.696-13.858 11.268-22.624 7.984-8.755-3.284-12.82-12.179-9.083-19.875 19.302-39.727 30.041-81.711 32.079-124.996h-182.187c-1.406 64.872-11.837 126.98-30.235 181.657 33.86 14.568 65.679 33.019 94.669 55.081 19.835-17.588 37.806-37.12 53.47-58.466 5.161-7.027 15.841-9.051 23.828-4.514 8.004 4.529 10.305 13.907 5.144 20.941-81.698 111.299-220.327 177.75-370.842 177.75-243.173 0-441.003-173.874-441.003-387.601 0-208.65 188.56-379.296 423.762-387.28v-54.576h-36.035c-30.396 0-55.129-21.736-55.129-48.442v-31.683l-417.247 0.109c-9.527 0-17.239-6.779-17.239-15.142 0-8.366 7.712-15.152 17.239-15.152l417.247-0.109v-31.683c0-26.716 24.733-48.442 55.129-48.442h106.551c30.396 0 55.129 21.736 55.129 48.442v31.683l491.998 0.348c9.53 0 17.241 6.786 17.241 15.152s-7.721 15.145-17.241 15.145zM381.088 302.387c17.326-31.184 37.25-56.593 59.023-75.721-59.767 13.735-114.194 39.161-159.962 73.308 24.642 18.367 51.443 33.939 79.837 46.52 6.349-15.479 13.391-30.232 21.101-44.107zM412.068 315.679c-7.543 13.578-14.404 28.068-20.565 43.322 47.626 16.794 98.874 25.617 151.378 25.617 52.507 0 103.765-8.83 151.398-25.624-6.171-15.247-13.022-29.737-20.565-43.315-36.038-64.864-82.497-100.584-130.823-100.584s-94.785 35.721-130.823 100.584zM380.938 387.936c-16.691 50.954-26.184 108.769-27.546 169.312h378.996c-1.362-60.542-10.865-118.364-27.552-169.312-51.019 17.695-105.837 26.979-161.956 26.979-56.115 0-110.916-9.284-161.942-26.979zM725.794 346.494c28.396-12.592 55.187-28.163 79.828-46.527-45.759-34.14-100.195-59.566-159.952-73.301 21.774 19.128 41.697 44.537 59.023 75.721 7.704 13.875 14.742 28.621 21.101 44.107zM831.095 320.652c-28.945 21.992-60.696 40.397-94.474 54.924 18.398 54.678 28.829 116.794 30.235 181.671h182.176c-4.393-92.109-48.626-175.305-117.937-236.595zM732.389 587.544h-378.996c1.362 60.544 10.854 118.349 27.546 169.298 51.019-17.696 105.827-26.98 161.942-26.98 56.129 0 110.937 9.284 161.963 26.988 16.691-50.949 26.184-108.762 27.546-169.306zM542.891 929.705c48.326 0 94.785-35.727 130.823-100.591 7.543-13.58 14.404-28.070 20.565-43.322-47.626-16.801-98.884-25.626-151.398-25.626-52.504 0-103.752 8.825-151.378 25.618 6.161 15.261 13.022 29.751 20.565 43.338 36.038 64.856 82.497 100.583 130.823 100.583zM805.85 844.989c-24.692-18.443-51.575-34.070-80.056-46.7-6.349 15.486-13.391 30.241-21.101 44.116-17.353 31.229-37.311 56.669-59.119 75.805 59.129-13.486 113.821-38.521 160.276-73.221zM381.088 842.406c-7.711-13.883-14.752-28.638-21.108-44.124-28.396 12.591-55.198 28.163-79.839 46.529 45.768 34.148 100.203 59.579 159.971 73.315-21.774-19.128-41.697-44.537-59.023-75.719zM136.747 557.247h52.249c9.518 0 17.239 6.786 17.239 15.152s-7.721 15.145-17.239 15.145h-52.249c4.392 92.1 48.618 175.298 117.93 236.589 28.936-22 60.696-40.404 94.473-54.941-18.389-54.661-28.819-116.769-30.227-181.648h-49.486c-9.518 0-17.239-6.779-17.239-15.145s7.721-15.152 17.239-15.152h49.486c1.408-64.877 11.838-126.986 30.237-181.664-33.779-14.527-65.539-32.932-94.475-54.924-69.311 61.29-113.547 144.49-117.938 236.588zM616.823-11.558c0-10.008-9.26-18.156-20.657-18.156h-106.551c-11.387 0-20.657 8.148-20.657 18.156v46.708c0 0.048 0.010 0.116 0.010 0.116 0 0.048-0.010 0.119-0.010 0.119v46.705c0 10.018 9.271 18.156 20.657 18.156h106.551c11.397 0 20.657-8.148 20.657-18.156v-93.648z" />
<glyph unicode="&#xe913;" glyph-name="checkbox" d="M1024-64h-1024v1024h1024v-1024zM64 0h896v896h-896v-896z" />
<glyph unicode="&#xe914;" glyph-name="checkbox-checked" d="M1024-64h-1024v1024h1024zM60.224-3.776h903.552v903.552h-903.552zM638.848 565.984l-185.6-184.768-67.808 68.16c-4.383 4.431-10.463 7.174-17.184 7.174-13.347 0-24.166-10.82-24.166-24.166 0-6.626 2.666-12.629 6.985-16.994l-0.002 0.002 84.576-85.344c4.367-4.4 10.417-7.123 17.104-7.123s12.737 2.724 17.103 7.122l0.001 0.002 202.944 201.6c4.396 4.368 7.118 10.418 7.118 17.104 0 13.315-10.794 24.11-24.11 24.11-6.63 0-12.635-2.676-16.993-7.007l0.001 0.001z" />
<glyph unicode="&#xe915;" glyph-name="arrow-delimiter" horiz-adv-x="6720" d="M6678.656 425.373c12.48 12.497 12.48 32.758 0 45.254l-203.648 203.647c-12.544 12.497-32.768 12.497-45.312 0-12.48-12.497-12.48-32.758 0-45.254l181.056-181.020-181.056-181.018c-12.48-12.499-12.48-32.762 0-45.254 12.544-12.499 32.768-12.499 45.312 0l203.648 203.645zM0 416h97.882v64h-97.882v-64zM293.647 416h195.764v64h-195.764v-64zM685.178 416h195.763v64h-195.763v-64zM1076.704 416h195.77v64h-195.77v-64zM1468.237 416h195.763v64h-195.763v-64zM1859.763 416h195.763v64h-195.763v-64zM2251.296 416h195.763v64h-195.763v-64zM2642.822 416h195.763v64h-195.763v-64zM3034.355 416h195.763v64h-195.763v-64zM3425.882 416h195.763v64h-195.763v-64zM3817.408 416h195.77v64h-195.77v-64zM4208.941 416h195.763v64h-195.763v-64zM4600.467 416h195.77v64h-195.77v-64zM4992 416h195.763v64h-195.763v-64zM5383.526 416h195.77v64h-195.77v-64zM5775.059 416h195.763v64h-195.763v-64zM6166.586 416h195.763v64h-195.763v-64zM6558.144 416h97.856v64h-97.856v-64zM6701.248 402.745c25.024 24.994 25.024 65.516 0 90.51l-407.29 407.293c-24.992 24.994-65.51 24.994-90.509 0-24.992-24.994-24.992-65.516 0-90.51l362.054-362.038-362.054-362.042c-24.992-24.992-24.992-65.51 0-90.509 24.998-24.992 65.517-24.992 90.509 0l407.29 407.295zM0 384h97.882v128h-97.882v-128zM293.647 384h195.764v128h-195.764v-128zM685.178 384h195.763v128h-195.763v-128zM1076.704 384h195.77v128h-195.77v-128zM1468.237 384h195.763v128h-195.763v-128zM1859.763 384h195.763v128h-195.763v-128zM2251.296 384h195.763v128h-195.763v-128zM2642.822 384h195.763v128h-195.763v-128zM3034.355 384h195.763v128h-195.763v-128zM3425.882 384h195.763v128h-195.763v-128zM3817.408 384h195.77v128h-195.77v-128zM4208.941 384h195.763v128h-195.763v-128zM4600.467 384h195.77v128h-195.77v-128zM4992 384h195.763v128h-195.763v-128zM5383.526 384h195.77v128h-195.77v-128zM5775.059 384h195.763v128h-195.763v-128zM6166.586 384h195.763v128h-195.763v-128zM6558.144 384h97.856v128h-97.856v-128z" />
<glyph unicode="&#xe916;" d="M1024 448c0-282.77-229.23-512-512-512s-512 229.23-512 512c0 282.77 229.23 512 512 512v0c282.77 0 512-229.23 512-512v0z" />
<glyph unicode="&#xe917;" d="M653.41 567.832l-6.705-73.655-4.364-47.64h-89.917v-303.299h-121.271v303.323h-60.562v121.271h60.148v54.833c0 49.615 23.625 127.122 127.634 127.122l93.696-0.39v-103.912h-68.12c-0.405 0.023-0.88 0.036-1.357 0.036-14.192 0-25.698-11.505-25.698-25.698 0-1.225 0.086-2.43 0.251-3.609l-0.016 0.136v-48.494z" />
<glyph unicode="&#xe918;" d="M1024 448c0-282.819-229.181-512-512-512v0c-282.819 0-512 229.181-512 512v0c0 282.819 229.181 512 512 512v0c282.819 0 512-229.181 512-512z" />
<glyph unicode="&#xe919;" d="M633.905 145.676h-243.81c-107.276 0-195.048 87.771-195.048 195.048v214.552c0 107.276 87.771 195.048 195.048 195.048h243.81c107.276 0 195.048-87.771 195.048-195.048v-214.552c0-107.276-87.771-195.048-195.048-195.048zM390.095 706.438c-82.895 0-151.162-68.267-151.162-151.162v-214.552c0-82.895 68.267-151.162 151.162-151.162h243.81c82.895 0 151.162 68.267 151.162 151.162v214.552c0 82.895-68.267 151.162-151.162 151.162h-243.81zM512 274.895c-95.086 0-173.105 78.019-173.105 173.105s78.019 173.105 173.105 173.105 173.105-78.019 173.105-173.105c0 0 0 0 0 0 0-95.086-78.019-173.105-173.105-173.105zM512 577.219c-73.143 0-129.219-58.514-129.219-129.219s58.514-129.219 129.219-129.219 129.219 58.514 129.219 129.219c0 0 0 0 0 0 0 70.705-58.514 129.219-129.219 129.219zM682.667 652.8c-19.505 0-36.571-17.067-36.571-36.571s17.067-36.571 36.571-36.571c19.505 0 36.571 17.067 36.571 36.571s-17.067 36.571-36.571 36.571z" />
<glyph unicode="&#xe91a;" d="M1024 448c0-282.77-229.23-512-512-512s-512 229.23-512 512c0 282.77 229.23 512 512 512v0c282.77 0 512-229.23 512-512v0z" />
<glyph unicode="&#xe91b;" d="M771.048 508.050c-19.773-28.062-57.856-65.024-55.735-85.065 2.95-27.989 101.23-86.821 93.842-132.047-3.291-20.236-37.303-16.628-67.462-17.603-4.717-0.378-10.212-0.593-15.758-0.593-18.36 0-36.168 2.36-53.139 6.792l1.459-0.324c-20.382 8.143-73.899 79.019-88.015 76.288-31.33-6.095-19.992-71.704-29.257-76.288-13.582-3.024-29.181-4.757-45.185-4.757-9.918 0-19.68 0.665-29.245 1.954l1.116-0.123c-88.235 14.848-139.386 73.972-187.733 149.626-59.075 92.501-94.062 161.89-79.189 170.155 16.311 9.070 61.952 7.144 108.52 5.876 13.848-0.39 54.15-100.742 64.512-117.394 41.984-67.267 55.174-17.554 55.735-11.727 11.386 120.588-18.115 115.102-35.206 117.346 12.873 39.010 102.644 32.28 102.644 32.28 15.591-3.616 29.283-8.643 42.123-15.115l-1.065 0.487c4.559-3.048 9.63-12.8 8.826-43.886-1.243-47.031-5.998-111.153 14.629-111.47 15.945-0.244 41.179 37.254 61.611 76.288 11.396 26.996 24.158 50.137 38.988 71.747l-0.881-1.359c14.814 2.075 31.928 3.259 49.319 3.259 5.352 0 10.678-0.112 15.975-0.334l-0.758 0.025c5.375 0.635 11.601 0.997 17.912 0.997 16.621 0 32.656-2.512 47.744-7.177l-1.144 0.305c15.043-12.849-11.069-54.004-35.182-88.162z" />
<glyph unicode="&#xe91c;" d="M1024 448c0-282.77-229.23-512-512-512s-512 229.23-512 512c0 282.77 229.23 512 512 512v0c282.77 0 512-229.23 512-512v0z" />
<glyph unicode="&#xe91d;" d="M809.155 573.001c-3.061 23.749-11.632 45.041-24.386 63.179l0.298-0.447c-15.261 16.246-36.769 26.471-60.669 26.818l-0.063 0.001c-84.919 6.363-212.114 6.363-212.114 6.363h-0.268s-127.342 0-212.114-6.388c-24.026-0.274-45.61-10.504-60.862-26.749l-0.042-0.045c-12.448-17.716-21.011-39.033-23.99-62.101l-0.074-0.705c-3.59-30.42-5.788-65.98-6.068-101.996l-0.002-0.404v-47.933c0.285-36.421 2.482-71.981 6.499-106.988l-0.428 4.588c3.072-23.72 11.633-44.985 24.363-63.108l-0.299 0.449c17.5-16.387 40.97-26.587 66.817-27.013l0.085-0.001c48.518-4.876 206.19-6.363 206.19-6.363s127.415 0.244 212.334 6.583c23.966 0.336 45.478 10.564 60.691 26.774l0.042 0.045c12.456 17.698 21.021 39 23.99 62.055l0.074 0.701c3.6 30.416 5.807 65.974 6.093 101.99l0.003 0.41v47.909c-0.29 36.419-2.496 71.969-6.525 106.964l0.43-4.589zM613.205 453.022l-163.791-88.503v177.688l73.874-40.204z" />
<glyph unicode="&#xe91e;" glyph-name="arrow-down" horiz-adv-x="1707" d="M921.6-41.244l762.311 750.933c11.378 22.756 22.756 45.511 22.756 68.267s-11.378 45.511-22.756 68.267l-91.022 91.022c-22.756 11.378-45.511 22.756-68.267 22.756s-45.511-11.378-68.267-22.756l-603.022-603.022-603.022 603.022c-22.756 11.378-45.511 22.756-68.267 22.756s-45.511-11.378-68.267-22.756l-91.022-91.022c-11.378-22.756-22.756-45.511-22.756-68.267s11.378-45.511 22.756-68.267l762.311-750.933c11.378 0 22.756-11.378 34.133-11.378 11.378-11.378 22.756-11.378 34.133-11.378s22.756 0 34.133 11.378 22.756 11.378 34.133 11.378v0z" />
</font>
</defs>
</svg>
