<svg width="80" height="50" viewBox="0 0 80 50" fill="none" xmlns="http://www.w3.org/2000/svg">
<path d="M5.152 6.7359C3.392 7.5359 2.208 7.4559 1.6 6.4959C1.248 6.0479 1.136 5.4879 1.264 4.8159C1.424 4.1439 1.84 3.5519 2.512 3.0399C3.664 2.2079 5.056 1.5679 6.688 1.1199C8.32 0.639902 9.872 0.399902 11.344 0.399902C14.608 0.399902 17.056 1.1839 18.688 2.7519C20.352 4.3199 21.184 6.3999 21.184 8.9919C21.184 10.6559 20.816 12.1919 20.08 13.5999C19.376 14.9759 18.48 16.1119 17.392 17.0079C16.336 17.9039 15.168 18.8319 13.888 19.7919C12.608 20.7519 11.408 21.6479 10.288 22.4799C9.168 23.2799 8.208 24.2879 7.408 25.5039C6.608 26.6879 6.144 27.9839 6.016 29.3919H19.456C21.184 29.3919 22.048 30.1599 22.048 31.6959C22.048 32.4319 21.808 33.0079 21.328 33.4239C20.848 33.8079 20.224 33.9999 19.456 33.9999H3.712C2.72 33.9999 1.984 33.7279 1.504 33.1839C1.024 32.6399 0.783997 31.9199 0.783997 31.0239C0.783997 29.2959 1.056 27.6959 1.6 26.2239C2.176 24.7199 2.912 23.4559 3.808 22.4319C4.704 21.3759 5.68 20.3999 6.736 19.5039C7.824 18.6079 8.896 17.7759 9.952 17.0079C11.04 16.2079 12.032 15.4399 12.928 14.7039C13.824 13.9359 14.544 13.0879 15.088 12.1599C15.664 11.2319 15.952 10.2559 15.952 9.2319C15.952 8.0799 15.52 7.1359 14.656 6.3999C13.824 5.6319 12.592 5.2479 10.96 5.2479C9.264 5.2479 7.328 5.7439 5.152 6.7359Z" fill="white"/>
<path d="M46.0146 21.6159C46.0146 23.1199 45.2946 23.8719 43.8546 23.8719H42.1746V31.3119C42.1746 33.1039 41.3426 33.9999 39.6786 33.9999C38.8466 33.9999 38.2066 33.7599 37.7586 33.2799C37.3426 32.7679 37.1346 32.1119 37.1346 31.3119V23.8719H25.2306C23.9186 23.8719 23.0866 23.3599 22.7346 22.3359C22.4146 21.3119 22.6386 20.3679 23.4066 19.5039L37.2786 1.8879C37.9826 0.895903 38.7986 0.399902 39.7266 0.399902C40.5586 0.399902 41.1666 0.671903 41.5506 1.2159C41.9666 1.7279 42.1746 2.3999 42.1746 3.2319V19.5039H43.8546C44.4946 19.5039 45.0066 19.6959 45.3906 20.0799C45.8066 20.4639 46.0146 20.9759 46.0146 21.6159ZM28.4946 19.5039H37.1346V8.7039L28.4946 19.5039Z" fill="white"/>
<path d="M64.852 24.1599H76.948C77.908 24.1599 78.544 24.4719 78.856 25.0959C79.168 25.7199 79.108 26.4999 78.676 27.4359L69.82 47.1999C69.124 48.7599 68.176 49.3119 66.976 48.8559C66.448 48.6639 66.112 48.2919 65.968 47.7399C65.848 47.1879 65.944 46.5519 66.256 45.8319L74.392 27.9759H64.852C63.436 27.9759 62.728 27.3399 62.728 26.0679C62.728 24.7959 63.436 24.1599 64.852 24.1599Z" fill="white"/>
<line x1="44.0967" y1="47.5709" x2="63.0967" y2="7.57094" stroke="white" stroke-width="2"/>
</svg>
