<svg width="68" height="40" viewBox="0 0 68 40" fill="none" xmlns="http://www.w3.org/2000/svg">
<path d="M67.5273 38H65.5498V27.6973C65.3708 28.2181 65.0941 28.9831 64.7197 29.9922L61.5947 38H59.8003L56.5776 29.9922C56.4067 29.5609 56.13 28.7959 55.7476 27.6973V38H54.0264V25.5H56.5776L59.8735 33.6543C60.1095 34.2484 60.4106 35.0703 60.7769 36.1201L61.668 33.7031L64.8662 25.5H67.5273V38Z" fill="white"/>
<path d="M9.85252 35.81V9.465L5.01252 14.195C4.42586 14.8183 3.76586 15.24 3.03252 15.46C2.33586 15.6433 1.62086 15.4967 0.887524 15.02C0.264191 14.4333 0.00752344 13.755 0.117523 12.985C0.227523 12.1783 0.630858 11.4267 1.32752 10.73L9.35752 2.7C9.90752 2.15 10.2925 1.78334 10.5125 1.6C10.7325 1.38 11.0992 1.14167 11.6125 0.885002C12.1625 0.628334 12.7309 0.5 13.3175 0.5C14.9675 0.5 15.7925 1.72833 15.7925 4.185V35.81C15.7925 36.7633 15.5359 37.5333 15.0225 38.12C14.5092 38.7067 13.7575 39 12.7675 39C11.8142 39 11.0809 38.7067 10.5675 38.12C10.0909 37.5333 9.85252 36.7633 9.85252 35.81Z" fill="white"/>
<path d="M31.8534 39.55C27.3067 39.55 23.9884 38.6517 21.8984 36.855C20.4317 35.5717 20.12 34.2517 20.9634 32.895C21.7334 31.685 22.9617 31.5017 24.6484 32.345C27.2517 33.6283 29.6167 34.27 31.7434 34.27C33.98 34.27 35.7217 33.5917 36.9684 32.235C38.2151 30.8783 38.8384 29.0817 38.8384 26.845C38.8384 24.8283 38.2701 23.1967 37.1334 21.95C35.9967 20.7033 34.3834 20.08 32.2934 20.08C31.3034 20.08 30.1484 20.2083 28.8284 20.465C27.5451 20.685 26.6834 20.795 26.2434 20.795C25.3267 20.795 24.6117 20.52 24.0984 19.97C23.6217 19.42 23.42 18.6317 23.4934 17.605L24.3734 4.955C24.5567 2.35167 25.8034 1.05 28.1134 1.05H40.2684C42.4684 1.05 43.5684 2.02167 43.5684 3.965C43.5684 5.90833 42.4684 6.88 40.2684 6.88H29.4884L28.8834 15.35C30.4601 14.9833 31.9634 14.8 33.3934 14.8C35.52 14.8 37.3717 15.1483 38.9484 15.845C40.5251 16.5417 41.7351 17.495 42.5784 18.705C43.4584 19.8783 44.1001 21.125 44.5034 22.445C44.9067 23.7283 45.1084 25.085 45.1084 26.515C45.1084 30.475 43.8984 33.6467 41.4784 36.03C39.0584 38.3767 35.85 39.55 31.8534 39.55Z" fill="white"/>
</svg>
