<svg width="64" height="64" viewBox="0 0 64 64" fill="none" xmlns="http://www.w3.org/2000/svg">
<path d="M63.9915 28.1021C63.1548 20.991 59.8941 14.2749 54.8102 9.19075C49.7264 4.10662 43.0104 0.845624 35.8993 0.00849913C35.5444 -0.0330009 35.1894 0.0787491 34.9226 0.315874C34.6559 0.553124 34.5033 0.893124 34.5033 1.25V12.1357C34.5033 12.826 35.063 13.3857 35.7533 13.3857C36.4435 13.3857 37.0033 12.826 37.0033 12.1357V2.68875C49.5121 4.757 59.2439 14.4892 61.3114 26.9982H37.0033V20.7596C37.0033 20.0694 36.4435 19.5096 35.7533 19.5096C35.063 19.5096 34.5033 20.0694 34.5033 20.7596V28.2482C34.5033 28.9385 35.063 29.4982 35.7533 29.4982H62.7503C63.1071 29.4982 63.4471 29.3457 63.6841 29.0789C63.9212 28.8121 64.0333 28.4568 63.9915 28.1021Z" fill="white"/>
<path d="M35.7533 15.1288C35.063 15.1288 34.5033 15.6885 34.5033 16.3788V16.4118C34.5033 17.102 35.063 17.6618 35.7533 17.6618C36.4436 17.6618 37.0033 17.102 37.0033 16.4118V16.3788C37.0033 15.6885 36.4435 15.1288 35.7533 15.1288Z" fill="white"/>
<path d="M29.4465 55.3472C24.4015 55.2252 19.6257 53.5047 15.6356 50.3717C15.0924 49.9451 14.3067 50.0397 13.8805 50.5828C13.454 51.1258 13.5486 51.9116 14.0916 52.338C18.509 55.8065 23.7977 57.7112 29.3861 57.8463C29.3964 57.8466 29.4066 57.8467 29.4169 57.8467C30.0931 57.8467 30.6494 57.3068 30.666 56.627C30.6828 55.937 30.1366 55.364 29.4465 55.3472Z" fill="white"/>
<path d="M34.2315 56.276C34.1496 55.5905 33.527 55.1012 32.8423 55.1828L32.8156 55.186C32.1303 55.2677 31.6408 55.8897 31.7225 56.5752C31.7983 57.2105 32.3379 57.6772 32.9621 57.6772C33.0116 57.6772 33.0615 57.6742 33.1118 57.6683L33.1384 57.6652C33.8238 57.5835 34.3133 56.9615 34.2315 56.276Z" fill="white"/>
<path d="M59.25 32.5C59.2279 32.5 59.2059 32.5006 59.1841 32.5018H31.5V4.75C31.5 4.05975 30.9403 3.5 30.25 3.5C22.1699 3.5 14.5735 6.64662 8.86 12.36C3.14662 18.0735 0 25.6699 0 33.75C0 41.8301 3.14662 49.4265 8.86 55.14C14.5735 60.8534 22.1699 64 30.25 64C38.3301 64 45.9265 60.8534 51.64 55.14C57.3534 49.4265 60.5 41.8301 60.5 33.75C60.5 33.0596 59.9403 32.5 59.25 32.5ZM30.25 61.5C14.9486 61.5 2.5 49.0514 2.5 33.75C2.5 18.8679 14.277 6.68437 29 6.02787V33.7518C29 34.1681 29.2044 34.5359 29.5174 34.763C29.5173 34.7634 29.517 34.7638 29.5169 34.7641L51.9581 51.0161C46.8696 57.4006 39.03 61.5 30.25 61.5ZM53.427 48.9931L34.1073 35.0018H57.9721C57.7424 40.1526 56.1004 44.9417 53.427 48.9931Z" fill="white"/>
</svg>
