<svg width="64" height="64" viewBox="0 0 64 64" fill="none" xmlns="http://www.w3.org/2000/svg">
<path d="M57.25 24.0993V11.6418C57.25 10.825 56.85 10.0584 56.1801 9.59114C55.5103 9.12414 54.6526 9.01364 53.8864 9.29564L18.7989 22.213H6.1435C2.756 22.2129 0 24.9689 0 28.3565V35.6436C0 39.0313 2.756 41.7871 6.1435 41.7871H9.44663L14.4255 55.598C14.7819 56.586 15.727 57.25 16.7774 57.25H22.7021C23.5131 57.25 24.2766 56.8545 24.7444 56.1919C25.2121 55.5293 25.3294 54.6774 25.0578 53.9131L21.0438 42.6136L53.8861 54.7044C54.1663 54.8075 54.4584 54.8581 54.7493 54.8581C55.2543 54.8581 55.7549 54.7053 56.18 54.4089C56.85 53.9416 57.25 53.175 57.25 52.3583V39.9019C61.0695 39.3 64 35.9864 64 32.0005C64 28.0148 61.0695 24.701 57.25 24.0993ZM11.8325 39.2871H6.1435C4.1345 39.2871 2.5 37.6526 2.5 35.6435V28.3564C2.5 26.3474 4.1345 24.7129 6.1435 24.7129H17.7714V39.2871H14.3325V33.3528C14.3325 32.6625 13.7729 32.1028 13.0825 32.1028C12.3921 32.1028 11.8325 32.6625 11.8325 33.3528V39.2871ZM22.7023 54.75H16.7774L12.1041 41.7871H18.0973L22.7023 54.75ZM54.75 52.3584L20.2714 39.6653V24.3348L54.75 11.6418L54.7514 25.2309C54.7513 25.2376 54.7504 25.2443 54.7504 25.251V38.7501C54.7504 38.7661 54.7521 38.7818 54.7528 38.7976L54.7541 52.3596C54.7541 52.3596 54.7528 52.3594 54.75 52.3584ZM57.2504 37.3568V26.6443C59.6828 27.2116 61.5 29.3978 61.5 32.0005C61.5 34.6033 59.6828 36.7894 57.2504 37.3568Z" fill="white"/>
<path d="M45.2021 24.6114C44.6009 24.2721 43.8385 24.4841 43.4991 25.0854L35.5138 39.2305C35.1744 39.8317 35.3865 40.5941 35.9878 40.9335C36.182 41.0431 36.3929 41.0952 36.6011 41.0952C37.0374 41.0952 37.461 40.8665 37.6908 40.4595L45.6761 26.3144C46.0156 25.7131 45.8034 24.9506 45.2021 24.6114Z" fill="white"/>
<path d="M46.6406 33.5035C44.3135 33.5035 42.4204 35.3968 42.4204 37.7239C42.4204 40.0509 44.3136 41.9442 46.6406 41.9442C48.9676 41.9442 50.8609 40.0509 50.8609 37.7239C50.8609 35.3968 48.9678 33.5035 46.6406 33.5035ZM46.6406 39.4442C45.6921 39.4442 44.9204 38.6724 44.9204 37.7239C44.9204 36.7753 45.6921 36.0035 46.6406 36.0035C47.5891 36.0035 48.3609 36.7753 48.3609 37.7239C48.3609 38.6724 47.5891 39.4442 46.6406 39.4442Z" fill="white"/>
<path d="M36.262 22.057C33.935 22.057 32.0418 23.9503 32.0418 26.2773C32.0418 28.6044 33.935 30.4976 36.262 30.4976C38.589 30.4976 40.4823 28.6044 40.4823 26.2773C40.4823 23.9503 38.589 22.057 36.262 22.057ZM36.2619 27.9976C35.3134 27.9976 34.5416 27.2259 34.5416 26.2773C34.5416 25.3288 35.3134 24.557 36.2619 24.557C37.2104 24.557 37.9821 25.3288 37.9821 26.2773C37.9821 27.2259 37.2104 27.9976 36.2619 27.9976Z" fill="white"/>
<path d="M13.9663 28.1501C13.7338 27.9176 13.4113 27.7838 13.0825 27.7838C12.7538 27.7838 12.4313 27.9175 12.1988 28.1501C11.9663 28.3838 11.8325 28.705 11.8325 29.0338C11.8325 29.3639 11.9663 29.685 12.1988 29.9175C12.4313 30.1513 12.7538 30.2838 13.0825 30.2838C13.4113 30.2838 13.7338 30.1513 13.9663 29.9175C14.1988 29.685 14.3325 29.3638 14.3325 29.0338C14.3325 28.705 14.1988 28.3825 13.9663 28.1501Z" fill="white"/>
<path d="M11.6979 0C11.0075 0 10.4479 0.55975 10.4479 1.25V2.58263C10.4479 3.273 11.0076 3.83263 11.6979 3.83263C12.3883 3.83263 12.9479 3.27288 12.9479 2.58263V1.25C12.9479 0.55975 12.3883 0 11.6979 0Z" fill="white"/>
<path d="M11.6979 6.06323C11.0075 6.06323 10.4479 6.62298 10.4479 7.31323V8.64586C10.4479 9.33611 11.0075 9.89586 11.6979 9.89586C12.3883 9.89586 12.9479 9.33611 12.9479 8.64586V7.31323C12.9479 6.62286 12.3883 6.06323 11.6979 6.06323Z" fill="white"/>
<path d="M15.3959 3.69788H14.0633C13.3729 3.69788 12.8133 4.25763 12.8133 4.94788C12.8133 5.63813 13.3729 6.19788 14.0633 6.19788H15.3959C16.0863 6.19788 16.6459 5.63813 16.6459 4.94788C16.6459 4.25763 16.0863 3.69788 15.3959 3.69788Z" fill="white"/>
<path d="M9.33263 3.69788H8C7.30963 3.69788 6.75 4.25763 6.75 4.94788C6.75 5.63813 7.30963 6.19788 8 6.19788H9.33263C10.023 6.19788 10.5826 5.63813 10.5826 4.94788C10.5826 4.25763 10.023 3.69788 9.33263 3.69788Z" fill="white"/>
<path d="M40.8453 54.1041C40.1549 54.1041 39.5953 54.6639 39.5953 55.3541V56.6867C39.5953 57.3771 40.1549 57.9367 40.8453 57.9367C41.5356 57.9367 42.0953 57.377 42.0953 56.6867V55.3541C42.0953 54.6639 41.5356 54.1041 40.8453 54.1041Z" fill="white"/>
<path d="M40.8453 60.1674C40.1549 60.1674 39.5953 60.7271 39.5953 61.4174V62.75C39.5953 63.4402 40.1549 64 40.8453 64C41.5356 64 42.0953 63.4402 42.0953 62.75V61.4174C42.0953 60.727 41.5356 60.1674 40.8453 60.1674Z" fill="white"/>
<path d="M44.5431 57.8021H43.2105C42.5201 57.8021 41.9605 58.3619 41.9605 59.0521C41.9605 59.7424 42.5201 60.3021 43.2105 60.3021H44.5431C45.2335 60.3021 45.7931 59.7424 45.7931 59.0521C45.7931 58.3619 45.2335 57.8021 44.5431 57.8021Z" fill="white"/>
<path d="M38.4799 57.8021H37.1473C36.4569 57.8021 35.8973 58.3619 35.8973 59.0521C35.8973 59.7424 36.4569 60.3021 37.1473 60.3021H38.4799C39.1703 60.3021 39.7299 59.7424 39.7299 59.0521C39.7299 58.3619 39.1703 57.8021 38.4799 57.8021Z" fill="white"/>
</svg>
