<svg width="64" height="64" viewBox="0 0 64 64" fill="none" xmlns="http://www.w3.org/2000/svg">
<path d="M32 15.375C22.833 15.375 15.375 22.833 15.375 32C15.375 41.167 22.833 48.625 32 48.625C41.167 48.625 48.625 41.167 48.625 32C48.625 22.833 41.167 15.375 32 15.375ZM40.75 43.0805C38.3423 44.9859 35.3018 46.125 32 46.125C28.6982 46.125 25.6578 44.9859 23.25 43.0805V41.0132C23.25 39.513 24.3204 38.2245 25.7952 37.9494L27.6663 37.6004C28.7908 38.6845 30.3184 39.3534 32 39.3534C33.6816 39.3534 35.2093 38.6845 36.3338 37.6005L38.2048 37.9495C39.6796 38.2245 40.75 39.513 40.75 41.0132V43.0805ZM28.25 33.1035V31.1035C28.25 29.0358 29.9323 27.3535 32 27.3535C34.0677 27.3535 35.75 29.0358 35.75 31.1035V33.1035C35.75 35.1712 34.0677 36.8535 32 36.8535C29.9323 36.8535 28.25 35.1712 28.25 33.1035ZM43.2306 40.556C43.0273 38.0515 41.1696 35.9594 38.663 35.4917L37.8356 35.3374C38.1024 34.6431 38.25 33.8904 38.25 33.1034V31.1034C38.25 27.6571 35.4463 24.8534 32 24.8534C28.5538 24.8534 25.75 27.6571 25.75 31.1034V33.1034C25.75 33.8904 25.8976 34.6431 26.1644 35.3374L25.337 35.4917C22.8304 35.9592 20.9727 38.0515 20.7694 40.556C18.9546 38.1799 17.875 35.2139 17.875 32C17.875 24.2114 24.2114 17.875 32 17.875C39.7886 17.875 46.125 24.2114 46.125 32C46.125 35.2139 45.0454 38.1799 43.2306 40.556Z" fill="white"/>
<path d="M50.7499 56.404C50.3512 55.8403 49.5712 55.7061 49.0075 56.1048C44.0151 59.6343 38.134 61.5 32 61.5C28.6055 61.5 25.278 60.9283 22.1102 59.8008C21.4597 59.5692 20.745 59.9088 20.5135 60.5593C20.282 61.2097 20.6216 61.9246 21.272 62.1561C24.7096 63.3796 28.319 64 32 64C38.6537 64 45.0339 61.9758 50.4507 58.1462C51.0144 57.7477 51.1484 56.9676 50.7499 56.404Z" fill="white"/>
<path d="M43.9749 2.31737C40.1682 0.779625 36.1392 0 32 0C25.1751 0 18.6611 2.12038 13.1619 6.132C12.6042 6.53875 12.4819 7.32075 12.8886 7.8785C13.1335 8.21387 13.5139 8.39188 13.8996 8.39188C14.1551 8.39188 14.413 8.31375 14.6352 8.15162C19.7037 4.45425 25.7084 2.5 32 2.5C35.8169 2.5 39.5309 3.2185 43.0386 4.63538C43.6787 4.89425 44.4072 4.58475 44.6657 3.9445C44.9244 3.30437 44.615 2.57588 43.9749 2.31737Z" fill="white"/>
<path d="M57.6826 12.9123C58.2098 12.1341 58.4935 11.2172 58.4935 10.2565C58.4935 8.98772 57.9994 7.79484 57.1022 6.89772C56.2051 6.00047 55.0122 5.50647 53.7435 5.50647C52.4747 5.50647 51.2819 6.00059 50.3848 6.89772C49.4875 7.79484 48.9935 8.98772 48.9935 10.2565C48.9935 11.5252 49.4876 12.7181 50.3848 13.6152C51.2819 14.5125 52.4747 15.0065 53.7435 15.0065C54.4614 15.0065 55.1548 14.8481 55.7841 14.5482C59.527 19.6297 61.5 25.6388 61.5 32C61.5 35.84 60.7731 39.5748 59.3395 43.1007C59.0795 43.7402 59.3871 44.4695 60.0266 44.7295C60.1809 44.7921 60.3403 44.8218 60.497 44.8218C60.9905 44.8218 61.458 44.5276 61.6554 44.0423C63.2111 40.216 64 36.1643 64 32C64 25.0345 61.8184 18.4581 57.6826 12.9123ZM55.3345 11.8473C54.9096 12.2723 54.3445 12.5063 53.7435 12.5063C53.1425 12.5063 52.5775 12.2725 52.1525 11.8473C51.7275 11.4225 51.4935 10.8573 51.4935 10.2563C51.4935 9.65535 51.7275 9.09034 52.1525 8.66534C52.5774 8.24034 53.1425 8.00635 53.7435 8.00635C54.3445 8.00635 54.9095 8.24034 55.3345 8.66534C55.7595 9.09022 55.9935 9.65535 55.9935 10.2563C55.9935 10.8573 55.7595 11.4223 55.3345 11.8473Z" fill="white"/>
<path d="M32 49.8858C29.988 49.8858 28.2654 51.1439 27.5742 52.9141C21.3349 51.5968 15.9384 47.5008 12.9891 41.7808C12.6727 41.1671 11.9191 40.9261 11.3052 41.2425C10.6916 41.5589 10.4507 42.3128 10.767 42.9264C14.1005 49.392 20.2359 53.9988 27.3142 55.4116C27.686 57.6629 29.6451 59.3858 32 59.3858C34.6191 59.3858 36.75 57.2549 36.75 54.6358C36.75 52.0166 34.6191 49.8858 32 49.8858ZM32 56.8858C30.7594 56.8858 29.75 55.8764 29.75 54.6358C29.75 53.3951 30.7594 52.3858 32 52.3858C33.2406 52.3858 34.25 53.3951 34.25 54.6358C34.25 55.8764 33.2406 56.8858 32 56.8858Z" fill="white"/>
<path d="M12.9081 51.0917C11.8105 49.9943 10.1962 49.7207 8.841 50.271C4.69275 45.0217 2.5 38.7065 2.5 32C2.5 28.8688 2.988 25.7866 3.9505 22.8391C4.16475 22.1828 3.8065 21.4771 3.15025 21.2628C2.494 21.0483 1.78825 21.4068 1.574 22.0631C0.5295 25.2616 0 28.6048 0 32C0 39.3127 2.40287 46.1976 6.949 51.9101C6.95625 51.9191 6.9645 51.9268 6.97188 51.9356C6.18875 53.3601 6.399 55.1892 7.60488 56.3951C8.336 57.1261 9.29625 57.4916 10.2565 57.4916C11.2168 57.4916 12.1771 57.1261 12.9081 56.3951C14.3702 54.933 14.3702 52.554 12.9081 51.0917ZM11.1404 54.6273C10.9043 54.8635 10.5904 54.9935 10.2565 54.9935C9.92263 54.9935 9.60875 54.8635 9.37263 54.6273C9.1365 54.3912 9.0065 54.0773 9.0065 53.7435C9.0065 53.4096 9.1365 53.0957 9.37263 52.8596C9.60875 52.6235 9.92263 52.4935 10.2565 52.4935C10.5904 52.4935 10.9043 52.6235 11.1404 52.8596C11.3765 53.0957 11.5065 53.4096 11.5065 53.7435C11.5065 54.0773 11.3765 54.3912 11.1404 54.6273Z" fill="white"/>
<path d="M54.5485 34.2519C53.8664 34.1463 53.2276 34.6139 53.1221 35.2961C52.1115 41.8289 48.0257 47.6219 42.1927 50.7926C41.5862 51.1224 41.3619 51.8813 41.6915 52.4879C41.9181 52.9048 42.3475 53.1411 42.7907 53.1411C42.9924 53.1411 43.197 53.0921 43.3866 52.9891C46.5649 51.2615 49.356 48.7881 51.4585 45.8363C53.6001 42.8295 55.0296 39.317 55.5925 35.6784C55.6982 34.996 55.2307 34.3574 54.5485 34.2519Z" fill="white"/>
<path d="M22.2243 11.5523C21.892 10.947 21.132 10.7259 20.527 11.058C17.371 12.7904 14.6001 15.261 12.5138 18.2026C10.3883 21.1995 8.96838 24.6976 8.40763 28.3193C8.30213 29.0014 8.7695 29.6401 9.45175 29.7458C9.51662 29.7558 9.58087 29.7606 9.6445 29.7606C10.2504 29.7606 10.7826 29.3191 10.8783 28.7016C11.8843 22.2039 15.941 16.4274 21.73 13.2495C22.3351 12.9173 22.5565 12.1574 22.2243 11.5523Z" fill="white"/>
<path d="M52.6025 19.9295C48.9495 13.7069 42.7821 9.5075 35.6816 8.40787C35.6593 8.40437 35.6371 8.40325 35.615 8.401C35.1779 6.81487 33.7232 5.646 32 5.646C29.9323 5.646 28.25 7.32825 28.25 9.396C28.25 11.4637 29.9323 13.146 32 13.146C33.5325 13.146 34.8526 12.2215 35.4336 10.9011C41.732 11.9172 47.1986 15.6622 50.4466 21.195C50.6795 21.5916 51.0969 21.8125 51.5257 21.8125C51.7407 21.8125 51.9586 21.757 52.1574 21.6404C52.7528 21.2909 52.952 20.5249 52.6025 19.9295ZM32 10.646C31.3108 10.646 30.75 10.0852 30.75 9.396C30.75 8.70675 31.3108 8.146 32 8.146C32.6892 8.146 33.25 8.70675 33.25 9.396C33.25 10.0852 32.6892 10.646 32 10.646Z" fill="white"/>
<path d="M11.14 9.37248C10.9075 9.13998 10.585 9.00623 10.2562 9.00623C9.9275 9.00623 9.605 9.13998 9.3725 9.37248C9.14 9.60498 9.00625 9.92748 9.00625 10.2562C9.00625 10.585 9.14 10.9075 9.3725 11.14C9.605 11.3725 9.9275 11.5062 10.2562 11.5062C10.5862 11.5062 10.9075 11.3725 11.14 11.14C11.3725 10.9075 11.5062 10.585 11.5062 10.2562C11.5062 9.92748 11.3725 9.60498 11.14 9.37248Z" fill="white"/>
<path d="M54.6275 52.86C54.395 52.6275 54.0725 52.4938 53.7437 52.4938C53.415 52.4938 53.0925 52.6275 52.86 52.86C52.6275 53.0925 52.4937 53.415 52.4937 53.7438C52.4937 54.0725 52.6275 54.395 52.86 54.6275C53.0925 54.86 53.415 54.9938 53.7437 54.9938C54.0725 54.9938 54.395 54.86 54.6275 54.6275C54.86 54.395 54.9937 54.0725 54.9937 53.7438C54.9937 53.415 54.86 53.0925 54.6275 52.86Z" fill="white"/>
</svg>
