<svg width="51" height="43" viewBox="0 0 51 43" fill="none" xmlns="http://www.w3.org/2000/svg">
<path d="M43.8101 26.008H39.9367V35.0035H38V36.003H39.9367V38.002H38V39.0015H39.9367V42H40.905V39.0015H44.2619V38.002H40.905V36.003H43.7455C43.7455 36.003 43.9392 36.003 44.1974 36.003C45.0366 36.003 46.9088 35.8697 48.1999 34.6037C49.1037 33.7375 49.5556 32.5381 49.5556 31.0055C49.5556 29.4729 49.1037 28.2735 48.1999 27.4073C46.5214 25.8081 43.8746 26.008 43.8101 26.008ZM47.5543 33.8707C46.1341 35.2034 43.8746 35.0035 43.8101 35.0035H40.905V27.0075H43.8746C43.8746 27.0075 46.1986 26.8076 47.6189 28.1403C48.329 28.8066 48.7163 29.8061 48.7163 31.0055C48.6518 32.2715 48.2644 33.2044 47.5543 33.8707Z" fill="white" stroke="white"/>
<path d="M0.619995 21.3C0.619995 14.78 1.86 9.6 4.34 5.76C6.86 1.92 10.62 0 15.62 0C20.62 0 24.36 1.92 26.84 5.76C29.32 9.6 30.56 14.78 30.56 21.3C30.56 27.86 29.32 33.06 26.84 36.9C24.36 40.7 20.62 42.6 15.62 42.6C10.62 42.6 6.86 40.7 4.34 36.9C1.86 33.06 0.619995 27.86 0.619995 21.3ZM7.16 21.3C7.16 26.22 7.88 30.04 9.32 32.76C10.8 35.48 12.9 36.84 15.62 36.84C18.34 36.84 20.42 35.48 21.86 32.76C23.3 30.04 24.02 26.22 24.02 21.3C24.02 16.38 23.3 12.56 21.86 9.84C20.42 7.12 18.34 5.76 15.62 5.76C9.98 5.76 7.16 10.94 7.16 21.3Z" fill="white"/>
</svg>
