<svg width="81" height="16" viewBox="0 0 81 16" fill="none" xmlns="http://www.w3.org/2000/svg">
<path opacity="0.5" d="M80.3536 8.35355C80.5488 8.15828 80.5488 7.8417 80.3536 7.64644L77.1716 4.46446C76.9763 4.2692 76.6597 4.2692 76.4645 4.46446C76.2692 4.65972 76.2692 4.9763 76.4645 5.17157L79.2929 7.99999L76.4645 10.8284C76.2692 11.0237 76.2692 11.3403 76.4645 11.5355C76.6597 11.7308 76.9763 11.7308 77.1716 11.5355L80.3536 8.35355ZM4.37114e-08 8.5L1.53846 8.5L1.53846 7.5L-4.37114e-08 7.5L4.37114e-08 8.5ZM4.61538 8.5L7.69231 8.5L7.69231 7.5L4.61538 7.5L4.61538 8.5ZM10.7692 8.5L13.8462 8.5L13.8462 7.5L10.7692 7.5L10.7692 8.5ZM16.9231 8.5L20 8.5L20 7.5L16.9231 7.5L16.9231 8.5ZM23.0769 8.5L26.1538 8.5L26.1538 7.5L23.0769 7.5L23.0769 8.5ZM29.2308 8.5L32.3077 8.5L32.3077 7.5L29.2308 7.5L29.2308 8.5ZM35.3846 8.5L38.4615 8.5L38.4615 7.5L35.3846 7.5L35.3846 8.5ZM41.5385 8.5L44.6154 8.5L44.6154 7.5L41.5385 7.5L41.5385 8.5ZM47.6923 8.5L50.7692 8.5L50.7692 7.5L47.6923 7.5L47.6923 8.5ZM53.8462 8.5L56.9231 8.5L56.9231 7.5L53.8462 7.5L53.8462 8.5ZM60 8.49999L63.0769 8.49999L63.0769 7.49999L60 7.49999L60 8.49999ZM66.1538 8.49999L69.2308 8.49999L69.2308 7.49999L66.1538 7.49999L66.1538 8.49999ZM72.3077 8.49999L75.3846 8.49999L75.3846 7.49999L72.3077 7.49999L72.3077 8.49999ZM78.4615 8.49999L80 8.49999L80 7.49999L78.4615 7.49999L78.4615 8.49999ZM80.7071 8.7071C81.0976 8.31658 81.0976 7.68341 80.7071 7.29289L74.3431 0.928926C73.9526 0.538401 73.3195 0.538401 72.9289 0.928926C72.5384 1.31945 72.5384 1.95262 72.9289 2.34314L78.5858 7.99999L72.9289 13.6568C72.5384 14.0474 72.5384 14.6805 72.9289 15.0711C73.3195 15.4616 73.9526 15.4616 74.3431 15.0711L80.7071 8.7071ZM8.74228e-08 9L1.53846 9L1.53846 7L-8.74228e-08 7L8.74228e-08 9ZM4.61538 9L7.69231 9L7.69231 7L4.61538 7L4.61538 9ZM10.7692 9L13.8462 9L13.8462 7L10.7692 7L10.7692 9ZM16.9231 9L20 9L20 7L16.9231 7L16.9231 9ZM23.0769 9L26.1538 9L26.1538 7L23.0769 7L23.0769 9ZM29.2308 9L32.3077 9L32.3077 7L29.2308 7L29.2308 9ZM35.3846 9L38.4615 9L38.4615 7L35.3846 7L35.3846 9ZM41.5385 9L44.6154 9L44.6154 7L41.5385 7L41.5385 9ZM47.6923 9L50.7692 9L50.7692 7L47.6923 7L47.6923 9ZM53.8462 9L56.9231 9L56.9231 7L53.8462 7L53.8462 9ZM60 8.99999L63.0769 8.99999L63.0769 6.99999L60 6.99999L60 8.99999ZM66.1538 8.99999L69.2308 8.99999L69.2308 6.99999L66.1538 6.99999L66.1538 8.99999ZM72.3077 8.99999L75.3846 8.99999L75.3846 6.99999L72.3077 6.99999L72.3077 8.99999ZM78.4615 8.99999L80 8.99999L80 6.99999L78.4615 6.99999L78.4615 8.99999Z" fill="black"/>
</svg>
