<?xml version="1.0" encoding="utf-8"?>
<!-- Generator: Adobe Illustrator 23.1.0, SVG Export Plug-In . SVG Version: 6.00 Build 0)  -->
<svg version="1.1" id="Layer_1" xmlns="http://www.w3.org/2000/svg" xmlns:xlink="http://www.w3.org/1999/xlink" x="0px" y="0px"
	 viewBox="0 0 14 9" style="enable-background:new 0 0 14 9;" xml:space="preserve">
<style type="text/css">
	.st0{fill:#DB293D;}
</style>
<path class="st0" d="M7.3,8.2l5.8-5.5c0.1-0.2,0.2-0.3,0.2-0.5c0-0.2-0.1-0.3-0.2-0.5l-0.7-0.7c-0.2-0.1-0.3-0.2-0.5-0.2
	c-0.2,0-0.3,0.1-0.5,0.2L6.8,5.5L2.2,1.1C2,1,1.8,0.9,1.7,0.9C1.5,0.9,1.3,1,1.1,1.1L0.5,1.7C0.4,1.9,0.3,2.1,0.3,2.2
	c0,0.2,0.1,0.3,0.2,0.5l5.8,5.5c0.1,0,0.2,0.1,0.3,0.1c0.1,0.1,0.2,0.1,0.3,0.1S7,8.4,7,8.3C7.1,8.2,7.2,8.2,7.3,8.2z"/>
</svg>
