<svg width="50" height="82" viewBox="0 0 50 82" fill="none" xmlns="http://www.w3.org/2000/svg">
<path d="M5.56249 81.6372C4.08783 81.6355 2.67409 81.0639 1.63133 80.048C0.588559 79.032 0.00189754 77.6545 7.13533e-06 76.2177V19.8915C-0.00123744 19.18 0.160345 18.4772 0.472995 17.8342C0.785645 17.1913 1.2415 16.6243 1.80737 16.1746L19.8648 1.78546C21.3137 0.630811 23.1279 0 24.9997 0C26.8716 0 28.6858 0.630811 30.1347 1.78546L48.1863 16.1529C48.7528 16.602 49.2092 17.1687 49.5223 17.8115C49.8354 18.4543 49.9973 19.1572 49.9962 19.8687L50 76.2169C50 77.6545 49.4139 79.0332 48.3706 80.0498C47.3274 81.0663 45.9124 81.6374 44.437 81.6375L5.56249 81.6372Z" fill="white"/>
<path d="M18.1914 15.1142C17.741 15.0875 17.2962 15.2218 16.9402 15.4919C16.5842 15.762 16.3415 16.1493 16.2576 16.5812C16.2111 16.8381 16.2229 17.1018 16.2921 17.3538C16.3613 17.6057 16.4863 17.8399 16.6582 18.0398C16.8302 18.2397 17.045 18.4006 17.2876 18.511C17.5301 18.6214 17.7945 18.6787 18.0623 18.679H20.7879C20.8437 18.679 20.8985 18.6645 20.9467 18.637C20.9948 18.6094 21.0345 18.5698 21.0617 18.5222C21.0888 18.4747 21.1024 18.4209 21.101 18.3665C21.0996 18.3121 21.0833 18.2591 21.0538 18.2129L19.5927 15.9237C19.4441 15.688 19.2389 15.4911 18.9948 15.3501C18.7506 15.209 18.4749 15.128 18.1914 15.1142Z" fill="#DB293D"/>
<path d="M30.3752 15.9235L28.9152 18.2127C28.8857 18.2589 28.8694 18.312 28.868 18.3664C28.8666 18.4208 28.8802 18.4745 28.9074 18.5221C28.9345 18.5697 28.9742 18.6093 29.0223 18.6369C29.0704 18.6645 29.1253 18.6791 29.1811 18.6791H31.8257C32.2904 18.6868 32.7417 18.5271 33.0931 18.2307C33.4445 17.9343 33.6713 17.522 33.73 17.0728C33.7552 16.8247 33.7268 16.5743 33.6467 16.3375C33.5666 16.1008 33.4366 15.8829 33.265 15.6981C33.0933 15.5132 32.8839 15.3654 32.6501 15.2641C32.4163 15.1628 32.1634 15.1103 31.9075 15.11C31.6017 15.1041 31.2997 15.1761 31.0311 15.3187C30.7626 15.4614 30.5369 15.6699 30.3763 15.9235" fill="#DB293D"/>
<path d="M45.1434 22.5564L35.4544 28.4267C35.4601 28.337 35.4681 28.2479 35.4681 28.1566C35.4682 27.4031 35.2583 26.6637 34.8609 26.0173C34.4634 25.3709 33.8934 24.8418 33.2115 24.4863C32.5296 24.1309 31.7614 23.9625 30.989 23.9991C30.2166 24.0356 29.4688 24.2759 28.8255 24.6941C28.1822 25.1123 27.6675 25.6928 27.3363 26.3737C27.0051 27.0546 26.8698 27.8104 26.9449 28.5603C27.02 29.3103 27.3026 30.0263 27.7627 30.632C28.2227 31.2377 28.8428 31.7104 29.5569 31.9996L27.1731 33.4439C26.5336 33.8313 25.7956 34.0366 25.0425 34.0366C24.2895 34.0366 23.5514 33.8313 22.9119 33.4439L20.491 31.9771C21.1986 31.6793 21.8103 31.2005 22.2613 30.5915C22.7123 29.9824 22.9858 29.2658 23.0527 28.5176C23.1196 27.7695 22.9774 27.0176 22.6414 26.3417C22.3053 25.6658 21.7878 25.0912 21.1437 24.6787C20.4996 24.2661 19.7529 24.0311 18.9828 23.9985C18.2128 23.9659 17.448 24.1369 16.7696 24.4934C16.0912 24.85 15.5245 25.3787 15.1295 26.0236C14.7345 26.6685 14.526 27.4056 14.526 28.1566C14.526 28.2286 14.5331 28.2987 14.537 28.3708L4.94627 22.558C4.85249 22.5012 4.74484 22.4698 4.63446 22.4672C4.52408 22.4646 4.41498 22.4907 4.31846 22.543C4.22195 22.5953 4.14153 22.6717 4.08554 22.7644C4.02955 22.8572 4.00001 22.9628 4 23.0704V40.4134C4 41.4358 4.41685 42.4164 5.15884 43.1393C5.90083 43.8623 6.90719 44.2685 7.95652 44.2685H42.1307C43.18 44.2685 44.1864 43.8623 44.9284 43.1393C45.6704 42.4164 46.0872 41.4358 46.0872 40.4134V23.0671C46.0872 22.9599 46.0578 22.8545 46.002 22.7621C45.9461 22.6696 45.866 22.5934 45.7697 22.5413C45.6735 22.4892 45.5647 22.4631 45.4546 22.4658C45.3445 22.4684 45.2372 22.4997 45.1437 22.5564H45.1434ZM29.0791 28.567C28.9014 28.5669 28.731 28.4981 28.6053 28.3757C28.4796 28.2533 28.4089 28.0872 28.4087 27.914C28.4087 26.16 29.81 25.2423 31.1967 25.2423C31.3745 25.2423 31.545 25.3111 31.6707 25.4336C31.7964 25.5561 31.867 25.7222 31.867 25.8954C31.867 26.0686 31.7964 26.2347 31.6707 26.3572C31.545 26.4796 31.3745 26.5485 31.1967 26.5485C30.6593 26.5485 29.7493 26.836 29.7493 27.9138C29.7493 28.087 29.6787 28.2531 29.553 28.3756C29.4273 28.4981 29.2569 28.5669 29.0791 28.567ZM18.7977 25.2423C18.9754 25.2423 19.1459 25.3111 19.2716 25.4336C19.3973 25.5561 19.4679 25.7222 19.4679 25.8954C19.4679 26.0686 19.3973 26.2347 19.2716 26.3572C19.1459 26.4796 18.9754 26.5485 18.7977 26.5485C18.2602 26.5485 17.35 26.836 17.35 27.9138C17.35 28.087 17.2793 28.2531 17.1536 28.3756C17.0279 28.498 16.8575 28.5669 16.6797 28.5669C16.5019 28.5669 16.3314 28.498 16.2057 28.3756C16.08 28.2531 16.0094 28.087 16.0094 27.9138C16.0094 26.16 17.4123 25.2423 18.7977 25.2423Z" fill="#DB293D"/>
<path d="M5.33596 21.1634L10.1981 24.0399C10.2552 24.0736 10.3205 24.0919 10.3872 24.0929C10.454 24.094 10.5198 24.0777 10.578 24.0458C10.6362 24.0138 10.6846 23.9674 10.7183 23.9113C10.752 23.8551 10.7698 23.7912 10.7699 23.7262V22.6018C10.7699 22.2255 10.9233 21.8646 11.1964 21.5985C11.4695 21.3324 11.8399 21.1829 12.2261 21.1829H15.1921C15.2489 21.1797 15.3032 21.1588 15.347 21.1234C15.3908 21.0879 15.4218 21.0398 15.4354 20.986C15.4491 20.9321 15.4448 20.8754 15.4231 20.8242C15.4013 20.7729 15.3633 20.7298 15.3146 20.7011L15.3171 20.6987C14.4798 20.1266 13.8533 19.3076 13.5298 18.3623C13.2064 17.4171 13.2031 16.3956 13.5206 15.4484C13.838 14.5012 14.4593 13.6785 15.293 13.1014C16.1267 12.5243 17.1285 12.2234 18.151 12.243C18.9431 12.2508 19.7203 12.4539 20.4101 12.8335C21.0999 13.2132 21.6797 13.7569 22.0954 14.4139L24.5908 18.3251C24.6318 18.3944 24.6898 18.4527 24.7596 18.4947C24.8294 18.5368 24.9089 18.5613 24.9908 18.5661H24.9933C25.0752 18.5614 25.1546 18.5369 25.2244 18.4948C25.2942 18.4528 25.3522 18.3945 25.3931 18.3251L27.8887 14.4139C28.3044 13.7569 28.8841 13.2132 29.5738 12.8335C30.2635 12.4539 31.0407 12.2508 31.8328 12.243C32.8551 12.2236 33.8566 12.5246 34.6901 13.1017C35.5235 13.6787 36.1446 14.5013 36.462 15.4483C36.7794 16.3953 36.7763 17.4165 36.4531 18.3616C36.1298 19.3067 35.5036 20.1257 34.6667 20.6978L34.6695 20.7003C34.6208 20.729 34.5828 20.7721 34.561 20.8233C34.5393 20.8745 34.5349 20.9312 34.5486 20.985C34.5622 21.0389 34.5932 21.087 34.6369 21.1225C34.6807 21.1579 34.7349 21.1788 34.7917 21.1821H37.7566C38.1429 21.1821 38.5133 21.3316 38.7863 21.5977C39.0594 21.8638 39.2129 22.2247 39.2129 22.601V23.7254C39.2129 23.7905 39.2307 23.8544 39.2644 23.9106C39.2981 23.9668 39.3466 24.0132 39.4048 24.0452C39.463 24.0771 39.5289 24.0934 39.5957 24.0923C39.6625 24.0912 39.7278 24.0729 39.7849 24.0391L44.6479 21.1634C44.8622 21.0366 45.0421 20.8612 45.1722 20.6523C45.3023 20.4434 45.3788 20.207 45.3952 19.9632C45.4117 19.7193 45.3675 19.4752 45.2666 19.2515C45.1657 19.0278 45.011 18.8311 44.8155 18.678L28.0398 5.54974C27.1741 4.87208 26.0968 4.50269 24.9863 4.50269C23.8758 4.50269 22.7985 4.87208 21.9328 5.54974L5.16863 18.678C4.97307 18.831 4.81824 19.0277 4.71726 19.2514C4.61628 19.4751 4.57213 19.7192 4.58855 19.9631C4.60497 20.207 4.68147 20.4434 4.81158 20.6523C4.94168 20.8613 5.12156 21.0366 5.33596 21.1634Z" fill="#DB293D"/>
<path d="M4.20667 59.2808V48.7959C4.20667 48.0662 4.61898 47.6373 5.44362 47.5093C6.4708 47.3557 7.63542 47.2789 8.93747 47.2789C12.5832 47.2789 14.4061 48.4375 14.4061 50.7546C14.4061 51.3435 14.2253 51.894 13.8636 52.4061C13.5164 52.9182 13.039 53.2959 12.4313 53.5391C13.2704 53.7695 13.9287 54.16 14.4061 54.7105C14.8835 55.2482 15.1222 55.8947 15.1222 56.65C15.1222 59.364 13.1185 60.7211 9.11108 60.7211C7.67882 60.7211 6.4491 60.6507 5.42192 60.5098C4.61175 60.4074 4.20667 59.9978 4.20667 59.2808ZM9.19788 54.7105H6.70227V58.7047C7.3967 58.7816 8.23581 58.82 9.21959 58.82C10.2902 58.82 11.0931 58.6599 11.6284 58.3399C12.1781 58.0198 12.453 57.4885 12.453 56.746C12.453 55.389 11.368 54.7105 9.19788 54.7105ZM8.69876 49.1992C8.0622 49.1992 7.3967 49.2312 6.70227 49.2952V52.9822H8.91577C10.7965 52.9822 11.7369 52.3165 11.7369 50.9851C11.7369 49.7945 10.7242 49.1992 8.69876 49.1992Z" fill="#DB293D"/>
<path d="M16.8644 54C16.8644 52.0157 17.4793 50.3834 18.709 49.1032C19.9532 47.823 21.711 47.1829 23.9823 47.1829C26.2537 47.1829 28.0115 47.823 29.2557 49.1032C30.4999 50.3834 31.1219 52.0157 31.1219 54C31.1219 55.9971 30.4999 57.6358 29.2557 58.916C28.0115 60.1834 26.2537 60.8171 23.9823 60.8171C21.711 60.8171 19.9532 60.1834 18.709 58.916C17.4793 57.6358 16.8644 55.9971 16.8644 54ZM20.7272 50.5818C19.9749 51.4652 19.5987 52.6045 19.5987 54C19.5987 55.3954 19.9749 56.5412 20.7272 57.4373C21.494 58.3207 22.579 58.7624 23.9823 58.7624C25.4001 58.7624 26.4852 58.3207 27.2375 57.4373C28.0042 56.5412 28.3876 55.3954 28.3876 54C28.3876 52.6045 28.0042 51.4652 27.2375 50.5818C26.4852 49.6857 25.4001 49.2376 23.9823 49.2376C22.579 49.2376 21.494 49.6857 20.7272 50.5818Z" fill="#DB293D"/>
<path d="M43.4279 56.5348V48.5655C43.4279 47.7718 43.8185 47.3749 44.5998 47.3749C45.3955 47.3749 45.7933 47.7718 45.7933 48.5655V59.4537C45.7933 59.7993 45.6776 60.081 45.4461 60.2986C45.2291 60.5162 44.9325 60.6251 44.5564 60.6251C44.1223 60.6251 43.7317 60.433 43.3845 60.049L36.1364 51.542V59.4537C36.1364 60.2346 35.7385 60.6251 34.9428 60.6251C34.1616 60.6251 33.771 60.2346 33.771 59.4537V48.5847C33.771 47.7782 34.1761 47.3749 34.9862 47.3749C35.4926 47.3749 35.9194 47.5861 36.2666 48.0086L43.4279 56.5348Z" fill="#DB293D"/>
<path fill-rule="evenodd" clip-rule="evenodd" d="M5.40919 47.329C6.45015 47.1733 7.6266 47.096 8.93748 47.096C10.7789 47.096 12.1971 47.3876 13.1595 47.9993C14.1346 48.619 14.6128 49.5484 14.6128 50.7547C14.6128 51.3782 14.4209 51.9617 14.0399 52.5017C13.7553 52.9209 13.387 53.2565 12.9366 53.5067C13.6055 53.7539 14.1518 54.1172 14.5694 54.5983C15.0779 55.1715 15.3289 55.8587 15.3289 56.65C15.3289 58.0503 14.8092 59.1279 13.7451 59.8486C12.6914 60.5621 11.1354 60.904 9.11109 60.904C7.6724 60.904 6.4319 60.8333 5.39141 60.6907C4.95433 60.6353 4.59925 60.4933 4.35495 60.2462C4.11017 59.9987 4 59.6693 4 59.2809V48.7959C4 48.4008 4.11211 48.0648 4.3585 47.8085C4.60456 47.5526 4.96329 47.3982 5.40792 47.3292L5.40919 47.329ZM5.42193 60.5099C6.44911 60.6507 7.67883 60.7211 9.11109 60.7211C13.1185 60.7211 15.1223 59.3641 15.1223 56.65C15.1223 55.8947 14.8835 55.2482 14.4061 54.7105C13.9825 54.222 13.4164 53.8595 12.7079 53.6231C12.618 53.5931 12.5258 53.5651 12.4313 53.5391C12.5208 53.5033 12.6075 53.4646 12.6913 53.4229C13.1767 53.1817 13.5675 52.8428 13.8636 52.4061C14.2253 51.8941 14.4061 51.3436 14.4061 50.7547C14.4061 48.4375 12.5832 47.2789 8.93748 47.2789C7.63543 47.2789 6.47081 47.3557 5.44363 47.5093C4.61899 47.6374 4.20668 48.0662 4.20668 48.7959V59.2809C4.20668 59.9978 4.61176 60.4074 5.42193 60.5099ZM11.5148 58.1871C11.9905 57.9102 12.2464 57.4461 12.2464 56.746C12.2464 56.1164 11.9986 55.6681 11.52 55.3688C11.0282 55.0612 10.2649 54.8934 9.19789 54.8934H6.90896V58.5421C7.55626 58.6052 8.32607 58.6371 9.2196 58.6371C10.2734 58.6371 11.0274 58.4785 11.5127 58.1884L11.5148 58.1871ZM6.70229 58.7048V54.7105H9.19789C11.368 54.7105 12.453 55.389 12.453 56.746C12.453 57.4886 12.1782 58.0199 11.6284 58.3399C11.0931 58.66 10.2902 58.82 9.2196 58.82C8.23582 58.82 7.39672 58.7816 6.70229 58.7048ZM6.90896 49.4608V52.7993H8.91578C9.83408 52.7993 10.4845 52.636 10.9025 52.3401C11.3117 52.0505 11.5302 51.6105 11.5302 50.9851C11.5302 50.4434 11.3048 50.0577 10.863 49.798C10.4063 49.5296 9.69514 49.3821 8.69877 49.3821C8.12667 49.3821 7.53009 49.4083 6.90896 49.4608ZM8.91578 52.9822C10.7965 52.9822 11.7369 52.3165 11.7369 50.9851C11.7369 49.7945 10.7242 49.1992 8.69877 49.1992C8.06221 49.1992 7.39672 49.2312 6.70229 49.2952V52.9822H8.91578ZM18.5515 48.9848L18.5523 48.9839C19.8433 47.6556 21.6634 47 23.9823 47C26.3013 47 28.1214 47.6556 29.4124 48.984C30.6943 50.303 31.3286 51.98 31.3286 54C31.3286 56.0325 30.6945 57.716 29.4124 59.0353C28.1212 60.3505 26.3006 61 23.9823 61C21.6641 61 19.8442 60.3512 18.553 59.0359L18.5515 59.0345C17.2843 57.7152 16.6578 56.0319 16.6578 54C16.6578 51.9805 17.2845 50.3038 18.5515 48.9848ZM27.0716 50.6909C26.3635 49.8474 25.3441 49.4205 23.9823 49.4205C22.6361 49.4205 21.6155 49.8469 20.8923 50.6919C20.1733 51.5361 19.8054 52.6338 19.8054 54C19.8054 55.3655 20.173 56.4699 20.8922 57.3272C21.6149 58.159 22.6354 58.5795 23.9823 58.5795C25.3452 58.5795 26.3648 58.1582 27.0724 57.3273C27.806 56.4699 28.181 55.3654 28.181 54C28.181 52.6345 27.8062 51.5373 27.0736 50.6932L27.0716 50.6909ZM20.7272 50.5818C19.9749 51.4652 19.5988 52.6046 19.5988 54C19.5988 55.3954 19.9749 56.5412 20.7272 57.4374C21.494 58.3207 22.579 58.7624 23.9823 58.7624C25.4001 58.7624 26.4852 58.3207 27.2375 57.4374C28.0043 56.5412 28.3876 55.3954 28.3876 54C28.3876 52.6046 28.0043 51.4652 27.2375 50.5818C26.4852 49.6857 25.4001 49.2376 23.9823 49.2376C22.579 49.2376 21.494 49.6857 20.7272 50.5818ZM43.2195 60.1591L36.3431 52.0884V59.4537C36.3431 59.8679 36.238 60.2128 35.9915 60.4547C35.7413 60.7002 35.3784 60.808 34.9429 60.808C34.5134 60.808 34.1555 60.6996 33.9092 60.4535C33.6672 60.2115 33.5643 59.8672 33.5643 59.4537V48.5847C33.5643 48.1582 33.6709 47.8042 33.9203 47.5559C34.1739 47.3034 34.5426 47.192 34.9863 47.192C35.57 47.192 36.0545 47.4399 36.4331 47.9003C36.4333 47.9005 36.4335 47.9008 36.4338 47.9011L43.2212 55.9822V48.5655C43.2212 48.1462 43.3238 47.7975 43.565 47.5525C43.811 47.3025 44.1693 47.192 44.5998 47.192C45.0363 47.192 45.3996 47.3019 45.6495 47.5512C45.8953 47.7963 46 48.1455 46 48.5655V59.4537C46 59.837 45.8705 60.1653 45.5989 60.4218C45.3369 60.6833 44.981 60.808 44.5564 60.808C44.0426 60.808 43.5976 60.5774 43.2231 60.1632L43.2195 60.1591ZM45.4461 60.2986C45.6776 60.081 45.7933 59.7993 45.7933 59.4537V48.5655C45.7933 47.7718 45.3955 47.3749 44.5998 47.3749C43.8185 47.3749 43.4279 47.7718 43.4279 48.5655V56.5348L36.2666 48.0086C35.9194 47.5862 35.4926 47.3749 34.9863 47.3749C34.1761 47.3749 33.771 47.7782 33.771 48.5847V59.4537C33.771 60.2346 34.1616 60.6251 34.9429 60.6251C35.7386 60.6251 36.1364 60.2346 36.1364 59.4537V51.542L43.3845 60.049C43.7317 60.433 44.1224 60.6251 44.5564 60.6251C44.9325 60.6251 45.2291 60.5163 45.4461 60.2986ZM18.709 49.1032C17.4793 50.3834 16.8644 52.0157 16.8644 54C16.8644 55.9971 17.4793 57.6358 18.709 58.916C19.9532 60.1834 21.711 60.8171 23.9823 60.8171C26.2537 60.8171 28.0115 60.1834 29.2557 58.916C30.4999 57.6358 31.122 55.9971 31.122 54C31.122 52.0157 30.4999 50.3834 29.2557 49.1032C28.0115 47.823 26.2537 47.1829 23.9823 47.1829C21.711 47.1829 19.9532 47.823 18.709 49.1032Z" fill="#DB293D"/>
<path d="M4.17859 76.615V65.8776C4.17859 65.1384 4.5286 64.691 5.22862 64.5354C5.96614 64.3669 6.90367 64.2826 8.04121 64.2826C11.2788 64.2826 12.8976 65.6312 12.8976 68.3285C12.8976 69.2492 12.6851 70.0273 12.2601 70.6627C11.8351 71.2982 11.2601 71.7455 10.535 72.0049L12.9164 75.7591C13.1414 76.1092 13.2351 76.4658 13.1976 76.8289C13.1601 77.1791 12.9976 77.4449 12.7101 77.6265C12.0476 78.0155 11.4788 77.8015 11.0038 76.9846L8.34122 72.4328C8.17871 72.4588 7.90995 72.4717 7.53494 72.4717C7.13493 72.4717 6.76617 72.4458 6.42866 72.3939V76.615C6.42866 76.9651 6.32866 77.2504 6.12865 77.4708C5.92864 77.6913 5.65363 77.8015 5.30362 77.8015C4.94111 77.8015 4.65985 77.6913 4.45985 77.4708C4.27234 77.2504 4.17859 76.9651 4.17859 76.615ZM7.7037 70.7211C8.66623 70.7211 9.37875 70.546 9.84126 70.1959C10.3038 69.8328 10.535 69.2557 10.535 68.4647C10.535 67.0642 9.64126 66.3639 7.8537 66.3639C7.52869 66.3639 7.05368 66.4028 6.42866 66.4806V70.6433C6.81617 70.6952 7.24118 70.7211 7.7037 70.7211Z" fill="#DB293D"/>
<path d="M23.2009 76.8873L22.1509 74.0084H17.332L16.3569 76.7511C16.0444 77.6848 15.5319 78.0025 14.8194 77.7043C14.2694 77.4579 14.1444 76.9262 14.4444 76.1092L18.6633 65.1384C18.9008 64.503 19.282 64.1853 19.8071 64.1853C20.3071 64.1853 20.6696 64.4641 20.8946 65.0217L25.2447 76.0898C25.3822 76.3751 25.4072 76.6863 25.3197 77.0235C25.2447 77.3606 25.051 77.5876 24.7385 77.7043C24.3884 77.8339 24.0759 77.8275 23.8009 77.6848C23.5384 77.5292 23.3384 77.2634 23.2009 76.8873ZM19.6945 67.2781L17.932 72.18H21.5134L19.6945 67.2781Z" fill="#DB293D"/>
<path d="M25.6152 64.3798H34.503C34.8405 64.3798 35.103 64.4706 35.2905 64.6521C35.4905 64.8337 35.5905 65.0866 35.5905 65.4108C35.5905 65.722 35.4905 65.9749 35.2905 66.1694C35.103 66.3639 34.8405 66.4612 34.503 66.4612H31.1841V76.615C31.1841 76.9651 31.0841 77.2504 30.8841 77.4708C30.6966 77.6913 30.4216 77.8015 30.0591 77.8015C29.6966 77.8015 29.4153 77.6913 29.2153 77.4708C29.0278 77.2504 28.934 76.9651 28.934 76.615V66.4612H25.6152C25.2902 66.4612 25.0277 66.3639 24.8277 66.1694C24.6402 65.9749 24.5464 65.722 24.5464 65.4108C24.5464 65.0866 24.6402 64.8337 24.8277 64.6521C25.0277 64.4706 25.2902 64.3798 25.6152 64.3798Z" fill="#DB293D"/>
<path d="M37.0837 76.5955V65.5858C37.0837 65.2357 37.1837 64.9504 37.3837 64.73C37.5837 64.4965 37.8649 64.3798 38.2274 64.3798H44.5651C44.8902 64.3798 45.1464 64.4771 45.3339 64.6716C45.5339 64.8531 45.6339 65.106 45.6339 65.4302C45.6339 65.7414 45.5339 65.9943 45.3339 66.1888C45.1464 66.3704 44.8902 66.4612 44.5651 66.4612H39.3337V69.8652H43.5151C43.8526 69.8652 44.1151 69.956 44.3026 70.1375C44.5026 70.3191 44.6026 70.572 44.6026 70.8962C44.6026 71.2074 44.5026 71.4603 44.3026 71.6548C44.1151 71.8493 43.8526 71.9465 43.5151 71.9465H39.3337V75.7202H44.7527C45.0777 75.7202 45.3339 75.8174 45.5214 76.012C45.7214 76.1935 45.8214 76.4464 45.8214 76.7706C45.8214 77.0818 45.7214 77.3347 45.5214 77.5292C45.3339 77.7107 45.0777 77.8015 44.7527 77.8015H38.2462C37.8837 77.8015 37.5962 77.6913 37.3837 77.4708C37.1837 77.2374 37.0837 76.9456 37.0837 76.5955Z" fill="#DB293D"/>
<path fill-rule="evenodd" clip-rule="evenodd" d="M13.3751 76.8493C13.3315 77.2559 13.1382 77.5729 12.8029 77.7847L12.7981 77.7877C12.4341 78.0014 12.0714 78.0619 11.7257 77.9319C11.3875 77.8046 11.0992 77.5071 10.8511 77.0806C10.851 77.0804 10.8512 77.0807 10.8511 77.0806L8.24836 72.6312C8.07389 72.6488 7.83462 72.657 7.53493 72.657C7.20629 72.657 6.89698 72.6398 6.60722 72.6051V76.6149C6.60722 77.0043 6.49473 77.3376 6.25868 77.5978C6.01828 77.8627 5.69225 77.9867 5.30361 77.9867C4.90461 77.9867 4.57139 77.8641 4.3298 77.5978L4.32586 77.5934C4.10426 77.3329 4 77.0011 4 76.6149V65.8776C4 65.4777 4.09504 65.136 4.30243 64.8709C4.50965 64.606 4.81274 64.4385 5.19069 64.3544C5.94537 64.1819 6.89679 64.0973 8.0412 64.0973C9.6792 64.0973 10.9408 64.4376 11.7953 65.1496C12.6573 65.8677 13.0762 66.9392 13.0762 68.3285C13.0762 69.2796 12.8563 70.0963 12.4068 70.7683C12.0023 71.3731 11.4675 71.8163 10.807 72.0966L13.0649 75.6563C13.065 75.6564 13.0648 75.6561 13.0649 75.6563C13.3092 76.0365 13.4177 76.4369 13.3751 76.8493ZM10.535 72.0049C10.5933 71.984 10.6505 71.962 10.7068 71.9387C11.3515 71.6724 11.8692 71.2471 12.2601 70.6627C12.6851 70.0273 12.8976 69.2492 12.8976 68.3285C12.8976 65.6312 11.2788 64.2825 8.0412 64.2825C6.90366 64.2825 5.96613 64.3668 5.22861 64.5354C4.52859 64.691 4.17858 65.1384 4.17858 65.8776V76.6149C4.17858 76.9651 4.27233 77.2503 4.45984 77.4708C4.65984 77.6912 4.9411 77.8015 5.30361 77.8015C5.65362 77.8015 5.92863 77.6912 6.12864 77.4708C6.32864 77.2503 6.42865 76.9651 6.42865 76.6149V72.3939C6.48723 72.4029 6.54676 72.4111 6.60722 72.4186C6.89512 72.454 7.20435 72.4717 7.53493 72.4717C7.90994 72.4717 8.1787 72.4587 8.34121 72.4328L11.0038 76.9845C11.4788 77.8015 12.0476 78.0154 12.7101 77.6264C12.9976 77.4449 13.1601 77.179 13.1976 76.8289C13.2351 76.4658 13.1414 76.1092 12.9163 75.759L10.535 72.0049ZM9.73475 70.0471C9.3173 70.3625 8.65073 70.5358 7.70369 70.5358C7.30915 70.5358 6.94375 70.5166 6.60722 70.4787V66.6454C7.15222 66.5807 7.56662 66.5491 7.85369 66.5491C8.7301 66.5491 9.35479 66.7217 9.75707 67.0369C10.1499 67.3447 10.3564 67.8091 10.3564 68.4646C10.3564 69.2167 10.1385 69.7294 9.73475 70.0471ZM6.42865 66.4806C7.05367 66.4028 7.52868 66.3639 7.85369 66.3639C9.64125 66.3639 10.535 67.0641 10.535 68.4646C10.535 69.2557 10.3038 69.8327 9.84125 70.1958C9.37874 70.546 8.66622 70.721 7.70369 70.721C7.24117 70.721 6.81616 70.6951 6.42865 70.6432V66.4806ZM23.0339 76.9528L22.0275 74.1936H17.4564L16.5251 76.8136C16.3628 77.2976 16.1377 77.6578 15.8298 77.8487C15.5122 78.0455 15.1444 78.04 14.7526 77.876L14.7486 77.8743C14.4301 77.7317 14.2173 77.495 14.1396 77.1646C14.0648 76.8464 14.1217 76.4676 14.2775 76.0432L14.2785 76.0405L18.4968 65.0714C18.4969 65.0711 18.497 65.0708 18.4971 65.0705C18.6234 64.7329 18.7936 64.464 19.0155 64.2791C19.2403 64.0918 19.5071 64 19.807 64C20.091 64 20.3449 64.0799 20.5603 64.2455C20.7738 64.4098 20.9379 64.6494 21.0593 64.9501L21.0599 64.9517L25.4076 76.0134C25.5633 76.3405 25.5891 76.6955 25.493 77.0683C25.4038 77.4648 25.1678 77.7407 24.7989 77.8785C24.4134 78.0214 24.0485 78.0203 23.7211 77.8505L23.7122 77.8459C23.4046 77.6635 23.1818 77.3575 23.0339 76.9528ZM25.3197 77.0234C25.4072 76.6862 25.3822 76.375 25.2447 76.0897L20.8946 65.0217C20.6696 64.4641 20.3071 64.1853 19.807 64.1853C19.282 64.1853 18.9008 64.503 18.6633 65.1384L14.4444 76.1092C14.1444 76.9261 14.2694 77.4578 14.8194 77.7042C15.5319 78.0025 16.0444 77.6848 16.3569 76.7511L17.332 74.0084H22.1509L23.2009 76.8872C23.3384 77.2633 23.5384 77.5292 23.8009 77.6848C24.0759 77.8274 24.3884 77.8339 24.7384 77.7042C25.051 77.5875 25.2447 77.3606 25.3197 77.0234ZM17.932 72.1799H21.5133L19.6945 67.2781L17.932 72.1799ZM19.6972 67.8009L18.1892 71.9947H21.2533L19.6972 67.8009ZM29.0814 77.5934C28.8598 77.3328 28.7555 77.0011 28.7555 76.6149V66.6464H25.6152C25.2538 66.6464 24.9446 66.537 24.7055 66.3045L24.7013 66.3004C24.4758 66.0665 24.3678 65.764 24.3678 65.4107C24.3678 65.0472 24.4744 64.7407 24.7058 64.5167L24.71 64.5126C24.9494 64.2953 25.257 64.1945 25.6152 64.1945H34.503C34.8699 64.1945 35.1805 64.2934 35.4102 64.5147C35.6544 64.7375 35.7691 65.0445 35.7691 65.4107C35.7691 65.7667 35.6529 66.0696 35.4147 66.3024C35.1854 66.539 34.8732 66.6464 34.503 66.6464H31.3627V76.6149C31.3627 77.0032 31.2508 77.3357 31.0161 77.5956C30.7858 77.8649 30.4564 77.9867 30.0591 77.9867C29.6601 77.9867 29.3268 77.8641 29.0853 77.5978L29.0814 77.5934ZM30.8841 77.4708C31.0841 77.2503 31.1841 76.9651 31.1841 76.6149V66.4611H34.503C34.8405 66.4611 35.103 66.3639 35.2905 66.1693C35.4905 65.9748 35.5905 65.7219 35.5905 65.4107C35.5905 65.0865 35.4905 64.8336 35.2905 64.6521C35.103 64.4705 34.8405 64.3798 34.503 64.3798H25.6152C25.2902 64.3798 25.0277 64.4705 24.8277 64.6521C24.6401 64.8336 24.5464 65.0865 24.5464 65.4107C24.5464 65.7219 24.6401 65.9748 24.8277 66.1693C25.0277 66.3639 25.2902 66.4611 25.6152 66.4611H28.934V76.6149C28.934 76.9651 29.0278 77.2503 29.2153 77.4708C29.4153 77.6912 29.6966 77.8015 30.0591 77.8015C30.4216 77.8015 30.6966 77.6912 30.8841 77.4708ZM45.6433 77.6646C45.4145 77.8861 45.1103 77.9867 44.7526 77.9867H38.2462C37.8468 77.9867 37.5101 77.864 37.2574 77.6018L37.25 77.5941C37.0173 77.3226 36.9051 76.9851 36.9051 76.5955V65.5858C36.9051 65.1974 37.017 64.8648 37.2518 64.6049C37.4925 64.3252 37.8262 64.1945 38.2274 64.1945H44.5651C44.9239 64.1945 45.2282 64.3024 45.456 64.5362C45.6986 64.7589 45.8125 65.0651 45.8125 65.4302C45.8125 65.7872 45.6957 66.0909 45.456 66.3239C45.2273 66.5454 44.9228 66.6464 44.5651 66.6464H39.5123V69.6799H43.5151C43.882 69.6799 44.1926 69.7788 44.4223 70C44.6666 70.2228 44.7812 70.5299 44.7812 70.8961C44.7812 71.2521 44.6651 71.555 44.4269 71.7878C44.1976 72.0244 43.8853 72.1318 43.5151 72.1318H39.5123V75.5349H44.7526C45.1114 75.5349 45.4157 75.6428 45.6435 75.8766C45.8861 76.0993 46 76.4055 46 76.7705C46 77.1276 45.8829 77.4315 45.6433 77.6646ZM45.5214 76.0119C45.3339 75.8174 45.0776 75.7201 44.7526 75.7201H39.3337V71.9465H43.5151C43.8526 71.9465 44.1151 71.8492 44.3026 71.6547C44.5026 71.4602 44.6026 71.2073 44.6026 70.8961C44.6026 70.5719 44.5026 70.319 44.3026 70.1375C44.1151 69.9559 43.8526 69.8652 43.5151 69.8652H39.3337V66.4611H44.5651C44.8901 66.4611 45.1464 66.3703 45.3339 66.1888C45.5339 65.9943 45.6339 65.7414 45.6339 65.4302C45.6339 65.106 45.5339 64.8531 45.3339 64.6715C45.1464 64.477 44.8901 64.3798 44.5651 64.3798H38.2274C37.8649 64.3798 37.5837 64.4965 37.3837 64.7299C37.1837 64.9504 37.0837 65.2356 37.0837 65.5858V76.5955C37.0837 76.9456 37.1837 77.2374 37.3837 77.4708C37.5962 77.6912 37.8837 77.8015 38.2462 77.8015H44.7526C45.0776 77.8015 45.3339 77.7107 45.5214 77.5292C45.7214 77.3346 45.8214 77.0818 45.8214 76.7705C45.8214 76.4463 45.7214 76.1935 45.5214 76.0119Z" fill="#DB293D"/>
</svg>
