<svg width="47" height="44" viewBox="0 0 47 44" fill="none" xmlns="http://www.w3.org/2000/svg">
<path d="M46.907 18.345C46.744 17.998 46.396 17.776 46.011 17.776H43.084C41.223 7.677 32.355 0 21.726 0C9.747 0 0 9.747 0 21.726C0 33.705 9.746 43.451 21.726 43.451C29.457 43.451 36.667 39.29 40.542 32.594C41.088 31.649 40.766 30.442 39.82 29.895C38.876 29.348 37.668 29.67 37.123 30.615C33.951 36.096 28.051 39.502 21.726 39.502C11.925 39.502 3.95 31.528 3.95 21.728C3.95 11.926 11.925 3.952 21.726 3.952C30.168 3.952 37.241 9.873 39.043 17.777H36.139C35.754 17.777 35.407 17.999 35.243 18.346C35.08 18.693 35.133 19.102 35.379 19.397L40.317 25.322C40.505 25.547 40.782 25.677 41.076 25.677C41.369 25.677 41.647 25.546 41.834 25.322L46.772 19.397C47.018 19.101 47.07 18.692 46.907 18.345Z" fill="#DB293D"/>
<path d="M21.726 4.938C20.635 4.938 19.751 5.822 19.751 6.913V18.897C18.858 19.523 18.27 20.555 18.27 21.727C18.27 23.633 19.821 25.184 21.727 25.184C22.249 25.184 22.741 25.059 23.185 24.85L30.055 28.815C30.367 28.996 30.705 29.081 31.041 29.081C31.723 29.081 32.387 28.727 32.753 28.093C33.298 27.15 32.975 25.941 32.029 25.396L25.152 21.425C25.06 20.381 24.517 19.469 23.703 18.899V6.913C23.701 5.823 22.816 4.938 21.726 4.938ZM21.726 23.207C20.909 23.207 20.245 22.542 20.245 21.727C20.245 20.911 20.91 20.246 21.726 20.246C22.542 20.246 23.207 20.911 23.207 21.727C23.207 22.542 22.542 23.207 21.726 23.207Z" fill="#DB293D"/>
</svg>
