<svg width="74" height="74" viewBox="0 0 74 74" fill="none" xmlns="http://www.w3.org/2000/svg">
<path d="M1.23333 14.8C1.56043 14.8 1.87414 14.6701 2.10543 14.4388C2.33673 14.2075 2.46667 13.8938 2.46667 13.5667V2.46667H32.0667V21.4908C32.0667 21.8179 32.1966 22.1316 32.4279 22.3629C32.6592 22.5942 32.9729 22.7242 33.3 22.7242C33.6271 22.7242 33.9408 22.5942 34.1721 22.3629C34.4034 22.1316 34.5333 21.8179 34.5333 21.4908V1.23333C34.5333 0.906233 34.4034 0.59253 34.1721 0.361235C33.9408 0.12994 33.6271 0 33.3 0H1.23333C0.906233 0 0.59253 0.12994 0.361235 0.361235C0.12994 0.59253 0 0.906233 0 1.23333V13.5667C0 13.8938 0.12994 14.2075 0.361235 14.4388C0.59253 14.6701 0.906233 14.8 1.23333 14.8Z" fill="#DB293D"/>
<path d="M72.7667 0H40.7C40.3729 0 40.0592 0.12994 39.8279 0.361235C39.5966 0.59253 39.4667 0.906233 39.4667 1.23333V24.8899C35.7739 24.2317 31.97 25.0363 28.86 27.1333H2.46667V18.5C2.46667 18.1729 2.33673 17.8592 2.10543 17.6279C1.87414 17.3966 1.56043 17.2667 1.23333 17.2667C0.906233 17.2667 0.59253 17.3966 0.361235 17.6279C0.12994 17.8592 0 18.1729 0 18.5V28.3667C0 28.6938 0.12994 29.0075 0.361235 29.2388C0.59253 29.4701 0.906233 29.6 1.23333 29.6H26.0147C25.4582 30.2096 24.9533 30.8642 24.5051 31.5573C24.4125 31.694 24.3483 31.8478 24.3163 32.0098C24.2842 32.1717 24.2851 32.3385 24.3187 32.5001C24.3523 32.6617 24.418 32.815 24.5119 32.9507C24.6058 33.0865 24.726 33.202 24.8654 33.2905C25.0048 33.3789 25.1605 33.4385 25.3234 33.4656C25.4862 33.4928 25.6529 33.4869 25.8134 33.4485C25.9739 33.41 26.1251 33.3397 26.258 33.2418C26.3909 33.1438 26.5028 33.0202 26.587 32.8782C28.0135 30.6186 30.1357 28.8839 32.6339 27.9353C35.1321 26.9868 37.8708 26.8759 40.4375 27.6194C43.0042 28.3628 45.2598 29.9203 46.8643 32.0572C48.4688 34.194 49.3353 36.7945 49.3333 39.4667C49.3363 40.4245 49.1147 41.3698 48.6864 42.2265C48.258 43.0833 47.6348 43.8277 46.8667 44.4C46.8667 44.0729 46.7367 43.7592 46.5054 43.5279C46.2741 43.2966 45.9604 43.1667 45.6333 43.1667C45.3062 43.1667 44.9925 43.2966 44.7612 43.5279C44.5299 43.7592 44.4 44.0729 44.4 44.4C44.4 46.3626 43.6204 48.2448 42.2326 49.6326C40.8448 51.0204 38.9626 51.8 37 51.8C35.0374 51.8 33.1552 51.0204 31.7674 49.6326C30.3796 48.2448 29.6 46.3626 29.6 44.4V39.4667H32.0667C32.2697 39.4667 32.4695 39.4166 32.6485 39.3209C32.8275 39.2251 32.9801 39.0867 33.0928 38.9178L34.5333 36.7533L35.9739 38.9141C36.0861 39.0837 36.2385 39.2229 36.4176 39.3193C36.5966 39.4157 36.7967 39.4663 37 39.4667H44.4C44.4 39.7938 44.5299 40.1075 44.7612 40.3388C44.9925 40.5701 45.3062 40.7 45.6333 40.7C45.9604 40.7 46.2741 40.5701 46.5054 40.3388C46.7367 40.1075 46.8667 39.7938 46.8667 39.4667V38.2333C46.8667 37.9062 46.7367 37.5925 46.5054 37.3612C46.2741 37.1299 45.9604 37 45.6333 37H37.6598L35.5632 33.8488C35.4438 33.6893 35.289 33.5598 35.1108 33.4706C34.9327 33.3814 34.7362 33.3349 34.537 33.3349C34.3378 33.3349 34.1413 33.3814 33.9632 33.4706C33.7851 33.5598 33.6302 33.6893 33.5109 33.8488L31.4068 37H28.3667C28.0396 37 27.7259 37.1299 27.4946 37.3612C27.2633 37.5925 27.1333 37.9062 27.1333 38.2333V44.4C26.3652 43.8277 25.742 43.0833 25.3136 42.2265C24.8853 41.3698 24.6637 40.4245 24.6667 39.4667C24.6693 38.6535 24.752 37.8426 24.9133 37.0456C24.9449 36.8867 24.9449 36.7232 24.9133 36.5643C24.8816 36.4054 24.819 36.2543 24.729 36.1197C24.639 35.985 24.5233 35.8693 24.3886 35.7794C24.2539 35.6894 24.1028 35.6268 23.9439 35.5952C23.785 35.5637 23.6215 35.5637 23.4626 35.5953C23.3037 35.6269 23.1526 35.6895 23.018 35.7795C22.8833 35.8696 22.7676 35.9852 22.6777 36.1199C22.5877 36.2546 22.5251 36.4057 22.4935 36.5646C22.3018 37.5202 22.2035 38.4921 22.2 39.4667C22.1967 41.1891 22.7128 42.8724 23.6809 44.2971C24.649 45.7217 26.0241 46.8213 27.6267 47.4525C28.1952 49.189 29.2338 50.7341 30.6274 51.9159C28.7463 52.1905 26.9861 53.0074 25.5621 54.2667H8.63333C7.65203 54.2667 6.71092 54.6565 6.01704 55.3504C5.32315 56.0443 4.93333 56.9854 4.93333 57.9667V61.6667C4.93333 61.9938 5.06327 62.3075 5.29457 62.5388C5.52586 62.7701 5.83957 62.9 6.16667 62.9C6.49377 62.9 6.80747 62.7701 7.03876 62.5388C7.27006 62.3075 7.4 61.9938 7.4 61.6667V57.9667C7.4 57.6396 7.52994 57.3259 7.76124 57.0946C7.99253 56.8633 8.30623 56.7333 8.63333 56.7333H25.9C26.2271 56.7333 26.5408 56.8633 26.7721 57.0946C27.0034 57.3259 27.1333 57.6396 27.1333 57.9667V70.3C27.1333 70.6271 27.0034 70.9408 26.7721 71.1721C26.5408 71.4034 26.2271 71.5333 25.9 71.5333H8.63333C8.30623 71.5333 7.99253 71.4034 7.76124 71.1721C7.52994 70.9408 7.4 70.6271 7.4 70.3V66.6C7.4 66.2729 7.27006 65.9592 7.03876 65.7279C6.80747 65.4966 6.49377 65.3667 6.16667 65.3667C5.83957 65.3667 5.52586 65.4966 5.29457 65.7279C5.06327 65.9592 4.93333 66.2729 4.93333 66.6V70.3C4.93333 71.2813 5.32315 72.2224 6.01704 72.9163C6.71092 73.6102 7.65203 74 8.63333 74H30.8333C32.4682 73.998 34.0356 73.3477 35.1917 72.1917C36.3477 71.0356 36.998 69.4682 37 67.8333C37 67.5062 36.8701 67.1925 36.6388 66.9612C36.4075 66.7299 36.0938 66.6 35.7667 66.6H29.6V57.9667C29.5987 57.4554 29.4908 56.95 29.2831 56.4828C29.0754 56.0156 28.7725 55.5968 28.3938 55.2533C29.51 54.6071 30.7769 54.2668 32.0667 54.2667V55.5C32.0667 56.8084 32.5864 58.0632 33.5116 58.9884C34.4368 59.9136 35.6916 60.4333 37 60.4333C38.3084 60.4333 39.5632 59.9136 40.4884 58.9884C41.4136 58.0632 41.9333 56.8084 41.9333 55.5V52.9322C44.0355 51.7123 45.6158 49.762 46.3733 47.4525C47.9759 46.8213 49.351 45.7217 50.3191 44.2971C51.2872 42.8724 51.8033 41.1891 51.8 39.4667C51.7947 36.4094 50.8435 33.4287 49.077 30.9335C47.3105 28.4383 44.8151 26.5508 41.9333 25.53V2.46667H71.5333V27.1333H52.186C51.8589 27.1333 51.5452 27.2633 51.3139 27.4946C51.0826 27.7259 50.9527 28.0396 50.9527 28.3667C50.9527 28.6938 51.0826 29.0075 51.3139 29.2388C51.5452 29.4701 51.8589 29.6 52.186 29.6H72.7667C73.0938 29.6 73.4075 29.4701 73.6388 29.2388C73.8701 29.0075 74 28.6938 74 28.3667V1.23333C74 0.906233 73.8701 0.59253 73.6388 0.361235C73.4075 0.12994 73.0938 0 72.7667 0V0ZM34.3224 69.0667C34.0664 69.7876 33.5937 70.4116 32.969 70.8532C32.3443 71.2948 31.5983 71.5324 30.8333 71.5333H29.3731C29.5191 71.1384 29.5959 70.7211 29.6 70.3V69.0667H34.3224ZM39.4667 55.5C39.4667 56.1542 39.2068 56.7816 38.7442 57.2442C38.2816 57.7068 37.6542 57.9667 37 57.9667C36.3458 57.9667 35.7184 57.7068 35.2558 57.2442C34.7932 56.7816 34.5333 56.1542 34.5333 55.5V53.9423C36.1493 54.3748 37.8507 54.3748 39.4667 53.9423V55.5Z" fill="#DB293D"/>
<path d="M40.7 44.4C41.3812 44.4 41.9333 43.8478 41.9333 43.1667C41.9333 42.4855 41.3812 41.9333 40.7 41.9333C40.0189 41.9333 39.4667 42.4855 39.4667 43.1667C39.4667 43.8478 40.0189 44.4 40.7 44.4Z" fill="#DB293D"/>
<path d="M33.3 44.4C33.9812 44.4 34.5333 43.8478 34.5333 43.1667C34.5333 42.4855 33.9812 41.9333 33.3 41.9333C32.6189 41.9333 32.0667 42.4855 32.0667 43.1667C32.0667 43.8478 32.6189 44.4 33.3 44.4Z" fill="#DB293D"/>
<path d="M44.4 64.1333C44.0729 64.1333 43.7592 64.2632 43.5279 64.4945C43.2966 64.7258 43.1667 65.0395 43.1667 65.3666V72.7666C43.1667 73.0937 43.2966 73.4074 43.5279 73.6387C43.7592 73.87 44.0729 74 44.4 74C44.7271 74 45.0408 73.87 45.2721 73.6387C45.5034 73.4074 45.6333 73.0937 45.6333 72.7666V65.3666C45.6333 65.0395 45.5034 64.7258 45.2721 64.4945C45.0408 64.2632 44.7271 64.1333 44.4 64.1333Z" fill="#DB293D"/>
<path d="M46.9481 53.1801C46.6675 53.0276 46.3387 52.9898 46.0309 53.0747C45.723 53.1596 45.4601 53.3606 45.2975 53.6354C45.1348 53.9102 45.0851 54.2374 45.1588 54.5482C45.2325 54.8589 45.4238 55.1289 45.6925 55.3015C46.7978 55.9573 47.7142 56.8884 48.3523 58.004C48.9904 59.1196 49.3284 60.3815 49.3333 61.6667V72.7667C49.3333 73.0938 49.4633 73.4075 49.6946 73.6388C49.9259 73.8701 50.2396 74 50.5667 74C50.8938 74 51.2075 73.8701 51.4388 73.6388C51.6701 73.4075 51.8 73.0938 51.8 72.7667V61.6667C51.794 59.9534 51.3439 58.2708 50.4935 56.7834C49.6431 55.296 48.4215 54.0545 46.9481 53.1801V53.1801Z" fill="#DB293D"/>
<path d="M7.39999 14.8C7.39999 16.7515 7.97866 18.6591 9.06283 20.2816C10.147 21.9042 11.688 23.1688 13.4909 23.9156C15.2937 24.6624 17.2776 24.8578 19.1916 24.4771C21.1055 24.0964 22.8636 23.1567 24.2434 21.7768C25.6233 20.3969 26.563 18.6389 26.9437 16.7249C27.3245 14.811 27.1291 12.8271 26.3823 11.0242C25.6355 9.22131 24.3709 7.68035 22.7483 6.59618C21.1257 5.51202 19.2181 4.93335 17.2667 4.93335C14.6508 4.93629 12.1428 5.97675 10.2931 7.82647C8.4434 9.6762 7.40293 12.1841 7.39999 14.8ZM24.6667 14.8C24.6667 16.2636 24.2327 17.6943 23.4195 18.9112C22.6064 20.1282 21.4507 21.0766 20.0985 21.6367C18.7463 22.1968 17.2585 22.3434 15.823 22.0578C14.3875 21.7723 13.069 21.0675 12.0341 20.0326C10.9992 18.9977 10.2944 17.6791 10.0089 16.2437C9.72332 14.8082 9.86986 13.3203 10.43 11.9682C10.99 10.616 11.9385 9.46026 13.1554 8.64714C14.3724 7.83402 15.8031 7.40002 17.2667 7.40002C19.2287 7.40198 21.1097 8.18224 22.4971 9.56959C23.8844 10.9569 24.6647 12.838 24.6667 14.8Z" fill="#DB293D"/>
<path d="M20.9667 13.5666C21.6478 13.5666 22.2 13.0145 22.2 12.3333C22.2 11.6522 21.6478 11.1 20.9667 11.1C20.2855 11.1 19.7333 11.6522 19.7333 12.3333C19.7333 13.0145 20.2855 13.5666 20.9667 13.5666Z" fill="#DB293D"/>
<path d="M13.5667 13.5666C14.2478 13.5666 14.8 13.0145 14.8 12.3333C14.8 11.6522 14.2478 11.1 13.5667 11.1C12.8855 11.1 12.3333 11.6522 12.3333 12.3333C12.3333 13.0145 12.8855 13.5666 13.5667 13.5666Z" fill="#DB293D"/>
<path d="M15.672 16.3947C15.4394 16.17 15.1278 16.0457 14.8044 16.0485C14.4811 16.0513 14.1717 16.181 13.9431 16.4097C13.7144 16.6384 13.5847 16.9477 13.5819 17.2711C13.5791 17.5945 13.7034 17.906 13.928 18.1386C14.8139 19.0232 16.0147 19.5201 17.2667 19.5201C18.5186 19.5201 19.7194 19.0232 20.6053 18.1386C20.83 17.906 20.9543 17.5945 20.9515 17.2711C20.9486 16.9477 20.8189 16.6384 20.5903 16.4097C20.3616 16.181 20.0523 16.0513 19.7289 16.0485C19.4055 16.0457 19.094 16.17 18.8614 16.3947C18.438 16.8169 17.8645 17.054 17.2667 17.054C16.6688 17.054 16.0953 16.8169 15.672 16.3947Z" fill="#DB293D"/>
<path d="M61.4286 6.11976C59.3439 4.99225 56.9229 4.65285 54.6085 5.16362C52.2941 5.6744 50.2409 7.00122 48.8243 8.90144C47.4078 10.8017 46.7226 13.1483 46.894 15.5122C47.0655 17.8761 48.0821 20.0993 49.7581 21.7752C51.434 23.4512 53.6572 24.4678 56.0211 24.6393C58.385 24.8107 60.7316 24.1255 62.6318 22.709C64.5321 21.2924 65.8589 19.2392 66.3697 16.9248C66.8804 14.6104 66.541 12.1894 65.4135 10.1047C65.2577 9.81698 64.9939 9.60299 64.6803 9.50978C64.3666 9.41657 64.0288 9.45177 63.7411 9.60763C63.4534 9.76349 63.2395 10.0273 63.1462 10.3409C63.053 10.6545 63.0882 10.9923 63.2441 11.28C64.0893 12.8437 64.3435 14.6593 63.9602 16.3949C63.5769 18.1305 62.5816 19.6702 61.1564 20.7323C59.7313 21.7945 57.9714 22.3082 56.1986 22.1796C54.4258 22.0509 52.7586 21.2884 51.5017 20.0316C50.2449 18.7747 49.4824 17.1075 49.3537 15.3347C49.2251 13.5619 49.7388 11.802 50.801 10.3769C51.8631 8.95168 53.4028 7.95644 55.1384 7.57311C56.874 7.18977 58.6896 7.44396 60.2533 8.2892C60.5409 8.44506 60.8788 8.48026 61.1924 8.38705C61.506 8.29384 61.7698 8.07985 61.9257 7.79216C62.0815 7.50448 62.1167 7.16666 62.0235 6.85303C61.9303 6.53939 61.7163 6.27563 61.4286 6.11976V6.11976Z" fill="#DB293D"/>
<path d="M60.4333 13.5666C61.1145 13.5666 61.6666 13.0145 61.6666 12.3333C61.6666 11.6522 61.1145 11.1 60.4333 11.1C59.7522 11.1 59.2 11.6522 59.2 12.3333C59.2 13.0145 59.7522 13.5666 60.4333 13.5666Z" fill="#DB293D"/>
<path d="M53.0334 13.5666C53.7145 13.5666 54.2667 13.0145 54.2667 12.3333C54.2667 11.6522 53.7145 11.1 53.0334 11.1C52.3522 11.1 51.8 11.6522 51.8 12.3333C51.8 13.0145 52.3522 13.5666 53.0334 13.5666Z" fill="#DB293D"/>
<path d="M55.1386 19.1611C55.5679 18.7503 56.1391 18.521 56.7333 18.521C57.3275 18.521 57.8987 18.7503 58.328 19.1611C58.5606 19.3858 58.8722 19.5101 59.1955 19.5073C59.5189 19.5045 59.8282 19.3748 60.0569 19.1461C60.2856 18.9174 60.4153 18.6081 60.4181 18.2847C60.4209 17.9614 60.2966 17.6498 60.0719 17.4172C59.1727 16.5582 57.9769 16.0789 56.7333 16.0789C55.4897 16.0789 54.2939 16.5582 53.3947 17.4172C53.17 17.6498 53.0457 17.9614 53.0485 18.2847C53.0513 18.6081 53.181 18.9174 53.4097 19.1461C53.6384 19.3748 53.9477 19.5045 54.2711 19.5073C54.5945 19.5101 54.906 19.3858 55.1386 19.1611V19.1611Z" fill="#DB293D"/>
<path d="M12.3333 43.1666C12.6604 43.1666 12.9741 43.0366 13.2053 42.8053L19.372 36.6386C19.5966 36.406 19.7209 36.0945 19.7181 35.7711C19.7153 35.4477 19.5856 35.1384 19.3569 34.9097C19.1283 34.681 18.8189 34.5513 18.4956 34.5485C18.1722 34.5457 17.8606 34.67 17.628 34.8947L12.3333 40.1894L9.50531 37.3613C9.2727 37.1367 8.96115 37.0124 8.63778 37.0152C8.3144 37.018 8.00507 37.1477 7.7764 37.3764C7.54773 37.605 7.41802 37.9144 7.41521 38.2377C7.4124 38.5611 7.53671 38.8727 7.76137 39.1053L11.4614 42.8053C11.6926 43.0366 12.0063 43.1666 12.3333 43.1666V43.1666Z" fill="#DB293D"/>
<path d="M59.5614 41.5719C59.7926 41.8032 60.1063 41.933 60.4333 41.933C60.7604 41.933 61.074 41.8032 61.3053 41.5719L62.9 39.9772L64.4947 41.5719C64.7273 41.7966 65.0388 41.9209 65.3622 41.9181C65.6856 41.9153 65.9949 41.7856 66.2236 41.5569C66.4523 41.3282 66.582 41.0189 66.5848 40.6955C66.5876 40.3722 66.4633 40.0606 66.2386 39.828L64.6439 38.2333L66.2386 36.6386C66.4633 36.406 66.5876 36.0945 66.5848 35.7711C66.582 35.4477 66.4523 35.1384 66.2236 34.9097C65.9949 34.681 65.6856 34.5513 65.3622 34.5485C65.0388 34.5457 64.7273 34.67 64.4947 34.8947L62.9 36.4894L61.3053 34.8947C61.0727 34.67 60.7611 34.5457 60.4378 34.5485C60.1144 34.5513 59.8051 34.681 59.5764 34.9097C59.3477 35.1384 59.218 35.4477 59.2152 35.7711C59.2124 36.0945 59.3367 36.406 59.5614 36.6386L61.1561 38.2333L59.5614 39.828C59.3301 40.0593 59.2003 40.3729 59.2003 40.7C59.2003 41.027 59.3301 41.3407 59.5614 41.5719V41.5719Z" fill="#DB293D"/>
<path d="M20.9667 64.1334C20.9667 63.4016 20.7497 62.6862 20.3431 62.0777C19.9366 61.4693 19.3587 60.995 18.6826 60.715C18.0065 60.435 17.2626 60.3617 16.5448 60.5044C15.8271 60.6472 15.1678 60.9996 14.6504 61.5171C14.1329 62.0345 13.7805 62.6938 13.6378 63.4115C13.495 64.1292 13.5683 64.8732 13.8483 65.5493C14.1284 66.2254 14.6026 66.8032 15.2111 67.2098C15.8195 67.6163 16.5349 67.8334 17.2667 67.8334C18.248 67.8334 19.1891 67.4435 19.883 66.7496C20.5769 66.0558 20.9667 65.1147 20.9667 64.1334ZM16.0333 64.1334C16.0333 63.8894 16.1057 63.651 16.2412 63.4481C16.3767 63.2453 16.5693 63.0873 16.7947 62.9939C17.0201 62.9006 17.2681 62.8761 17.5073 62.9237C17.7465 62.9713 17.9663 63.0888 18.1388 63.2613C18.3113 63.4337 18.4287 63.6535 18.4763 63.8927C18.5239 64.132 18.4995 64.38 18.4061 64.6053C18.3128 64.8307 18.1547 65.0233 17.9519 65.1588C17.7491 65.2944 17.5106 65.3667 17.2667 65.3667C16.9396 65.3667 16.6259 65.2367 16.3946 65.0055C16.1633 64.7742 16.0333 64.4605 16.0333 64.1334Z" fill="#DB293D"/>
<path d="M72.7667 45.6333H55.5C55.1729 45.6333 54.8592 45.7632 54.6279 45.9945C54.3966 46.2258 54.2667 46.5395 54.2667 46.8666V61.6666C54.2667 61.9937 54.3966 62.3074 54.6279 62.5387C54.8592 62.77 55.1729 62.9 55.5 62.9H59.0939L58.0259 66.2226C57.9475 66.4662 57.9469 66.7282 58.0241 66.9722C58.1013 67.2162 58.2525 67.4302 58.4567 67.5844C58.661 67.7386 58.9081 67.8255 59.164 67.833C59.4198 67.8404 59.6716 67.7682 59.8845 67.6261L66.97 62.9H72.7667C73.0938 62.9 73.4075 62.77 73.6388 62.5387C73.8701 62.3074 74 61.9937 74 61.6666V46.8666C74 46.5395 73.8701 46.2258 73.6388 45.9945C73.4075 45.7632 73.0938 45.6333 72.7667 45.6333ZM71.5333 60.4333H66.6C66.3564 60.4337 66.1184 60.5057 65.9155 60.6405L61.4558 63.6141L61.9602 62.044C62.0197 61.8591 62.0346 61.6626 62.0037 61.4708C61.9729 61.279 61.8971 61.0971 61.7827 60.9401C61.6682 60.7831 61.5183 60.6554 61.3451 60.5673C61.1719 60.4792 60.9804 60.4333 60.7861 60.4333H56.7333V48.1H71.5333V60.4333Z" fill="#DB293D"/>
<path d="M60.4333 53.0333H67.8333C68.1604 53.0333 68.4741 52.9034 68.7054 52.6721C68.9367 52.4408 69.0666 52.1271 69.0666 51.8C69.0666 51.4729 68.9367 51.1592 68.7054 50.9279C68.4741 50.6966 68.1604 50.5667 67.8333 50.5667H60.4333C60.1062 50.5667 59.7925 50.6966 59.5612 50.9279C59.3299 51.1592 59.2 51.4729 59.2 51.8C59.2 52.1271 59.3299 52.4408 59.5612 52.6721C59.7925 52.9034 60.1062 53.0333 60.4333 53.0333Z" fill="#DB293D"/>
<path d="M60.4333 57.9667H67.8333C68.1604 57.9667 68.4741 57.8367 68.7054 57.6054C68.9367 57.3741 69.0666 57.0604 69.0666 56.7333C69.0666 56.4062 68.9367 56.0925 68.7054 55.8612C68.4741 55.6299 68.1604 55.5 67.8333 55.5H60.4333C60.1062 55.5 59.7925 55.6299 59.5612 55.8612C59.3299 56.0925 59.2 56.4062 59.2 56.7333C59.2 57.0604 59.3299 57.3741 59.5612 57.6054C59.7925 57.8367 60.1062 57.9667 60.4333 57.9667Z" fill="#DB293D"/>
</svg>
