<?xml version="1.0" encoding="utf-8"?>
<!-- Generator: Adobe Illustrator 21.1.0, SVG Export Plug-In . SVG Version: 6.00 Build 0)  -->
<svg version="1.1" id="Layer_1" xmlns="http://www.w3.org/2000/svg" xmlns:xlink="http://www.w3.org/1999/xlink" x="0px" y="0px"
	 viewBox="0 0 60 100" style="enable-background:new 0 0 60 100;" xml:space="preserve">
<style type="text/css">
	.st0{fill:#FFFFFF;}
	.st1{fill:#E31F24;}
	.st2{fill:#DB293D;}
</style>
<g>
	<path class="st0" d="M6.9,100c-1.8,0-3.4-0.7-4.7-1.9c-1.2-1.2-1.9-2.9-1.9-4.7v-69c0-0.9,0.2-1.7,0.6-2.5c0.4-0.8,0.9-1.5,1.6-2
		L23.9,2.2C25.6,0.8,27.8,0,30,0c2.2,0,4.4,0.8,6.1,2.2l21.5,17.6c0.7,0.6,1.2,1.2,1.6,2c0.4,0.8,0.6,1.6,0.6,2.5l0,69
		c0,1.8-0.7,3.4-1.9,4.7s-2.9,1.9-4.7,1.9H6.9z"/>
	<path class="st1" d="M21.9,18.5c-0.5,0-1.1,0.1-1.5,0.5c-0.4,0.3-0.7,0.8-0.8,1.3c-0.1,0.3,0,0.6,0,0.9c0.1,0.3,0.2,0.6,0.4,0.8
		c0.2,0.2,0.5,0.4,0.7,0.6c0.3,0.1,0.6,0.2,0.9,0.2H25c0.1,0,0.1,0,0.2-0.1c0.1,0,0.1-0.1,0.1-0.1c0-0.1,0-0.1,0-0.2
		c0-0.1,0-0.1-0.1-0.2l-1.7-2.8c-0.2-0.3-0.4-0.5-0.7-0.7C22.6,18.6,22.2,18.5,21.9,18.5z"/>
	<path class="st1" d="M36.4,19.5l-1.7,2.8c0,0.1-0.1,0.1-0.1,0.2c0,0.1,0,0.1,0,0.2c0,0.1,0.1,0.1,0.1,0.1c0.1,0,0.1,0.1,0.2,0.1
		h3.1c0.6,0,1.1-0.2,1.5-0.5c0.4-0.4,0.7-0.9,0.8-1.4c0-0.3,0-0.6-0.1-0.9c-0.1-0.3-0.2-0.6-0.5-0.8c-0.2-0.2-0.5-0.4-0.7-0.5
		c-0.3-0.1-0.6-0.2-0.9-0.2c-0.4,0-0.7,0.1-1,0.3C36.8,18.9,36.6,19.2,36.4,19.5"/>
	<path class="st2" d="M53.9,27.6l-11.5,7.2c0-0.1,0-0.2,0-0.3c0-0.9-0.2-1.8-0.7-2.6c-0.5-0.8-1.1-1.4-2-1.9
		c-0.8-0.4-1.7-0.6-2.6-0.6c-0.9,0-1.8,0.3-2.6,0.9s-1.4,1.2-1.8,2.1c-0.4,0.8-0.6,1.8-0.5,2.7c0.1,0.9,0.4,1.8,1,2.5
		c0.5,0.7,1.3,1.3,2.1,1.7L32.5,41c-0.8,0.5-1.6,0.7-2.5,0.7c-0.9,0-1.8-0.3-2.5-0.7l-2.9-1.8c0.8-0.4,1.6-1,2.1-1.7
		c0.5-0.7,0.9-1.6,0.9-2.5s-0.1-1.8-0.5-2.7c-0.4-0.8-1-1.5-1.8-2c-0.8-0.5-1.7-0.8-2.6-0.8c-0.9,0-1.8,0.2-2.6,0.6
		c-0.8,0.4-1.5,1.1-1.9,1.9c-0.5,0.8-0.7,1.7-0.7,2.6c0,0.1,0,0.2,0,0.3L6.1,27.6c-0.1-0.1-0.2-0.1-0.4-0.1c-0.1,0-0.3,0-0.4,0.1
		c-0.1,0.1-0.2,0.2-0.3,0.3C5,28,5,28.1,5,28.3v21.2c0,1.3,0.5,2.5,1.4,3.3c0.9,0.9,2.1,1.4,3.3,1.4h40.6c1.2,0,2.4-0.5,3.3-1.4
		c0.9-0.9,1.4-2.1,1.4-3.3V28.3c0-0.1,0-0.3-0.1-0.4c-0.1-0.1-0.2-0.2-0.3-0.3c-0.1-0.1-0.2-0.1-0.4-0.1
		C54.1,27.5,54,27.6,53.9,27.6L53.9,27.6z M34.8,35c-0.2,0-0.4-0.1-0.6-0.2c-0.1-0.1-0.2-0.4-0.2-0.6c0-2.1,1.7-3.3,3.3-3.3
		c0.2,0,0.4,0.1,0.6,0.2c0.1,0.2,0.2,0.4,0.2,0.6c0,0.2-0.1,0.4-0.2,0.6c-0.1,0.1-0.4,0.2-0.6,0.2c-0.6,0-1.7,0.4-1.7,1.7
		c0,0.2-0.1,0.4-0.2,0.6C35.2,34.9,35,35,34.8,35z M22.6,30.9c0.2,0,0.4,0.1,0.6,0.2c0.1,0.2,0.2,0.4,0.2,0.6c0,0.2-0.1,0.4-0.2,0.6
		c-0.1,0.1-0.4,0.2-0.6,0.2c-0.6,0-1.7,0.4-1.7,1.7c0,0.2-0.1,0.4-0.2,0.6c-0.1,0.1-0.4,0.2-0.6,0.2c-0.2,0-0.4-0.1-0.6-0.2
		c-0.1-0.2-0.2-0.4-0.2-0.6C19.3,32,20.9,30.9,22.6,30.9z"/>
	<path class="st2" d="M6.6,25.9l5.8,3.5c0.1,0,0.1,0.1,0.2,0.1c0.1,0,0.2,0,0.2-0.1c0.1,0,0.1-0.1,0.2-0.2c0-0.1,0.1-0.1,0.1-0.2
		v-1.4c0-0.5,0.2-0.9,0.5-1.2c0.3-0.3,0.8-0.5,1.2-0.5h3.5c0.1,0,0.1,0,0.2-0.1s0.1-0.1,0.1-0.2c0-0.1,0-0.1,0-0.2
		c0-0.1-0.1-0.1-0.1-0.2l0,0c-1-0.7-1.7-1.7-2.1-2.9c-0.4-1.2-0.4-2.4,0-3.6c0.4-1.2,1.1-2.2,2.1-2.9c1-0.7,2.2-1.1,3.4-1.1
		c0.9,0,1.9,0.3,2.7,0.7c0.8,0.5,1.5,1.1,2,1.9l3,4.8c0,0.1,0.1,0.2,0.2,0.2c0.1,0.1,0.2,0.1,0.3,0.1h0c0.1,0,0.2,0,0.3-0.1
		c0.1-0.1,0.2-0.1,0.2-0.2l3-4.8c0.5-0.8,1.2-1.5,2-1.9c0.8-0.5,1.7-0.7,2.7-0.7c1.2,0,2.4,0.3,3.4,1.1c1,0.7,1.7,1.7,2.1,2.9
		c0.4,1.2,0.4,2.4,0,3.6c-0.4,1.2-1.1,2.2-2.1,2.9l0,0c-0.1,0-0.1,0.1-0.1,0.2c0,0.1,0,0.1,0,0.2c0,0.1,0.1,0.1,0.1,0.2
		c0.1,0,0.1,0.1,0.2,0.1h3.5c0.5,0,0.9,0.2,1.2,0.5c0.3,0.3,0.5,0.8,0.5,1.2v1.4c0,0.1,0,0.2,0.1,0.2c0,0.1,0.1,0.1,0.2,0.2
		c0.1,0,0.1,0.1,0.2,0.1c0.1,0,0.2,0,0.2-0.1l5.8-3.5c0.3-0.2,0.5-0.4,0.6-0.6c0.2-0.3,0.2-0.5,0.3-0.8c0-0.3,0-0.6-0.2-0.9
		s-0.3-0.5-0.5-0.7L33.6,6.8c-1-0.8-2.3-1.3-3.6-1.3c-1.3,0-2.6,0.5-3.6,1.3L6.4,22.9c-0.2,0.2-0.4,0.4-0.5,0.7
		c-0.1,0.3-0.2,0.6-0.2,0.9c0,0.3,0.1,0.6,0.3,0.8C6.2,25.6,6.4,25.8,6.6,25.9z"/>
	<path class="st2" d="M28.5,75.2c1.7,0,3.4-0.5,4.8-1.5c1.4-1,2.5-2.3,3.2-3.9c0.7-1.6,0.8-3.3,0.5-5c-0.3-1.7-1.2-3.2-2.4-4.4
		c-1.2-1.2-2.7-2-4.4-2.4c-1.7-0.3-3.4-0.2-5,0.5c-1.6,0.7-2.9,1.8-3.9,3.2c-0.9,1.4-1.5,3.1-1.5,4.8c0,2.3,0.9,4.5,2.5,6.1
		C24,74.2,26.2,75.2,28.5,75.2z M28.5,61.1c1.1,0,2.1,0.3,3,0.9c0.9,0.6,1.6,1.4,2,2.4c0.4,1,0.5,2.1,0.3,3.1c-0.2,1-0.7,2-1.5,2.7
		c-0.7,0.7-1.7,1.3-2.7,1.5c-1,0.2-2.1,0.1-3.1-0.3c-1-0.4-1.8-1.1-2.4-2c-0.6-0.9-0.9-1.9-0.9-3c0-1.4,0.6-2.8,1.6-3.8
		S27.1,61.1,28.5,61.1z"/>
	<path class="st2" d="M52.8,57.8c-0.4,0-0.9,0.2-1.2,0.5c-0.3,0.3-0.5,0.7-0.5,1.2v9.5l-8.8-10.5c-0.2-0.3-0.5-0.4-0.8-0.5
		c-0.3-0.1-0.7-0.1-1,0c-0.3,0.1-0.6,0.3-0.8,0.6c-0.2,0.3-0.3,0.6-0.3,0.9v14c0,0.4,0.2,0.9,0.5,1.2c0.3,0.3,0.7,0.5,1.2,0.5
		s0.9-0.2,1.2-0.5c0.3-0.3,0.5-0.7,0.5-1.2V64l8.8,10.5c0.2,0.3,0.5,0.4,0.8,0.5c0.3,0.1,0.7,0.1,1,0s0.6-0.3,0.8-0.6
		c0.2-0.3,0.3-0.6,0.3-0.9v-14c0-0.4-0.2-0.9-0.5-1.2C53.7,58,53.3,57.8,52.8,57.8"/>
	<path class="st2" d="M11.2,57.8H7c-0.2,0-0.4,0-0.6,0.1C6.2,58,6,58.2,5.9,58.3s-0.3,0.3-0.4,0.5c-0.1,0.2-0.1,0.4-0.1,0.6v14
		c0,0.4,0.2,0.9,0.5,1.2C6.2,75,6.6,75.2,7,75.2h6.3c1.2,0,2.3-0.4,3.2-1.1c0.9-0.7,1.6-1.8,1.8-2.9c0.3-1.1,0.1-2.4-0.4-3.4
		c-0.5-1.1-1.3-1.9-2.4-2.5c0.4-0.8,0.6-1.6,0.6-2.5c0-0.9-0.3-1.7-0.7-2.5c-0.5-0.7-1.1-1.4-1.8-1.8C12.9,58,12,57.8,11.2,57.8
		L11.2,57.8z M8.7,61.1h2.5c0.5,0,0.9,0.2,1.3,0.5c0.3,0.3,0.5,0.8,0.5,1.3c0,0.5-0.2,0.9-0.5,1.3c-0.3,0.3-0.8,0.5-1.3,0.5H8.7
		V61.1z M13.4,71.9H8.7V68h4.7c0.5,0,1,0.2,1.3,0.6c0.4,0.4,0.6,0.8,0.6,1.4c0,0.5-0.2,1-0.6,1.4C14.3,71.7,13.9,71.9,13.4,71.9
		L13.4,71.9z"/>
	<path class="st2" d="M11.7,77.9H7c-0.4,0-0.9,0.2-1.2,0.5c-0.3,0.3-0.5,0.7-0.5,1.2v14c0,0.2,0,0.4,0.1,0.6
		c0.1,0.2,0.2,0.4,0.4,0.5C6,94.9,6.2,95,6.4,95.1s0.4,0.1,0.6,0.1c0.2,0,0.4,0,0.6-0.1c0.2-0.1,0.4-0.2,0.5-0.4
		c0.2-0.2,0.3-0.3,0.4-0.5c0.1-0.2,0.1-0.4,0.1-0.6v-5.2h3c1.4,0,2.7-0.6,3.7-1.5c1-1,1.5-2.3,1.5-3.7c0-1.4-0.5-2.7-1.5-3.7
		C14.4,78.4,13.1,77.9,11.7,77.9z M11.7,85h-3v-3.8h3c0.5,0,1,0.2,1.3,0.6c0.4,0.4,0.6,0.8,0.6,1.4c0,0.5-0.2,1-0.6,1.4
		C12.7,84.8,12.2,85,11.7,85z"/>
	<path class="st2" d="M29.2,90.3L29.2,90.3l-4.7-11.4c-0.1-0.3-0.3-0.6-0.6-0.7c-0.3-0.2-0.6-0.3-0.9-0.3c-0.3,0-0.6,0.1-0.9,0.3
		c-0.3,0.2-0.5,0.4-0.6,0.7l-4.7,11.4l0,0l-1.1,2.7c-0.1,0.2-0.1,0.4-0.1,0.6c0,0.2,0,0.4,0.1,0.6c0.1,0.2,0.2,0.4,0.4,0.5
		c0.2,0.2,0.3,0.3,0.5,0.4c0.2,0.1,0.4,0.1,0.6,0.1c0.2,0,0.4,0,0.6-0.1c0.2-0.1,0.4-0.2,0.5-0.4c0.2-0.2,0.3-0.3,0.4-0.5l0.7-1.6
		h7.1l0.7,1.6c0.1,0.2,0.2,0.4,0.4,0.5c0.2,0.2,0.3,0.3,0.5,0.4c0.2,0.1,0.4,0.1,0.6,0.1c0.2,0,0.4,0,0.6-0.1s0.4-0.2,0.5-0.4
		c0.2-0.2,0.3-0.3,0.4-0.5c0.1-0.2,0.1-0.4,0.1-0.6c0-0.2,0-0.4-0.1-0.6L29.2,90.3z M20.8,89.3l2.2-5.4l2.2,5.4H20.8z"/>
	<path class="st2" d="M37.4,84.8c-2.2-0.6-2.2-1.4-2.2-1.8c0-0.4,0.1-0.7,0.3-1c0.2-0.3,0.5-0.5,0.8-0.7c0.3-0.1,0.7-0.2,1-0.1
		c0.3,0.1,0.7,0.2,0.9,0.5c0.3,0.3,0.7,0.5,1.2,0.5c0.4,0,0.9-0.2,1.2-0.5c0.3-0.3,0.5-0.7,0.5-1.2c0-0.4-0.2-0.9-0.5-1.2
		c-0.7-0.7-1.6-1.2-2.6-1.4c-1-0.2-2-0.1-2.9,0.3c-0.9,0.4-1.7,1-2.3,1.9C32.2,81,31.9,82,31.9,83c0,1.7,0.8,4,4.7,5
		c2.3,0.6,2.3,1.4,2.3,2c0,0.5-0.2,1-0.6,1.4c-0.4,0.4-0.8,0.6-1.4,0.6c-0.7,0-1.7-0.6-2-1.4c-0.1-0.4-0.4-0.8-0.8-1
		c-0.4-0.2-0.8-0.3-1.3-0.2c-0.4,0.1-0.8,0.4-1,0.8c-0.2,0.4-0.3,0.8-0.2,1.3c0.7,2.5,3.2,3.9,5.2,3.9c1.4,0,2.7-0.6,3.7-1.5
		c1-1,1.5-2.3,1.5-3.7C42.1,86.1,38.5,85.1,37.4,84.8"/>
	<path class="st2" d="M49.7,84.8c-2.2-0.6-2.2-1.4-2.2-1.8c0-0.4,0.1-0.7,0.3-1s0.5-0.5,0.8-0.7c0.3-0.1,0.7-0.2,1-0.1
		c0.3,0.1,0.7,0.2,0.9,0.5c0.3,0.3,0.7,0.5,1.2,0.5c0.4,0,0.9-0.2,1.2-0.5c0.3-0.3,0.5-0.7,0.5-1.2c0-0.4-0.2-0.9-0.5-1.2
		c-0.7-0.7-1.6-1.2-2.6-1.4c-1-0.2-2-0.1-2.9,0.3c-0.9,0.4-1.7,1-2.3,1.9C44.5,81,44.2,82,44.2,83c0,1.7,0.8,4,4.7,5
		c2.3,0.6,2.3,1.4,2.3,2c0,0.5-0.2,1-0.6,1.4c-0.4,0.4-0.8,0.6-1.4,0.6c-0.7,0-1.7-0.6-2-1.4c-0.1-0.2-0.2-0.4-0.3-0.6
		c-0.1-0.2-0.3-0.3-0.5-0.4c-0.2-0.1-0.4-0.2-0.6-0.2c-0.2,0-0.4,0-0.6,0c-0.2,0.1-0.4,0.2-0.6,0.3c-0.2,0.1-0.3,0.3-0.4,0.5
		c-0.1,0.2-0.2,0.4-0.2,0.6c0,0.2,0,0.4,0.1,0.6c0.7,2.5,3.2,3.9,5.2,3.9c1.4,0,2.7-0.6,3.7-1.5c1-1,1.5-2.3,1.5-3.7
		C54.5,86.1,50.9,85.1,49.7,84.8z"/>
</g>
</svg>
