<?xml version="1.0" encoding="utf-8"?>
<!-- Generator: Adobe Illustrator 23.1.0, SVG Export Plug-In . SVG Version: 6.00 Build 0)  -->
<svg version="1.1" id="Layer_1" xmlns="http://www.w3.org/2000/svg" xmlns:xlink="http://www.w3.org/1999/xlink" x="0px" y="0px"
	 viewBox="0 0 22 23" style="enable-background:new 0 0 22 23;" xml:space="preserve">
<style type="text/css">
	.st0{fill:#DB293D;}
	.st1{fill-rule:evenodd;clip-rule:evenodd;fill:#F2F2F2;}
</style>
<path class="st0" d="M8.3,0c4.6,0,8.3,3.6,8.3,8s-3.7,8-8.3,8S0,12.4,0,8S3.7,0,8.3,0z"/>
<path class="st1" d="M11.5,17c3.6,0,6.3-2.8,6.3-6c0-3.2-2.8-6-6.3-6c-3.6,0-6.3,2.8-6.3,6C5.1,14.2,7.9,17,11.5,17z M11.5,19
	c4.6,0,8.3-3.6,8.3-8c0-4.4-3.7-8-8.3-8c-4.6,0-8.3,3.6-8.3,8C3.1,15.4,6.9,19,11.5,19z"/>
</svg>
