<svg width="21" height="24" viewBox="0 0 21 24" fill="none" xmlns="http://www.w3.org/2000/svg">
<path fill-rule="evenodd" clip-rule="evenodd" d="M7.13227 23.5604C8.7548 23.7407 10.3323 23.8308 11.8647 23.8308C17.5886 23.8308 20.4506 21.352 20.4506 16.3942C20.4506 13.9604 19.6844 12.2365 18.152 11.2224C16.6196 10.1858 14.659 9.66747 12.2703 9.66747C11.0534 9.66747 9.67874 9.78014 8.14635 10.0055V2.16324H18.0168C18.2872 2.16324 18.5013 2.08437 18.659 1.92662C18.8393 1.74634 18.9294 1.52099 18.9294 1.25057C18.9294 1.00268 18.8393 0.788596 18.659 0.608314C18.5013 0.428032 18.2872 0.337891 18.0168 0.337891H7.16607C6.85058 0.337891 6.59142 0.439299 6.3886 0.642116C6.20832 0.844933 6.11818 1.09282 6.11818 1.38578V10.6366L0.801761 12.4087C0.358991 12.5563 0.1197 13.0349 0.267289 13.4776C0.414877 13.9204 0.893456 14.1597 1.33623 14.0121L6.11818 12.4181V22.3773C6.11818 23.0985 6.45621 23.4928 7.13227 23.5604ZM8.14635 11.797C9.29565 11.5942 10.614 11.4928 12.1013 11.4928C16.2703 11.4928 18.3548 13.1492 18.3548 16.4618C18.3548 18.2421 17.8816 19.6168 16.9351 20.5858C16.0111 21.5323 14.321 22.0055 11.8647 22.0055C10.3773 22.0055 9.1379 21.9266 8.14635 21.7689V11.797Z" fill="white"/>
</svg>
