<svg width="74" height="74" viewBox="0 0 74 74" fill="none" xmlns="http://www.w3.org/2000/svg">
<path d="M69.1258 10.4169H58.7666L61.5709 7.61261L56.6671 2.70866L53.5143 5.86146C52.4531 5.24114 51.3196 4.77199 50.1276 4.46023V0H43.1926V4.46038C42.0006 4.77242 40.8671 5.24143 39.8061 5.86161L36.6531 2.70866L31.7493 7.61246L34.5537 10.4169H12.9266V12.5849H34.0172C33.8145 13.095 33.6411 13.6172 33.501 14.1519H29.0407V14.8785H3.61559L5.80278 12.5849H10.7585V10.4169H4.87461L0 15.5284V57.5662L4.88357 62.5432H27.4576V65.5897H18.821L15.0953 70.3565V73.9996H47.8563V71.8316H17.2631V71.1032L19.8781 67.7577H54.122L56.7369 71.1032V71.8316H50.0243V73.9996H58.9049V70.3565L55.1793 65.5897H46.5425V62.5432H69.1167L74 57.5662V15.5284L69.1258 10.4169ZM70.3846 14.8785H64.2798V14.1519H59.8196C59.6797 13.6172 59.5064 13.095 59.3036 12.5849H68.1975L70.3846 14.8785ZM31.2086 16.3199H35.2609L35.4304 15.4413C35.7242 13.9184 36.3123 12.4975 37.1781 11.2179L37.6797 10.4768L34.8156 7.61246L36.6534 5.7746L39.5177 8.63892L40.259 8.13725C41.5381 7.27166 42.959 6.68356 44.4822 6.38958L45.3608 6.22005V2.16797H47.9599V6.22034L48.8387 6.38973C50.3618 6.68327 51.7827 7.27137 53.0619 8.13725L53.8032 8.63907L56.6674 5.77475L58.5052 7.61275L55.6412 10.4768L56.1429 11.2181C57.0088 12.4975 57.5969 13.9184 57.8905 15.4414L58.0601 16.32H62.1122V18.919H58.0596L57.8901 19.7976C57.5964 21.3207 57.0083 22.7416 56.1424 24.0209L55.6408 24.7622L58.5051 27.6266L56.6671 29.4644L53.8029 26.6001L53.0616 27.1018C51.7819 27.9678 50.361 28.5559 48.8384 28.8494L47.9597 29.0188V33.0712H45.3606V29.0191L44.4819 28.8496C42.9589 28.5559 41.538 27.9678 40.2586 27.1019L39.5173 26.6003L36.6531 29.4644L34.8153 27.6264L37.6794 24.7624L37.1778 24.0211C36.3117 22.7414 35.7236 21.3205 35.4301 19.7977L35.2607 18.919H31.2086V16.3199ZM33.5009 21.087C33.8128 22.2788 34.2818 23.4125 34.9023 24.4738L31.7495 27.6264L36.6533 32.5304L39.8061 29.3776C40.8672 29.9979 42.0009 30.4669 43.1927 30.7788V35.239H50.1278V30.7788C51.3194 30.4669 52.4531 29.9979 53.5144 29.3774L56.6672 32.5304L61.5712 27.6266L58.4182 24.4736C59.0386 23.4125 59.5076 22.2789 59.8195 21.087H64.2798V17.0464H71.832V56.0392H2.16797V17.0464H29.0407V21.087H33.5009ZM44.3744 65.5899H29.6256V62.5433H44.3746V65.5899H44.3744ZM68.2066 60.3752H5.79368L3.66632 58.2072H70.3337L68.2066 60.3752Z" fill="#DB293D"/>
<path d="M29.0408 47.5092H31.2088V49.6771H29.0408V47.5092Z" fill="#DB293D"/>
<path d="M33.3767 47.5092H62.1119V49.6771H33.3767V47.5092Z" fill="#DB293D"/>
<path d="M46.6603 26.9223C51.7899 26.9223 55.9631 22.749 55.9631 17.6194C55.9631 12.4899 51.7899 8.31653 46.6603 8.31653C41.5308 8.31653 37.3574 12.4899 37.3574 17.6194C37.3574 22.749 41.5308 26.9223 46.6603 26.9223ZM46.6603 10.4845C50.5945 10.4845 53.7951 13.6853 53.7951 17.6194C53.7951 21.5536 50.5943 24.7544 46.6603 24.7544C42.726 24.7544 39.5254 21.5536 39.5254 17.6194C39.5254 13.6853 42.726 10.4845 46.6603 10.4845Z" fill="#DB293D"/>
<path d="M47.9812 20.0888L49.0053 21.9996C49.9486 21.4941 50.716 20.6818 51.1659 19.7121L49.1996 18.7996C48.9422 19.3537 48.521 19.7994 47.9812 20.0888Z" fill="#DB293D"/>
<path d="M46.6603 14.8204C48.0699 14.8204 49.2639 15.8726 49.4375 17.2681L51.5888 17.0004C51.2806 14.5217 49.1617 12.6525 46.6603 12.6525C45.5067 12.6525 44.3828 13.0566 43.4957 13.7902L44.8772 15.4609C45.384 15.0419 46.0004 14.8204 46.6603 14.8204Z" fill="#DB293D"/>
<path d="M29.0408 43.1732H62.1119V45.3412H29.0408V43.1732Z" fill="#DB293D"/>
<path d="M59.9439 38.8374H62.1119V41.0054H59.9439V38.8374Z" fill="#DB293D"/>
<path d="M29.0408 38.8374H57.7759V41.0054H29.0408V38.8374Z" fill="#DB293D"/>
<path d="M11.8881 49.677H24.7049V27.7446H11.8881V49.677ZM14.0561 29.9126H22.5369V47.509H14.0561V29.9126Z" fill="#DB293D"/>
<path d="M11.8881 23.4089H24.7049V25.5769H11.8881V23.4089Z" fill="#DB293D"/>
<path d="M4.33594 23.2968H6.50391V29.8007H4.33594V23.2968Z" fill="#DB293D"/>
<path d="M4.33594 18.9606H6.50391V21.1287H4.33594V18.9606Z" fill="#DB293D"/>
<path d="M67.4961 51.7034H69.6641V53.8713H67.4961V51.7034Z" fill="#DB293D"/>
<path d="M67.4961 47.3674H69.6641V49.5354H67.4961V47.3674Z" fill="#DB293D"/>
</svg>
