<?xml version="1.0" encoding="utf-8"?>
<!-- Generator: Adobe Illustrator 23.1.0, SVG Export Plug-In . SVG Version: 6.00 Build 0)  -->
<svg version="1.1" id="Layer_1" xmlns="http://www.w3.org/2000/svg" xmlns:xlink="http://www.w3.org/1999/xlink" x="0px" y="0px"
	 viewBox="0 0 24 24" style="enable-background:new 0 0 24 24;" xml:space="preserve">
<style type="text/css">
	.st0{fill-rule:evenodd;clip-rule:evenodd;fill:#DB293D;}
</style>
<path class="st0" d="M19.1,7.5c2.2,0,4-1.7,4-3.7c0-2.1-1.8-3.7-4-3.7s-4,1.7-4,3.7c0,0.3,0,0.6,0.1,0.9L7.1,9
	C6.3,8.2,5.2,7.7,4,7.7c-2.2,0-4,1.7-4,3.7c0,2.1,1.8,3.7,4,3.7c1.4,0,2.7-0.7,3.4-1.7l8.9,5.2c-0.3,0.5-0.4,1-0.4,1.6
	c0,2.1,1.8,3.7,4,3.7c2.2,0,4-1.7,4-3.7c0-2.1-1.8-3.7-4-3.7c-1,0-1.9,0.3-2.6,0.9L8,11.9c0-0.1,0-0.3,0-0.4c0-0.3,0-0.6-0.1-0.9
	l8.2-4.3C16.8,7,17.9,7.5,19.1,7.5z"/>
</svg>
